<svg xmlns="http://www.w3.org/2000/svg" version="1" viewBox="0 0 237 208"><path fill="#cccccb" d="M96 206h4l-2 1-2-1zm95-1c0-2 0-2 1-1l-1 3v-2zm-112-3l-1-2 3 2c2 3 2 3-2 0zm-47 0h2c1 1 0 1-1 1-2 0-2-1-1-1zm14-1h1-1zm-35-3l2-2c-1-1 0-1 1-1 3 0 4 2 0 3l-4 1 1-1zm75 0h4c2 0 1 1-2 1s-4-1-2-1zm13 0l2-2v2l-1 1-1-1zm79 0c-2-1-1-3 1-3l2 1c-1 1 0 2 2 2s2 1 0 1l-5-1zm-156-1l3-2 3-1c2 0 2 0-1 2l-5 1c-2 0-2 0 0 0zm148 0h1-1zm-134-2l1-1 2 2h-2l-1-1zm68 0l1-1 2 2h-2l-1-1zm50-1c-3-2-1-2 3 0l2 2-5-2zm11 1c-1-1 0-1 1-1l2 1-1 1-2-1zm-108-1h5-5zm69 0h5-5zm-39-3l-1-3 3 3c2 1 2 3 2 3l-4-3zm-18-1h3l-2 1c-2 0-2-1-1-1zm28 0l3-2 3-1-3 3h-3zm-77-3l1-1 1 1-1 1-1-1zm30 0h3l-2 1c-1 0-2 0-1-1zm75 0h3l-2 1c-2 0-2 0-1-1zm46 0l2-1 1 1-2 1-1-1zm-156-4l4-2h2c1 1-2 3-6 3h-2zm161 0h2c1 1 0 1-1 1-2 0-2 0-1-1zm-145-2c1-2 4-3 4 0l-2 2c-2 0-2-1-2-2zm129 1c-2-1-1-3 0-3l2 2c0 2-1 3-2 1zm11 0l3-2c2 0 2 0 1 2h-4zm-125-2c-1-1 7-3 12-2 3 0 3 1-1 1-5 0-5 0-2 1s2 1-3 1c-3 1-6 0-6-1zm18 1h2-2zm60 0l10-1c9 0 9 0 3-1l-7-1h6c7 0 12 1 12 2s-5 2-12 2l-12-1zm-105-7l2-2v2l-1 1-1-1zm15 0h7-7zm110 0h7-7zm-123-4l2-4c2-2 2-2 1 1-2 4-3 5-3 3zm147-7l-1-4c1 0 4 7 3 8l-2-4zm-70-7v-3 3zm68 0v-2l1 2c1 2 0 2-1 0zm5-8l1-4h1l-1 3-1 1zm-141-5v-2l1 1c1 3 0 3-1 1zm134-2l1-1-1 3v-2zm-144-6l1-2v4l-1-2zm78-1l-2-1c-1 1-1 0-1-1h3c2 2 3 3 1 3l-1-1zm-74-4v-5c-1-1 1-1 2-2 2 0 3 0 1 1-2 0-2 1-2 5v5l-1-4zm70 0l-2-4c-2-2-2-2 1 0s3 5 1 5v-1zm50-4l1-2v3l-1-1zm-111-5l1-5v12zm135 2h2c1 1 0 1-1 1-2 0-2 0-1-1zm-52-3v-1l2 1c1 2 1 2-2 0zm-45-1l3-1-1 1-3 1 1-1zm52 0l-1-1 3 1c1 2 0 2-2 0zm-69-1h4l-2 1-2-1zm79 0c-4-2 0-2 4 0 3 0 3 1 1 1l-5-1zm-72-1h1-1zm155-38v-2l1 3c0 1-1 1-1-1zm-20-1c-1-1 0-1 2-1s3 0 2 1l-2 1-2-1zm18-6l1-1 1 1-1 2-1-2zm4-6c-1-2-1-2 1-1l2 3-3-2zm-37-4l1-1v3l-1-2zm-37-1h2-2zm64-3v-1c1 1 1 0 1-2v-1c1 1 2 3 1 4-2 2-2 2-2 0zm5 0l2-2v2l-1 2-1-2zm-28-3l2-1-1 1h-1zm-42-1l2-1 1 1h-3zm73 0c-2-1-2-3 1-3l2 2-1 2-2-1zm-22-9l2-2v2l-2 2v-2zm-65 0l2-1h2c-1 2-4 2-4 1zm91 0c2-2 5-2 5-1l-3 2-2-1zm14-1h2c2 1 2 1-1 1l-1-1zm-44-6v-1 1zm9 1l2-2v2c-1 3-2 3-2 0zm9 1l2-1-2 2c-2 1-2 0 0-1zm24 0c-1-3 0-4 2-3v3h-2zm-78-4v-2l2 2c0 2-1 2-2 0zm74-1h2c1 1 0 1-1 1-2 0-2 0-1-1zm-18-2l2-2 2 2-2 1-2-1zm-9-5h2c2 1 1 1-1 1-1 0-2 0-1-1zm-28-7l-1-2 2 2c1 2 0 3-1 0zm-8-1l1-2 2 2-2 2-1-2zm22-4l2-3c2-1 2-1 1 1l-3 2zm-17-3v-2l1 2c1 2 0 3-1 0zm-21-4c0-2 1-3 2-3l1 3-1 3c-1 0-2-1-2-3zm5-6l-3-3 3 2 3 4-3-3z"/><path fill="#decaa9" d="M88 171l1-2-1 4v-2zm-24-1v-3c1-1 1 0 2 2 0 4 0 4-2 1zm12 1l2-1 1 1-2 1-1-1zm-26-4c1-3 1-3 2-1s1 2 2 0c1-3 3-2 4 2 0 1 0 3-1 2l-1-3c0-2 0-2-2 1-2 4-4 3-4-1zm20 0v-2 2zm-29-1l1-1v3l-1-2zm39-2l3-5v1l-2 4c-1 3-1 3-1 0zm39 1c0-2 0-2 1-1l-1 3v-2zm19-1v-1 1zm-71-2c0-2 2-4 3-3l-1 2-2 1zm-29-3c-1-2 0-2 1 0l1 2-2-2zm43-18c0-1 1-2 2-1l1 2-1 1-2-2zm-12 0l2-3c0-2 1-2 1 0 1 2 0 3-2 3h-1zm-16-2v-1l2 1c1 2 1 2-2 0zm32-1l1-1v3l-1-2zm64 1c-2 0-4-1-4-3l1-11 8 1 7 2-4 6-4 6-4-1zm-111-2l2-3c1-2 1-2 2 0 0 2 0 3-3 3h-1zm26-2h1v2c-1 1-1 0-1-2zm-13-1c0-2 0-3 1-2v3c-1 1-1 0-1-1zm7-4l1-2 1 2-1 2-1-2zm29 0h2c1 1 1 2-1 2s-2-1-1-2zm-20-1l-1-2 3 2c2 2 2 2-2 0zm60-59c1-1 0-2-1-2l2-1c2-1 2-1 1 1 0 2-1 3-2 3v-1zm4-7l-3-4h1l4 3 1 1 1 2c1 0 1 0 0 0-1 1-2-1-4-2zm0-4l1-1 1 1v1l-2-1zm12-9l2-1c2 0 3 0 2 1h-4zm6-13h2c2 1 1 1-1 1-1 0-2 0-1-1zm34-5h1l1 1-1 1-1-2zm33-6h2c1 1 0 1-1 1-2 0-2-1-1-1z"/><path fill="#dda794" d="M80 170c-3-2-3-3 0-3l2 3c0 3 1 3-2 0zm58 0v-2 2zm-66-2l1-2 2 3-2 2-1-3zm-29 0l2-1v1l-1 2-1-2zm85-1h1v2c-1 1-1 0-1-2zm-65-1c0-1 0-2 1-1l-1 3v-2zm-14-4c-1-2-1-3 1-3s3 1 2 3c0 3-1 3-3 0zm20 0v-2l2 2-1 2-1-2zm54 1l1-1 1 1-2 1v-1zm10-2l1-1-1 2v-1zm13 0c1-1 1-2 2-1l-1 2c-1 1-2 1-1-1zm-8-1l1-1 1 1-1 2-1-2zm-76-8l2-3c3 0 5 1 3 3v-1l-2-1v2l-1 2-2-2zm78-1h1v2c-1 1-1 0-1-2zm11-3l2-3c2-1 2-1 1 1l-3 2zm-66-6l-1-2c1-1 2 0 3 1 2 2 1 2-2 1zm8-3l1-1 1 1-2 1v-1zm-47-2c-2-2-3-9-1-7l3 9-2-2zm4 0c-1-1 0-1 0 0 1 0 3 0 3-2l2-2 2-1 1-1v2c3 0 4 1 4 3-1 2-1 3-3 2h-5l-4-1zm26 0v-2c-1-1-2-1-1-2l2 1v3h-1zm-9-6l2-1c2 1 2 2 0 2l-2-1zm24 0l1-1 2 1-1 1-2-1zm-28-1l1-2 1 2v1l-2-1zm59 0l1-1c3 1 3 2 1 2l-2-1zm11-62l1-2c1 1 0 2-1 3v-1zm-2-3c0-2 0-2 1-1l-1 3v-2z"/><path fill="#99d1a3" d="M56 187h8c2 1 0 1-4 1s-6 0-4-1zm75 0h7c2 1 1 1-3 1s-6 0-4-1zm-62-7c-1-1-1-1 1-1s3 1 2 2l-3-1zm52 0c-1-1-1-1 1-1l2 1c0 2 0 2-3 0zm92-95h2-2zm1-8l2-2 2 1-2 1-2 1v-1zm-55-25c-2-1-2-1 0-1l2 1c0 2 0 2-2 0zm72-9l2-1v1l-1 1-1-1zm-23-2c-1-1 0-2 1-2 2 0 3 1 2 2l-2 1-1-1zm21-2v-1l2 1-1 1-1-1zm-13-4c0-3 1-4 2-1v3l-2-2zm-17 1l4-2 2 1-4 1h-2zm12-4h2c1 1 1 1-1 1s-2 0-1-1zm-77-3c-1-1-2-2-1-3l-1-2c-1-1-1-1 1-1 3 0 3 0 2 2-1 1-1 2 1 3l1 2-3-1zm9-2h-2l-1 1v-2l2-1c1 0 2 0 3-2l3-1c0 1 0 2-2 3s-2 1-1 2l1 2c-1 0-2 0-3-2zm61 0l1-1 1 1-1 1-1-1zm-35-8c0-1 0-2-1-1-4 1-3 0 0-2h2l1 2c2 0 2-1 2-2-1-1-1-1 0 0v2c-1 2-5 2-4 1zm-29-2v-3h1c2 0 3 0 1 2-2 4-2 4-2 1zm39-1l-1-1 3 1c1 2 0 2-2 0zm3 0l1-2 1 2-1 2-1-2zm-10-4l2-1 1 1c-1 2-3 2-3 0z"/><path fill="#999796" d="M186 207h4c1 1 0 1-2 1s-3 0-2-1zm-144-6h1-1zm87-2h6c2 1 0 1-3 1s-5 0-3-1zm-117-1l-1-2 4 2v1l-3-1zm155-1l2-1h1c-1 2-3 2-3 1zm-127-2h3c1 1 0 1-2 1s-2 0-1-1zm112 0h2c1 1 0 1-1 1-2 0-2 0-1-1zm-119-1h3l-2 1c-2 0-2-1-1-1zm127 0h3l-2 1c-2 0-2-1-1-1zm-67-4l-1-3 2 2c1 2 1 2 2-1 1-2 1-3 1 0 0 4-1 6-4 2zm8 3l3-2c2-2 2-2 0 0l-3 2zm-29-3l1-2 2 2-2 1-1-1zm47 0l1-2 1 2-1 1-1-1zm-69-1h5-5zm83 0h5-5zm41-2h3l-2 1c-1 0-2 0-1-1zm-149-1h3l-1 1-2-1zm155-1v-2c1 0 3 2 2 3l-2-1zm-158-3h3l-2 1-1-1zm6 0h2c1 1 0 1-1 1-2 0-2-1-1-1zm136 0h5l-2 1-3-1zm-148-2h1l2 1-2 1-1-2zm28 1h1-1zm105 0h1-1zm7 0h1-1zm-127-2h3l-2 1c-2 0-2 0-1-1zm23 1c2-2 16-2 16-1l-8 1h-8zm73-1l18 1h-9l-9-1zm39 0h2c1 1 0 1-1 1-2 0-2 0-1-1zm-120-1h4l-2 1-2-1zm102 0h4l-3 1c-2 0-3-1-1-1zm-50-23l1-13c2 0 1 25-1 26v-13zm75-10v-2l1 2c1 2 1 3-1 0zm-151-6h1v2c-1 1-1 0-1-2zm141-9l1-1v3l-1-2zm-138-3l1-2c1-1 1 0 1 1-1 2-2 3-2 1zm9-7l1-2v5l-1-3zm25-2c-4-1-4-1-1-2l6 2h-5zm76 0c2-2 11-2 10-1l-7 1h-3zm-94-2h2l3 1-3 1-2-2zm152-39c1-1 0-2-1-3v-2l2 2v3h-1zm34-13l1-2c1 1 0 2-1 3v-1zm-84-4l2-1c1 1 0 1-1 2-2 1-2 0-1-1zm6-4v-2l1 2c1 2 1 2-1 0zm41-2l2-1 2 1-2 1c-1 1-2 0-2-1zm-52-4h2c1 1 0 1-1 1-2 0-2-1-1-1zm49 0l3-2c2-2 2-2 0 1-2 2-3 3-3 1zm4-7h1v2l-1-2zm37 0l3-1 2 1-2 1-3-1zm-29-1l1-2 1 2-2 1v-1zm-40-1l3-1h3l-3 2-3-1z"/><path fill="#5baab5" d="M196 75h1v2c-1 1-1 0-1-2zm14-16h3l-2 1c-1 0-2 0-1-1zm-4-2l-2-4h2l1 3c0 4 0 4-1 1zm10-1c0-2 1-2 1-1l-1 3v-2zm-2-7h-6c0-2 6-2 8 0 1 1 1 1-1 1l-1-1zm13-2l1-2h1c-1 1 0 2 1 2v1l-3-1zm-96-4l-1-5c-1-3-1-3 1-2v1l1 3v3h-1zm6-3v-2 1h2v1c-1 2-1 2-2 0zm66-1v-2l1 1c1 3 1 3-1 1zm-51-24V2c2-1 7 6 6 10l-3 3h-3z"/><path fill="#b4b54a" d="M133 60h2l1 1-1 1-2-2zm9-13c0-4 4-5 5-2 1 1 0 1-2 1-2-1-3 0-2 1v3c-1 0-2-2-1-3zm36-5c-1-3-1-6 2-9 3-4 4-4 3-2l2 3c3 1 4 8 1 9-2 2-7 1-8-1zm-30-4c-2 0-3-1-2-2 1-3 3-3 4 0v3l-2-1zm17-3l-3-1c-3 1-7-4-7-10 0-2 0-2 5 1l6 7c1 4 0 5-1 3zm43-11l3-1 2-2c0-2 1-2 5-2 4 1 7 3 6 5-2 1-16 2-16 0zm9-2l-1-2-1 2 1 1 1-1zm-4-6v-2c1 1 2 0 2-1 0-2 1-2 1 1 1 4-2 5-3 2z"/><path fill="#d4664c" d="M86 171l1-1 1 1-1 1-1-1zm58 1l2-2c1 0 2 0 1 1l-3 1zm-79-3l1-1v3l-1-2zm4 0l-1-5c1-2 1-2 1 2v3zm-15-1l2-2-1 3c-1 1-2 1-1-1zm3-1h1v2l-1-2zm3-2l1-7v11c-1 1-1-1-1-4zm68-2h1v2c-1 1-1 0-1-2zm-90-1c-1-3-1-4 1-1l1 3-2-2zm38 1l1-2c1-1 1 0 1 1-1 2-2 3-2 1zm5 0l2-2v1c-1 2-2 3-2 1zm-34-3h1l1 1-1 1-1-2zm73-1h4c1 1 0 1-2 1s-3 0-2-1zm16 0h2c1 1 0 1-1 1-2 0-2 0-1-1zm9-8c-1-1 0-1 1-1 2 1 3 2 1 2l-2-1zm-15-1h3l-2 1-1-1zm20-7c1-3 2-3 3 1l-2 2-1-3zm-70-4l1-3 2-1c2 0 2 0 2 2s0 2-1 1c-1-2-1-2-3 1-1 3-1 3-1 0zm-5-1v-3l1 3c1 3 0 3-1 0zm-25-1v-8l1 4v5l-1-1zm22-1l-1-2h-2l2-2c1 0 2 1 2 3v3l-1-2zm19-2l2-1v1l-2 2v-2zm-50-2l-1-2h-1l2-2c1 0 2 1 2 3l-1 3-1-2zm25-1v-2h1c0 1 0 2 1 1l1 2c-1 2-2 2-3-1zm60-2c-1-3-1-3 1-1l2 2c0 2-1 1-3-1zm75-80c-1-1 0-2 1-1 1 0 2 1 1 2s-1 1-2-1z"/><path fill="#8e7063" d="M61 199h11c2 1 0 1-6 1s-8 0-5-1zm77 0h4c1 1 0 1-2 1s-3 0-2-1zm-38-11l2-3c2-1 2-1 1 1l-3 2zm-11-2c0-1 1-2 2-1l1 1-1 1-2-1zm7-50l2-3c2-1 2-1 1 1l-3 2zm61-9c-3-1-3-1-1-1l3 1h-2zm-10-3c-2-1-2-1 0-1l3 1c1 2 1 2-3 0zm-3-6v-2l2 2h-2zm-110-3h4c1 1 0 1-2 1s-3 0-2-1zm174-45c-3-3-3-3-1-5 1-1 1-1 0 0 0 2 0 3 2 5l3 2-4-2zm19-3l1-2 1 1c0 3-1 3-2 1zm-4-3l1-1 1 1-2 2v-2zm-24-1l2-1v1l-1 1-1-1zm27-1l1-2 1 1c0 2-1 3-2 1zm-38-12l4-3-3 3-3 4 2-4zm-60-2l1-2v2l-1 2v-2zm3 0h2c2 1 2 2 0 2s-2-1-2-2zm23-7h1-1zm11 0h1-1zm-10-4c0-2 0-2 1-1l1 2-2-1zm21-7l1-2c1-1 1 0 1 1-1 2-2 3-2 1z"/><path fill="#cc4c35" d="M87 167c0-2 0-3 1-2v4l-1-2zm44-1l2-1c2 1 2 2 0 2l-2-1zm-14-13c-5-2-8-6-6-6v-2c-2-2-2-2 0-1 3 1 3 0 1-2-1-1-1-2 1-2 3 0 3 0 2-2-2-1-2-2 0-2l2-2 2-1c2 1 2 0 2-1 0-2 1-2 2-2h2c0-2 1-2 2 0 2 1 2 1 2-1s1-2 2-1h3c0-1 1-1 1 1s0 2 1 1l1-1 2 1c2-1 2 0 1 2 0 1 0 2 1 1s4 2 4 4v10l3-2 2-1v2l1 2c-1 2-2 3-4 3-2-1-3 0-2 1 0 1 0 2-1 1l-3-5c-2-4-2-4-4-2-3 3-6 3-10 1s-4-2-4 2-3 6-6 4zm13-2h3l-2 1c-1 0-2 0-1-1zm-75-13l2-2v2l-1 1-1-1zm133-80v-2l2 2h-2zm5-3l2-1c2 1 1 2-1 2l-1-1zm6-6c0-3 2-4 3-2 1 1 0 1-1 1-1-1-1-1-1 1v2l-1-2zm-55-1l1-2 2 1-2 2-1-1z"/><path fill="#35a654" d="M214 85c-4-1-10-6-9-8l5-1c2 0 3 1 3 2-1 2 1 5 5 5l3 1c1 2 0 2-7 1zm1-6h1l-1 2v-2zm0-4l-1-1 2-2 1-2 1 1c-1 1 0 2 1 3 1 0 1 1-1 1h-3zm-60-20l-2-4c0-4 2-4 4 0 2 2 0 5-2 4zm8-3l-4-2-1-4c-1-3-1-4 1-1h3c2-2 5 4 4 7s-1 3-3 0zm61-4l1-4h2l-2 3-1 1zm-19-8c-1-3 0-5 1-6v1l1 2c1 0 1 0 0 0l-1 2v1h-1zm5-5h3l-2 1c-1 0-2 0-1-1zm-73-5l2-2 3-2c2-2 2-2 2 0l-2 4h-5zm63 0l2-2c2-2 2-2 1 1-2 2-3 3-3 1zm-37-8c-2-3-2-3 1-2 3 2 4 2 3 0l1-2 1 1 2 2 2 2c0 2-7 2-10-1zm12-1v-3c-1 1-1 0-1-2 1-2 0-3-1-5l-2-1c3 0 5 3 5 5s4 3 6 1h1c0 2-2 4-5 6l-4 3zm-44-1c1-5 3-5 3-1l-2 4-1-3zm14 0l-2-2c-1 1-1 0-1-2 0-3 3-2 5 2 2 3 1 4-2 2zm-7-4v-2l1 2c1 2 0 2-1 0zm33 1c0-1-1-2-2-1l-2-1 2-1c2 0 4 2 2 3 0 1 0 0 0 0z"/><path fill="#1667af" d="M197 74c0-2 1-3 2-3s3 4 2 5c-2 3-4 2-4-2zm14-18l-4-2c-1 0-2-1-1-3 0-1 1-2 3-2 5 1 6 2 5 6-1 3-2 3-3 1zm-74-18l-4-2c-3 0-3 0 0-1l3-2 2 3c1 4 0 6-1 2z"/><path fill="#5d5959" d="M167 203c-21-4-48-5-54-1s-27 4-32 0c-2-2-4-2-19-2a386 386 0 0 0-61 5l4-12c3-6 5-10 5-8l4 2c2 1 2 1-1 1-2 0-3 1-5 4v6l22-1c25-3 46-3 50 0 6 3 27 3 32 0 4-2 26-3 46-1 24 3 29 3 28 2-1 0-2-1-1-2 1-2-2-8-5-8l-3-1h3l3-1a411 411 0 0 0-1-7l9 27c0 2-7 1-24-3zm-83-9v-2l2 2h-2zm32-4h2c1 1 0 1-1 1-2 0-2-1-1-1zm-49-1h2-2zm56 0h2-2zm-38-5l-7-2-4-2c0-2-19-3-38-1l-18 1c-1-1 0-2 1-3 1-2 5-2 20-2l28 1c8 2 22 7 22 9l-4-1zm11-6l1-5v9l-1-4zm8 7c0-2 12-7 21-8 14-3 47-3 50 0l1 3-19-1c-19-2-37-1-38 1l-3 2c-2 0-5 0-7 2l-5 1zm-93-4l2-8c4-11 8-30 8-37l2-7c2-2 0 16-3 29-2 8-9 26-9 23zm160-47c0-6 0-8 1-5v10c-1 2-1 0-1-5zm-140-1c-1-6-1-9 1-9s2 4 0 12c-1 5-1 5-1-3zm66 4c0-2 0-3 1-2v3c0 2 0 2-1-1zm66-3c0-4 0-6 1-4v7c-1 2-1 1-1-3zm-72-7l-2-3 3 2 2 4-3-3zm73-2h1-1zm-99-7h3l-2 1c-2 0-2-1-1-1zm-19-1h1-1z"/><path fill="#c42920" d="M120 166c-1-5 0-6 3-6h4l-2 2-2 1 2 1 2 2-2 1c-1-1-2 0-1 2 0 2-1 3-2 3s-2-2-2-6zm9 0c0-6 2-8 4-4 1 3 1 4-1 3-1-1-2 0-1 3l-1 4-1-6zm12 0c0-6 0-6 3-7l3 1-2 2c-3 0-3 2 0 3 2 0 2 0 0 0-1 1-2 1-2 3l2 2c2 0 2 0 0 1l-4 1v-6zm-56 0l2-4v4c-1 6-2 6-2 0zm49 3l2-9 1 6c0 5-1 7-3 3zm-87-3c0-4 0-5 2-3 1 1 2 3 1 4 0 3 0 3 0 0l-1-3-1 3c-1 3-1 3-1-1zm-4-4c0-3 0-4 1-3v5c-1 1-1 0-1-2zm22-10l-1-2-1-2c2-2 4 2 3 5l-1-1zm80-9c0-3 1-4 3-3l3 2-3 3c-3 2-3 2-3-2zm-82 1h2c2 1 2 1 0 1l-2-1zm19-7v-4l1 3 1 4-2-3zm9 3l1-4h1l-1 3-1 1zm-29-6l-1-4v1c0 2 1 2 2 0s1-1 1 2c0 5 0 6-2 1zm7 2l2-1v1l-1 2-1-2zm-4-2c0-4 1-4 2-1v3l-2-2zm22 0c0-2 0-3 1-2v3c-1 1-1 0-1-1zm-48-2l1-1 1 1-2 2v-2zm158-84c0-2 1-2 2-2v2l-1 2-1-2z"/><path fill="#70503e" d="M159 127l-4-2-10-3a644 644 0 0 1 16-53c0-4-6-9-12-9-3 0-3 0-2-1l2-2h2l7 3c5 0 7 0 9-2 3-3 3-11 0-14-1-1-1-2 1-4 2-1 3-3 3-5l2-4c2 0 2 2 2 9-1 6 0 8 2 11 3 3 3 3 6 1l6-5c2-3 3-4 4-3 2 1 1 2-1 3-4 2-11 12-11 15 0 2 2 4 3 5 3 1 10 1 13-1 2-2 9-1 9 0s-3 2-7 2-6 0-8 2-2 3 2 6c3 2 4 4 3 4l-2 4v-1c-1-5-4-9-8-9s-10 11-17 31l-8 22h-2zm62-58c0-4 5-5 7-2s2 4-3 4c-3 1-4 0-4-2zm-33-10l1-5 3 2 4 4c0 2 0 2-2 0-2-3-5-3-4 0l-1 4-1-5zm-62-8c-3 0-3-1-2-2 2-2 5-3 3-1l4 1 3-1-3-1c-1 0-2 0-1-1l4 1c3 2 3 2 1 3-2 2-4 2-9 1zm31-12l2-1c3 2 3 2 0 2-2 0-3 0-2-1z"/><path fill="#19645c" d="M140 57c1-3 3-3 4 0l-2 2-2-2zm83-5l1-3c2-2 3-2 3-1v2l-1 2c1 2-1 2-3 0zm9-7l3-3-2 3c-3 2-3 2-1 0zm-42-17c2-6 3-7 3-3l-2 6c-1 0-2-1-1-3zm5-7v-2l-3 1h-1c2 1-1 4-2 3-3-1-3-6-1-8 4-3 7-3 10 1 3 3 3 6 0 9-3 2-4 0-3-4z"/></svg>