<svg xmlns="http://www.w3.org/2000/svg" version="1" viewBox="0 0 198 198"><path fill="#fdcc9b" d="M85 148h29v33H85z"/><path fill="#fcbc85" d="M85 152s12 8 29 6v-10H85v4z"/><ellipse cx="42" cy="97" fill="#fcbc85" rx="14" ry="16"/><ellipse cx="156" cy="97" fill="#fcbc85" rx="14" ry="16"/><path fill="#fdcc9b" d="M156 66c0-24-17-42-57-42-39 0-57 18-57 42s-4 88 57 88 57-64 57-88z"/><ellipse cx="71" cy="93" fill="#3b2519" rx="6" ry="7"/><circle cx="69" cy="90" r="2" fill="#fff"/><path fill="#51362a" d="M62 77c3 1 7-5 18 0 2 1 3-9-8-9-10 0-12 8-10 9z"/><ellipse cx="128" cy="93" fill="#3b2519" rx="6" ry="7"/><circle cx="125" cy="90" r="2" fill="#fff"/><path fill="#51362a" d="M137 77c-3 1-8-5-18 0-2 1-4-9 8-9 10 0 12 8 10 9z"/><path fill="#fcbc85" d="M99 117c-6 0-10-5-10-2 0 2 2 6 10 6s10-4 10-6c0-3-4 2-10 2zM99 137l-3-1c0 1 0 3 3 3s4-2 4-2h-4z"/><path fill="#f7945e" d="M99 132c-9 0-15-4-15-3s3 5 15 5c13 0 16-4 16-5s-6 3-16 3z"/><path fill="#f7941e" d="M99 161v37H28c0-14 37-37 71-37zM99 161v37h72c0-14-38-37-72-37z"/><path fill="#f36c21" d="M99 161l-21 3s7 10 21 10c13 0 21-8 23-10-8-1-15-3-23-3z"/><path fill="#fdcc9b" d="M85 163s4 5 14 5c11 0 15-5 15-5s-15-6-29 0z"/><path fill="#51362a" d="M146 19S125-8 81 2 34 39 35 65c1 25 5 40 9 39 4-2 2-19 2-23 1-4 5-22 32-19 26 2 49-7 49-7s9 11 15 13c12 5 8 34 13 34s27-68-9-83z"/></svg>