<svg xmlns="http://www.w3.org/2000/svg" version="1" viewBox="0 0 196 171"><path fill="#fce7b3" d="M96 126l-1-2 3 1c3 2 1 3-2 1zm3-5l-7-5-2-2c0-2-2-3-4-3l-6-3-4-2-4-3c-1-3-2-3-6-3l-8-2c-2-1-2-1 0-6l6-15 3-9h9c8 0 9 1 7 2-2 2-6 18-5 21l8 2 7-5 5-5 4 5c2 4 5 6 9 8 7 4 19 15 19 18l-3 2c-3 1-5-1-12-8-6-7-9-9-9-7s4 6 9 11c7 7 8 9 6 10-3 1-7 0-15-7-4-3-6-5-6-3s10 11 12 11l1 1c0 4-9 2-14-3zm-16-3c-1-1-1-3 1-3l2 1c0 2-2 3-3 2zm-9-5v-3c2-1 4 1 4 3h-4zm-8-9l2-1 1 1-1 2-2-2zm16-19c1-2 5-3 4 0 0 1-1 2-3 2-1 0-2 0-1-2z"/><path fill="#b2d0db" d="M82 164c-23-4-44-20-55-41-5-9-5-9-2-9s5-2 7-7l6-7 6 3h8c4-3 6-1 6 4l3 5 6 6c1 2 3 4 5 4l4 2 4 3 5 3 6 2 11-2c10 0 23-4 25-7l5-4c3-2 4-4 4-6 0-3 1-4 3-2 1 1 5 2 8 1 6 0 7 0 11 4 4 5 8 6 11 3l-2 5c-6 11-22 27-34 33-15 8-35 11-51 7zm62-55h4l-2 1-2-1zm-29-42c-9-4-11-4-16-2-8 2-28 1-31-2l-18-8c-23-10-21-9-19-14 7-12 28-27 45-32 10-3 29-3 40-1 20 5 41 21 50 38l2 4-21 10-21 11-11-4z"/><path fill="#f7ce96" d="M86 126c0-1 1-2 2-1 3 1 3 3 1 3s-3-1-3-2zm-7-4c-1-3 1-5 3-3l2 3c0 2-4 1-5 0zm27-3c-1-2-1-2 1 0l2 2c0 1-1 1-3-2zm-12-1c-1-2-1-2 1 0l2 2-3-2zm-24-1v-5l3 3v3l-3-1zm4-3c-1-1 0-1 1-1 2 1 3 2 1 2l-2-1zm52-5l-3-4 4 3 3 4-4-3zm-64-2c0-2 1-2 3 0l3 2-3 1c-2 0-3-1-3-3zm64-4c-4-4-5-5-3-5l2-2-4-1c-7 0-13-4-17-10-3-8-7-8-14 0-3 3-4 4-3 2 3-4 2-7-1-7s-3-4 0-7l10-4 8-2 10 3 12 6c2 2 10 20 10 25 0 3 0 4-2 6-3 1-3 1-8-4zm-6-1c-2-2-2-2 0 0l2 2-2-2z"/><path fill="#9ccfb9" d="M23 110c-1-1-3-2-3-4l-1-6a92 92 0 0 1 3-38l3-8 2-6a78 78 0 0 1 23 10c0 5-19 47-23 51l-4 1z"/><path fill="#9aa39f" d="M17 86l1-3v5l-1-2zm87-22h0c-1 0-1 0 0 0zM26 49l3-2c2-2 2-2 0 0-1 3-3 3-3 2z"/><path fill="#a89274" d="M108 126h2c1 1 0 1-2 1v-1zm-35-11c-2-2-2-2 0 0 3 2 3 3 2 3l-2-3zm29 0c-1-2-1-2 1 0l2 2c0 1-1 1-3-2zm74-29l1-6v11c0 4-1 1-1-5zm-81-6h2-2z"/><path fill="#e25a36" d="M162 116c-4-4-5-6-3-9 1-2 0-4-4-12-6-12-13-24-16-26-2-1 1-3 14-10l16-7 3 7c6 15 4 54-3 57-3 2-4 2-7 0z"/><path fill="#615f59" d="M108 129h2l-2 1v-1zm5-4l1-3 1 2c-1 2-2 2-2 1zm-31-7v-2l1 1c1 2 0 3-1 1zm21-4c-2-1-3-3-2-3l4 3c4 5 3 5-2 0zm16 0l-2-1-3-2c-3-3-3-3 0-1l3 2c1-1 2 0 3 1l1 2-2-1zm16-1c-1-4 2-5 4-3h-1c-1 0-2 0-3 3 0 3 0 3 0 0zm21-1l-1-1 3 1c2 1 2 2 1 2l-3-2zm-128-1l1-2 1 2c-1 2-2 2-2 0zm116 1h2-2zm-77-2l-1-3v-3l2 3c1 2 1 3-1 4v-1zm-6-4c0-1 1-2 1 0v2l-1-2zm62-1l1-2h2l-1 2h-2zM38 90l3-3-1 3-2 2v-2zm42-3c-2-3-2-3 1-1l3 2-1 1-3-2zm6 2v-3l1 2c0 2 0 2-1 1zM43 78l2-2-1 3c-1 1-1 1-1-1zm29-10h0c-1 0-1 0 0 0zm-23-4l2-3v2l-2 3v-2zm32 2h9c3 0 1 1-4 1l-5-1zm19 0c-3-2-1-2 3 0l1 1-4-1zM48 56c-4-2-4-4 0-2l4 3-1 1-3-2zm-10-5l-4-2c1-1 10 3 10 4l-6-2z"/><path fill="#262222" d="M84 128l-4-2-3-3-6-3-4-3-4-5-3-6c0-5-4-7-8-5-3 2-3 2-8 0l-7-2-5 7c-3 5-5 6-7 6h-3l3-1c2 0 5-4 8-9l4-6 6 3c6 2 6 2 8 0 3-5 11-25 12-31 1-4 1-5-5-7l-7-1h-1l1-3c1-1 15 5 16 7 2 3 23 4 32 2 6-2 7-1 17 2l10 4 8-4 6-3-3 2 6 7 11 20c6 11 6 12 4 14-2 1-2 2-1 3l1 1c-1 0 0 2 2 3 2 2 5 3 7 2 1 0 2 0 1 1-1 2-6 1-9-2-2-2-3-3-2-4l-8-1-10-1c-2-2-5-1-5 3l-2 5-5 4c-2 2-5 3-21 8H94c-5 2-7 1-10-2zm7-3c1-4 0-5-3-2-4 3-4 5 0 5l3-3zm13 3l-5-4-5-3v3c0 2 2 3 3 4h7zm9-2c2-1 2-2 0-3l-8-6c-4-4-4-4 3 1 12 9 21 6 10-4l-9-10 6 5c9 9 13 11 15 6 1-2 0-3-5-9-4-5-9-8-11-9-5-1-11-7-12-11s-5-4-11 2c-7 8-14 5-11-4l2-9c0-2 2-5 4-5 2-1 1-1-5-2-16-1-14-1-18 9l-5 13c-3 6-3 7 1 10h5c4-1 9 2 9 5 0 1 1 2 3 2l4 2 5 3c3 0 4 1 5 4 0 2 1 3 2 2l7 4c6 5 11 6 14 4zm-31-7h-4c-1 3 3 6 5 4 2-1 2-2-1-4zm-7-1l-1-2c-1-2 0-2 2-1 3 0 4-3 2-5s-10 1-10 4 5 6 7 4zm13-2c0-2-2-3-5-1-1 1-2 2-1 3 1 2 5 1 6-2zm-20-7l1-3v-3c-2-2-4 0-3 3h-1c-2-2-4-2-4 0 0 4 7 7 7 3zm86-1l3-2-15-27c-6-10-7-10-11-8-2 2-1 3 3 13l6 19c1 7 1 7 6 7l8-2zm-19-1c3-3 2-9-3-22l-5-10-12-5-11-4-9 3c-11 3-11 3-12 8l1 3 3 2h-2c-3-1-6 4-4 6 2 3 7 1 10-3 2-3 4-4 7-4s4 0 6 5c3 6 8 9 14 9 4 0 7 2 4 3-1 1 7 10 9 10l4-1zm19-49c1-1 2-2 3-1l-2 1h-1zm11-6l2-1c1 1 0 2-1 2-2 1-3 1-1-1z"/></svg>