<svg xmlns="http://www.w3.org/2000/svg" version="1" viewBox="0 0 208 208"><path fill="#432b1f" d="M41 148c7 20-4 56-4 56h63V93l-70 14s4 24 11 41zM159 148c-7 20 4 56 4 56h-63V93l70 14s-4 24-11 41z"/><path fill="#fdcc9b" d="M85 158h29v33H85z"/><path fill="#fcbc85" d="M85 162s13 7 30 6v-10H85v4z"/><ellipse cx="43" cy="107" fill="#fcbc85" rx="14" ry="16"/><ellipse cx="157" cy="107" fill="#fcbc85" rx="14" ry="16"/><path fill="#fdcc9b" d="M157 75c0-24-18-41-57-41S43 51 43 75s-4 88 57 88 57-64 57-88z"/><ellipse cx="72" cy="103" fill="#3b2519" rx="6" ry="7"/><circle cx="70" cy="100" r="2" fill="#fff"/><path fill="#51362a" d="M62 88c3 1 8-4 19 1 2 0 3-7-9-7-10 0-11 5-10 6z"/><ellipse cx="129" cy="103" fill="#3b2519" rx="6" ry="7"/><circle cx="126" cy="100" r="2" fill="#fff"/><path fill="#51362a" d="M138 88c-3 1-8-4-19 1-2 0-3-7 9-7 10 0 11 5 10 6z"/><path fill="#fcbc85" d="M100 127c-6 0-10-5-10-3s2 7 10 7 10-5 10-7-4 3-10 3zM100 147l-3-1c0 1 0 2 3 2s3-1 3-2l-3 1z"/><path fill="#f7945e" d="M100 141c-10 0-15-4-15-3s2 5 15 5 16-4 16-5-6 3-16 3z"/><circle cx="64" cy="124" r="8" fill="#f9aa8d"/><circle cx="137" cy="124" r="8" fill="#f9aa8d"/><path fill="#694b74" d="M100 171v37H36c0-15 30-37 64-37zM100 171v37h64c0-15-30-37-64-37z"/><path fill="#563c60" d="M100 171c-7 0-15 1-22 3 0 0 8 10 22 10 13 0 21-9 23-10l-23-3z"/><path fill="#fdcc9b" d="M85 172s5 6 15 6 15-6 15-6-16-5-30 0z"/><path fill="#51362a" d="M152 25C115-20 44-2 29 59c-16 61 12 89 12 89-11-36 14-73 35-73 21-1 55-13 55-13s5 29 23 40c14 7 9 31 5 46 14-5 53-105-7-123z"/></svg>