<svg xmlns="http://www.w3.org/2000/svg" id="svg203" version="1" viewBox="0 0 512 512"><defs id="defs195"/><path id="path197" fill="#c90c0f" stroke-width="2" d="M256 85l-15 26c-5 11-6 14-8 12l-8-21c-8-24-10-27-11-27l-4 10c0 8-19 47-21 45l-13-16-13-13-14 58c0 3-15-10-25-21-11-11-14-16-16-15-1 2 0 13 2 28l5 26-10-5c-11-5-37-10-37-6l16 26 14 26-32-4-31-3 16 21 18 21a765 765 0 0 1-52-8l21 21 21 20H37l-23 1c0 2 13 13 32 26l18 12-6 3-8 5c0 2 22 14 35 19 18 7 20 7 25-3 5-8 10-10 14-6 2 1 2 1 5-2 5-5 8-3 12 2 3 3 3 4 1 4l-3-1h-16c-5 0-7 0-10 5-6 8-6 13 0 19 5 8 10 8 8 0l2-8 1-3 2 6c2 7 7 15 8 12l2-8c0-15 1-15 6-4 8 15 12 15 10-1l-2-18c-3-3-3-3-1-7 3-1 3-1 5 5 1 12 1 12 8 12l6-2-6-11-5-10 1-18c0-18 5-34 9-36 1-1 8 2 16 5l13 7v6c1 13 14 20 24 12l5-4 16 8 15 9 13-7 13-6 5 3c8 6 19 3 22-8v-7l2-5 36-16 8 55c0 8 2 10 5 5h3c3 2 5 7 2 5-2-2-5 2-7 11v23c2 0 8-6 13-16 3-8 7-5 7 8-2 15 4 13 9-3l2-7 2 3 1 12 2 5c5 0 11-10 13-15 1-11-8-23-16-19h-17c-4 3-6 0-1-5 6-3 8-5 13 0 3 3 5 3 6 1 7-3 13 0 18 12 2 3 3 5 13 3 15 0 26-3 39-15l11-9-8-4c-14-1-14-1 10-21l24-19-26 1-24 4 21-18 20-18-38 11-14 4a513 513 0 0 1 47-46c-2-1-39 7-46 10-3 1-1-2 8-16l7-15-31 7-31 6 16-13 22-16c8-10 13-20 13-21l-33 6-32 8 1-5c7-4 23-34 21-35l-11 1-21 10-11 3 9-21c12-21 15-26 13-27-1-2-16 6-34 19-23 16-23 16-13-13l7-24-20 21-19 23c-2 0-2-5 1-30l2-21-18 25c-10 16-13 22-15 21l-1-20c0-21-2-35-3-35z" /><path id="path201" fill="#c90c0f" stroke-width="2" d="M238 333c-3 0-5 2-5 3 0 5 5 15 12 21 9 10 19 7 27-8 5-13 5-14-5-16z" /></svg>