<svg xmlns="http://www.w3.org/2000/svg" version="1" viewBox="0 0 192 111"><g stroke-width="0"><path fill="#f2a144" d="M12 111l-1-2-1-38c0-42 0-39-2-38H6v30l-2 1H1l-1-1V26l1-1 1-1h6l8-1v-2l-1-2c-4-3-4-4-4-8V7l4-5 5-1 5 1c3 2 5 5 5 9 0 3-1 6-4 7l-3 4 1 2h8l12 7 8 5 2 2-1 1-1 3v1l-7-4-12-7h-2a1885 1885 0 0 0 0 76c-1 2-2 3-4 3-3 0-3 0-4-2V91l-1-16-2-1h-1l-1 18v17l-1 1-3 1h-2zm83-22v-8a832 832 0 0 1 0 8zm2 0v-8a814 814 0 0 1 0 8zM85 54v-5a219 219 0 0 1 0 5zM56 41v-1 1h-1 1zm30-18h0c-1 0-1 0 0 0zm20 0c-1 0-1 0 0 0zm-1-13s0-1 0 0v0zM88 3l1-1-1 1-1 1 1-1z"/><path fill="#776e74" d="M164 110l-2-1-1-40V31h-1l-8 4a201 201 0 0 1-11 7c-2 1-1 1-2-1l-1-2-1-1 5-3 15-10 3-2h4c5 0 5 0 5-2l-1-2c-4-4-5-5-5-9l1-4 4-5 5-1c3 1 5 1 7 3 2 3 2 4 2 7 0 5-1 6-4 8-2 1-2 1-2 3s0 2 8 2h6l1 1 1 1v19l-1 19-2 1-2-2-1-15V32l-3 1h-1v76h-1c-1 2-5 2-6 0l-1-18V73h-1l-3 1a302 302 0 0 0-1 35l-1 1h-4z"/><path fill="#c01614" d="M88 109l-2-1-1-39a1474 1474 0 0 0-2-38l-12 8-12 7c-2 1-3 0-4-2l1-3a622 622 0 0 1 32-18l5-1v-1l-2-2c-3-1-5-4-6-8l1-4 2-4 4-2h8c3 2 5 5 5 9s-1 7-4 9c-2 1-3 2-2 3l4 1h5l8 5a3399 3399 0 0 0 20 14c1 2 0 4-3 4-1 0-4-1-20-12-4-2-5-3-6-2v37c0 41 0 38-3 40h-2l-4-2-1-17V73l-1-1-1 1-1 17v17c-2 2-4 3-6 2z"/></g></svg>