<svg xmlns="http://www.w3.org/2000/svg" id="svg203" version="1" viewBox="0 0 512 512"><defs id="defs195"><style id="style193">.red{fill:#c90c0f}</style></defs><path id="path197" d="M229 49l-9 16c-3 7-4 9-5 8l-5-13c-5-15-6-17-7-17l-2 6c0 5-12 29-13 28l-8-10-8-8-9 36c0 2-9-6-15-13-7-7-9-10-10-9s0 8 1 17l3 16-6-3c-7-3-23-6-23-4l10 16 9 16-20-2-19-2 10 13 11 13a471 471 0 0 1-32-5l13 13 13 12H94l-14 1c0 1 8 8 20 16l11 7-4 2-5 3c0 1 14 9 22 12 11 4 12 4 15-2 3-5 6-6 9-4 1 1 1 1 3-1 3-3 5-2 7 1 2 2 2 3 1 3l-2-1h-10c-3 0-4 0-6 3-4 5-4 8 0 12 3 5 6 5 5 0l1-5 1-2 1 4c1 4 4 9 5 7l1-5c0-9 1-9 4-2 5 9 7 9 6-1l-1-11c-2-2-2-2-1-4 2-1 2-1 3 3 1 7 1 7 5 7l4-1-4-7-3-6 1-11c0-11 3-21 5-22 1-1 5 1 10 3l8 4v4c1 8 9 12 15 7l3-2 10 5 9 5 8-4 8-4 3 2c5 4 12 2 14-5v-4l1-3 22-10 5 34c0 5 1 6 3 3h2c2 1 3 4 1 3-1-1-3 1-4 7v14c1 0 5-4 8-10 2-5 4-3 4 5-1 9 3 8 6-2l1-4 1 2 1 7 1 3c3 0 7-6 8-9 1-7-5-14-10-12h-10c-3 2-4 0-1-3 4-2 5-3 8 0 2 2 3 2 4 1 4-2 8 0 11 7 1 2 2 3 8 2 9 0 16-2 24-9l7-6-5-2c-9-1-9-1 6-13l15-12-16 1-15 2 13-11 12-11-23 7-9 2a316 316 0 0 1 29-28c-1-1-24 4-28 6-2 1-1-1 5-10l4-9-19 4-19 4 10-8 13-10c5-6 8-12 8-13l-20 4-20 5 1-3c4-3 14-21 13-22l-7 1-13 6-7 2 6-13c7-13 9-16 8-17s-10 4-21 12c-14 10-14 10-8-8l4-15-12 13-12 14c-1 0-1-3 1-18l1-13-11 15c-6 10-8 14-9 13l-1-12c0-13-1-22-2-22l-6 8z" class="red"/><path id="path201" fill="#c90c0f" d="M218 202c-2 0-3 1-3 2 0 3 3 9 7 13 6 6 12 4 17-5 3-8 3-9-3-10h-18zm55 166c-14 2-15 3-18 11-2 7-2 8-1 16v12 34l5 2c3 2 5 2 7 1h37c46 1 159 2 169 1 7-1 8-1 8-3l3-14c3-12 4-24 3-26l-2-16-1-17-11-1h-21l-71 1a6107 6107 0 0 1-107-1z" class="red"/></svg>