<svg version="1" xmlns="http://www.w3.org/2000/svg" viewBox="0 0 512 512">
    <defs><style>.red{fill:#c90c0f}</style></defs>
    <path class="red" d="M228.8 48.7c-3.1 4.3-7.3 11.8-9.3 16.6-3 7-4 8.6-5 7.5-.6-.7-2.8-6.7-4.9-13.3-4.5-14.6-5.4-16.8-6.5-16.1-.5.3-1.2 2.7-1.6 5.2-.7 5.1-12.3 29.6-13.6 28.8-.4-.2-4-4.7-7.9-10-4-5.3-7.6-9.2-8-8.7-.7.7-9 34.6-9 36.7 0 1.8-9.1-6.1-15-13.1-6.6-7.7-9.4-10.2-10.5-9.1-.3.3.5 7.7 1.9 16.4 1.3 8.7 2.3 16 2.1 16.2-.2.2-2.7-.9-5.7-2.4-7.2-3.7-22.8-6.7-22.8-4.5 0 .6 4.3 7.8 9.6 16.1 5.3 8.4 9.3 15.5 8.9 15.8-.3.3-8.9-.4-19.1-1.7-10.2-1.3-18.7-2.1-19-1.8-.3.3 4.2 6.1 10 12.8 5.8 6.8 10.4 12.4 10.3 12.5-.3.3-28.8-4.5-30.4-5.1-.7-.2-1.5 0-1.8.4-.3.5 5.7 6.2 13.2 12.7l13.7 11.9-14.2.3c-7.8.1-14.2.6-14.2 1.1 0 1.3 8.1 7.6 20.1 15.7l11.1 7.4-4.6 2.2c-2.5 1.2-4.6 2.5-4.6 2.9 0 1.2 13.6 8.4 22.2 11.8 10.6 4.3 11.7 4.1 15-1.9 2.9-5.1 5.9-6.5 8.5-3.9.8.8 1.7.5 3.2-1 2.9-2.9 4.6-2.6 7.1.9 1.7 2.4 1.8 3 .6 3-.8 0-1.8-.5-2.1-1-.7-1.2-4.8-1.3-5.9-.3-.4.4-2.2.6-4.1.5-2.7-.3-3.7.2-5.9 3.1-3.3 4.3-3.3 7.2-.1 12 3.5 5.1 6.1 5 5.6-.4-.1-.9.4-2.9 1-4.5l1.2-2.9.8 4.4c.8 4.2 3.6 8.7 4.8 7.5.3-.3.6-2.9.6-5.7.2-8.3 1.3-8.7 4.9-1.5 4.4 8.9 6.2 8.5 5.9-1.5-.1-5.4-.7-8.7-1.8-10.4-1.5-2.3-1.5-2.7-.2-4.1 1.4-1.3 1.6-1.1 2.2 2.4 1.2 7.3 1.3 7.4 5.7 7.4 2.2 0 3.8-.3 3.6-.8l-3.6-7.2-3.3-6.5.7-11c.6-10.5 3.1-20.6 5.5-22 .5-.4 4.8 1.1 9.5 3.3l8.6 3.9.2 4.2c.4 8.1 8.2 12 14.7 7.2l3-2.2 9.6 5.2 9.7 5.2 7.8-4.2 7.8-4.2 2.6 2c5.2 4.1 12.6 1.7 14.3-4.6.5-1.9.8-4 .5-4.7-.3-.7.1-1.7.8-2.3 1.6-1.2 22-10.5 22.3-10.1.7.9 4.7 28.7 4.8 33.3.1 5.6.9 6.8 2.6 3.8.8-1.4 1.2-1.5 2.5-.4 1.7 1.4 2.3 3.6.7 2.7-1.4-.9-2.8 1.5-4 7.2-1.6 7.6-1.4 14.2.3 14.2s5-4.4 7.2-9.6c2.1-5.1 3.9-3 3.9 4.7-.1 8.7 3.6 7.6 6.1-1.9l1.2-4.7 1.1 2.8c.6 1.6 1.1 4.4 1.1 6.3 0 2.3.5 3.4 1.4 3.4 2.2 0 6.4-5.7 7.2-9.5 1.1-6.1-5.1-13.1-10-11.2-.8.3-2.8.1-4.5-.6-2.5-.9-3.6-.9-5.2.1-3.3 2.1-3.7.3-.6-2.4 3.4-2.9 5.1-3 7.7-.4 1.6 1.6 2.5 1.8 4 1 4.3-2.3 8-.2 11.2 6.5 1.3 2.9 1.6 3 7.6 2.8 9.6-.2 15.8-2.6 23.7-8.9 3.9-3 7.1-5.9 7.3-6.4.2-.5-1.8-1.2-4.5-1.6-9.5-1.4-9.6-1.1 6.1-13.2 8-6.2 14.6-11.7 14.6-12.2 0-1.3.2-1.3-16.5.9-7.7 1-14.1 1.7-14.3 1.6-.1-.1 5.7-4.9 13-10.5 7.2-5.7 12.6-10.6 12-10.8-1.1-.3-9.7 2-23.5 6.5-4.3 1.4-8 2.3-8.3 2-.4-.4 11.9-12.1 25.1-24 2.2-1.9 3.7-3.8 3.4-4.2-.6-.5-23.5 4.6-27.5 6.2-2.4.9-1.5-1.2 4.1-9.7 3.2-4.8 5.2-8.7 4.7-9.2s-8.7 1.1-19.2 3.7c-10 2.5-18.4 4.4-18.7 4.2-.2-.3 4.1-3.6 9.5-7.5s11.3-8.7 13.1-10.7c4.6-5.2 8.5-11.4 7.7-12.2-.3-.4-9.2 1.5-19.7 4.1-10.6 2.6-19.4 4.4-19.7 4.1-.3-.2.2-1.3 1.1-2.2 3.3-3.7 13.7-21.7 12.9-22.5-.5-.5-3.5.2-6.8 1.5-3.2 1.3-9.2 3.6-13.2 5.2-3.9 1.5-7.4 2.6-7.7 2.3-.3-.3 2.6-6.1 6.5-12.9 7.2-12.7 8.6-15.7 7.7-16.6-1.1-1.1-9.9 3.8-20.8 11.6-13.7 9.9-13.9 9.7-7.9-7.6 5.4-15.4 5.4-15.3 4.2-15.3-.5 0-6 6-12.2 13.2-6.2 7.3-11.6 13.4-12.1 13.6-1.2.5-1.1-3.3.6-17.7.8-6.9 1.3-12.6 1.2-12.7-.8-.8-3.2 2.5-10.6 15-5.9 9.8-8.6 13.4-9.2 12.5-.5-.8-.9-6.4-.9-12.4 0-12.1-.9-21.5-2-21.5-.4 0-3.2 3.5-6.2 7.7z"/>
    <path class="red" d="M400.6 390.9c-1.3 1.4-1.6 3.3-1.4 8.2l.3 6.4 3.7.3c3.5.3 3.7.2 4.4-3.3.9-4.9-.2-10.7-2.3-12.2-2.2-1.7-2.7-1.6-4.7.6zm40.8 2.7c-1.4 2-1.7 4.7-1.6 12.6.1 13 .7 15.6 3.7 16.4 4.1 1 6.1-1 6.8-6.8 1.1-8.9.8-22.3-.5-23.6-2.1-2.1-6.6-1.4-8.4 1.4zm48.1-6.7c-.7 1.2 1.2 2.4 2.5 1.6 1.1-.7.4-2.5-1-2.5-.5 0-1.1.4-1.5.9zm6.5 7.1c0 .5.5 1 1 1 .6 0 1-.5 1-1 0-.6-.4-1-1-1-.5 0-1 .4-1 1zm3.5 0c-.3.5-.1 1 .4 1 .6 0 1.1-.5 1.1-1 0-.6-.2-1-.4-1-.3 0-.8.4-1.1 1zm-2.5 3.7c.1 1.9 2.7 6 3.4 5.2.2-.2.1-1.9-.1-3.7-.5-3.3-3.3-4.6-3.3-1.5zm-1 4.3c0 .5.5 1 1.1 1 .5 0 .7-.5.4-1-.3-.6-.8-1-1.1-1-.2 0-.4.4-.4 1zm-6.8 6.2c.5 1.5 2.8 1.8 2.9.3 0-.6-.7-1.2-1.7-1.3-1-.3-1.5.1-1.2 1z"/>
    <path class="red" d="M217.8 201.7c-2 .3-2.8 1-2.8 2.4 0 3 3.4 9 7.3 12.8 6.1 5.8 11.7 4 16.2-5.3 3.6-7.3 3.1-8.9-2.5-9.8-4.8-.7-13.8-.8-18.2-.1zm-42.5 38.8c-1.8.8-4.2 2.9-5.3 4.7-1.8 3-2 5-2 21.1 0 20.2.8 23.5 6.2 26.3 9.8 5.1 20.1-.8 20.2-11.5l.1-4.6h-5c-4.9 0-5 .1-5.3 3.2-.3 3.2-2.8 5.1-4.4 3.5-1.1-1.1-1.3-5.2-1-21 .2-12.2.2-12.3 2.4-12 1.7.2 2.4 1.2 2.8 3.3.5 2.8.8 3 5.8 3.3l5.2.3v-3.8c0-10.6-10-17.1-19.7-12.8zM42 267v27h10v-21h5.4c6.4 0 7.9-1.3 7.4-6.7l-.3-3.8-6.2-.3-6.3-.3v-11.8l7.3-.3 7.2-.3v-9l-12.2-.3-12.3-.3V267zm28.7-26.3c-1.1 1.1-.8 51.8.3 52.9.6.6 2.9.8 5.3.5l4.2-.6.3-10.3c.1-5.6.6-10.2 1.1-10.2.4 0 2 4.4 3.6 9.7 1.5 5.4 3.2 10.2 3.6 10.7 1.1 1.2 8.2 1.8 9.8.7 1.1-.7.6-2.9-2.3-11.5-2-5.9-3.6-11.1-3.6-11.7 0-.5.9-2.2 2.1-3.8 1.3-1.8 2.3-5 2.6-8.8.7-8.1-2.1-14.7-7.1-16.8-3.6-1.5-18.6-2.1-19.9-.8zm16.1 14.8c.3 3.8-.1 5.2-1.4 6.2-3.6 2.6-4.4 1.6-4.4-5.3v-6.5l2.8.3c2.5.3 2.7.7 3 5.3zm25.8-13.8c-.2 1-1.7 7.4-3.2 14.3-1.5 6.9-4 17.9-5.5 24.5-2.6 11.1-2.7 12.1-1.2 13.2 1.9 1.4 6.1 1.7 8 .5.6-.4 1.4-2 1.7-3.5.3-1.5.8-3.8 1.1-5.2.4-2 1.1-2.5 3.5-2.5 3.3 0 4.4 1.5 5.4 7.2.5 2.8 1.3 3.9 3 4.4 4.3 1 7.1.1 7.4-2.5.3-2.1-2.6-16.4-9-43.4l-2-8.7h-4.3c-3.3 0-4.5.4-4.9 1.7zm5.7 28c.5 2.5.3 3.3-.8 3.3-1.6 0-2-2.6-.9-5.5.8-2 1-1.8 1.7 2.2zM136 267v27l2.6.6c1.5.4 3.9.3 5.3-.2 2.5-.9 2.6-1.3 3.1-10.9l.5-10 3.3 9.5c1.8 5.2 4.1 10.1 5 10.7 2.1 1.7 6.7 1.6 8.1-.1.8-.9 1.1-9 .9-27.2l-.3-25.9h-10l-.5 10.4-.5 10.4-1.9-5.4c-1-3-2.8-7.8-3.8-10.7l-1.9-5.2H136v27zm62-.1c0 23.6.2 27 1.6 27.5 2.4.9 20.7.7 22.2-.3.9-.5 1.2-2.4 1-5.2l-.3-4.4-6.7-.3-6.8-.3v-11.8l5.8-.3 5.7-.3.3-4.8.3-4.7H209v-11.9l6.8-.3 6.7-.3v-9l-12.2-.3-12.3-.3v27zm44.7-26.3c-1.3 1.3-.8 51.9.5 53.2 1.3 1.3 6.6 1.6 8.5.4.8-.5 1.3-4.4 1.5-11.2l.3-10.5 3.9 10.8c4.1 11.3 5.1 12.3 10.7 11.5l2.4-.3.3-27.3.2-27.2h-10v10.7c0 5.8-.3 10.3-.7 9.9-.5-.4-2.4-5.1-4.3-10.4l-3.5-9.7-4.6-.3c-2.4-.2-4.8 0-5.2.4zm42.4 1.6c-.5 1.3-2.1 7.9-3.6 14.8-1.6 6.9-4 17.7-5.5 24-3 12.6-2.7 14 2.4 14 4.4 0 5.2-.8 6.8-6.5 1.1-3.9 1.9-5.1 3.6-5.3 3.3-.5 4.9 1.3 5.6 6.2.7 4.7 1.8 5.6 6.6 5.6 5.2 0 5.2-.9-.6-27-3-13.5-5.7-25.3-6-26.3-.4-1.2-1.6-1.7-4.5-1.7-3.2 0-4.1.4-4.8 2.2zm5.8 29c.1 1-.6 1.8-1.5 1.8-1.1 0-1.4-.5-1-1.6.3-.9.6-2.5.7-3.7 0-2.1.1-2.1.9-.2.5 1.1.9 2.8.9 3.7zm9.5-28.7c-.3 1.4-.3 3.6 0 5 .5 2.1 1.2 2.5 4.6 2.5h4v44l2.4.6c1.3.3 3.5.4 4.7.2l2.4-.3.6-20c.4-11 .7-21 .8-22.3.1-1.9.7-2.2 4.2-2.2h4l-.3-4.8-.3-4.7-13.2-.3-13.2-.3-.7 2.6zm30.2-.9c-.3.9-.6 10.4-.6 21.2 0 17.3.3 20.2 2 23.9 4.8 10.8 18.9 10.9 24.3.3 1.5-3.1 1.7-6.1 1.5-25l-.3-21.5h-10l-.3 20.6c-.2 17.5-.5 20.9-1.8 22-1.4 1.1-1.8 1-3-.6-1.1-1.5-1.4-6.4-1.4-22.2V240h-4.9c-3.5 0-5.1.4-5.5 1.6zm31.2-1c-.5.4-.8 12.5-.8 27 0 28.7-.3 27.4 6.1 27.4 3.9 0 4.9-2.7 4.9-13.8 0-4.8.4-8.2.9-7.7.4.6 2 5 3.6 10 1.5 4.9 3.2 9.6 3.7 10.2 1.6 2 8.7 1.6 9.5-.4.4-1-.9-6.2-3-12.1l-3.6-10.4 2.5-3.3c4.9-6.5 4.1-18.5-1.6-24-2.9-2.8-3.7-3-12.3-3.3-5.1-.2-9.5 0-9.9.4zm15 10.6c1.6 1.6 1.6 9 0 10.6-.7.7-2 1.2-3 1.2-1.5 0-1.8-.9-1.8-6.5s.3-6.5 1.8-6.5c1 0 2.3.5 3 1.2zm16.9-10.5c-.4.3-.7 12.4-.7 26.9 0 23 .2 26.3 1.6 26.8 2 .8 19.8.8 21.8 0 1.2-.4 1.6-2 1.6-5.5V284h-14v-12h12v-10h-12v-12h14v-10h-11.8c-6.5 0-12.2.3-12.5.7zm-211.6 60c-7 3.7-7.6 5.4-7.9 25.1-.3 19.5.4 22.4 6 26.6 3.6 2.6 11.5 2.7 15.2.2 5.9-3.8 6.6-6.4 6.6-25.6 0-15.6-.2-17.8-2-20.7-3.9-6.5-11.7-8.9-17.9-5.6zm8.4 26.3v16.5h-5l-.3-15.5c-.1-8.5 0-16 .3-16.8.3-.7 1.5-1.2 2.7-1 2.3.3 2.3.4 2.3 16.8zm-148.3.2l.3 27.3 10.3.3c12.8.3 14.4-.4 14-6.1l-.3-4.2-7.2-.3-7.3-.3v-11.8l6.3-.3 6.2-.3v-9l-6.2-.3-6.3-.3v-11.8l7.3-.3c6.7-.3 7.2-.5 7.5-2.7.2-1.2.1-3.4-.2-4.7-.6-2.4-.8-2.4-12.6-2.4H42l.2 27.2zm26.5-26.5c-.4.3-.7 12.5-.7 26.9V354l2.5.6c1.4.3 3.6.3 5 0 2.5-.6 2.5-.8 2.5-11.3 0-5.9.4-10.3.8-9.8.5.6 2.1 4.6 3.7 9 3.8 11.1 4.8 12.5 8.9 12.5 1.8 0 3.9-.6 4.5-1.4.8-.9 1.1-9 .9-27.2l-.3-25.9h-10l-.3 11-.3 11-3.4-9.2c-4.8-13.1-4.9-13.3-9.4-13.3-2.1 0-4.1.3-4.4.7zm29.3 1.6c0 5.2 9.8 51 11.1 51.8 2.1 1.3 6.5 1.1 7.7-.4.6-.7 2.2-6.9 3.6-13.7 1.4-6.9 3.7-18.1 5.1-24.9 1.4-6.9 2.3-13.1 2.1-13.8-.6-1.4-9.1-1.9-10-.5-.2.4-1.2 5-2 10.2-2.7 15.7-2.7 15.7-5.2 2-1.2-6.9-2.3-12.6-2.3-12.8-.1-.1-2.3-.2-5.1-.2-4.6 0-5 .2-5 2.3zm31.6-.8c-1.2 3.2-.7 51 .6 52.3 1.4 1.4 6.6 1.6 8.6.4.9-.7 1.2-6.8 1-27.3l-.3-26.4-4.6-.3c-3.6-.2-4.8.1-5.3 1.3zm13.2-.9c-.5.4-.8 12.5-.8 27 0 28.6-.3 27.4 5.9 27.4 4.5 0 5.1-1.5 5.1-12.4 0-6.1.4-9.6.9-9.1.5.6 2.1 5 3.6 10 1.5 4.9 3.2 9.6 3.7 10.2.6.7 3 1.3 5.4 1.3 3.9 0 4.4-.2 4.4-2.3 0-1.3-1.5-6.8-3.4-12.3l-3.4-9.9 2.3-2.7c4.9-5.8 4.4-17.7-1-23.6-3.2-3.6-3.4-3.6-12.6-4-5.2-.2-9.7-.1-10.1.4zm14.3 10.4c1.4.8 1.9 2.1 1.9 5.3 0 4.6-1.3 6.7-4.2 6.7-1.5 0-1.8-.9-1.8-6.5 0-6.7.5-7.4 4.1-5.5zm48.4-9.7c-.3.7-.4 12.9-.3 27.2l.3 26 4.1.3c2.5.2 4.5-.2 5.2-1.1.6-.7 1.3-5.6 1.4-10.7l.3-9.5 2.9 8.5c3.9 11.6 4.9 13 9 13 1.8 0 3.9-.6 4.5-1.4.8-.9 1.1-9 .9-27.2l-.3-25.9h-10L223 311l-.5 10.5-3.4-9.5c-1.9-5.2-3.8-10.1-4.4-10.8-1.3-1.6-8.6-1.6-9.2.1zm32 0c-.3.7-.4 12.9-.3 27.2l.3 26 4.3.3c3.8.3 4.3.1 5.3-2.5.5-1.5 1-5.9.9-9.8-.1-3.8-.1-7.5 0-8 0-.6 1.7 3.2 3.6 8.4 1.9 5.2 3.9 10.1 4.6 10.8.7.9 2.6 1.3 5.2 1.1l4.1-.3v-54h-10l-.3 11-.3 11-3.4-9.2c-4.9-13.2-4.9-13.3-9.6-13.3-2.3 0-4.2.5-4.4 1.3zm32-.1c-.3.7-.4 13-.3 27.3l.3 26h24v-10l-6.8-.3-6.8-.3.3-5.7.3-5.7 5.8-.3 5.8-.3-.3-4.7-.3-4.7-5.8-.3-5.8-.3.3-5.7.3-5.7 6.8-.3 6.8-.3-.3-4.7-.3-4.7-11.8-.3c-8.9-.2-11.9 0-12.2 1zm27 0c-.3.7-.4 13-.3 27.3l.3 26h9l.5-10.5.5-10.5 2 5.4c3.5 9.5 7.7 9.5 10.6 0l1.7-5.4.1 9.6c.1 11 .8 12.2 6.8 11.7l3.8-.3v-54l-4.1-.3c-5-.4-5.3 0-8.9 10.3-1.6 4.4-3.3 9.1-3.8 10.5-.8 2.2-1.3 1.2-5-9l-4.2-11.5-4.3-.3c-2.8-.2-4.4.1-4.7 1zm40 0c-.3.7-.4 13-.3 27.3l.3 26h24v-10l-7-.5-7-.5v-10.9l5 .2c6.7.3 7.7-.5 7.3-5.9l-.3-4.4-6-.5-6-.5v-11l7-.5 7-.5v-9l-11.8-.3c-8.9-.2-11.9 0-12.2 1zm26 .1c-.3.7-.4 12.9-.3 27.2l.3 26 4.1.3c2.5.2 4.5-.2 5.2-1.1.6-.7 1.3-5.6 1.4-10.8l.3-9.4 3.3 9.7c1.9 5.3 4 10.2 4.7 10.8.8.6 3.1 1 5.2.8l3.8-.3.3-22.3c.3-24.2 0-23.2 5.9-21.6 2.2.6 2.3.8 2.5 22.3l.3 21.6 4.1.3c2.6.2 4.5-.2 5.2-1.1.8-.9 1.3-8.4 1.4-22.3.3-20.1.4-20.9 2.3-21 5.8-.3 5.6-.1 5.3-5.2l-.3-4.7h-37L380 311l-.5 10.5-3.3-9.5c-1.9-5.2-3.9-10.1-4.4-10.8-1.4-1.6-8.7-1.6-9.3.1zm-90 67.1c-13.2 1.9-14.6 2.7-17.3 11.1-2 6.2-2.1 7.8-1.3 15.8.5 4.9.5 10.4.1 12.1-.5 1.7-.6 9.8-.2 18.1l.7 15 4.3 2.4c3.6 1.9 4.8 2.2 6.8 1.2 1.8-.8 12-.8 37.7-.2 45.7 1.3 159 1.7 168.9.7 6.6-.7 7.7-1.1 8.1-3 .2-1.1 1.7-7.5 3.1-14.1 2.5-11.3 3.5-23.2 2.2-25.4-.4-.5-1-8-1.5-16.6-.5-8.6-1.1-15.9-1.4-16.1-.3-.3-5.3-1.1-11.1-1.7-8.2-.8-12.7-.8-20.2.3-7.6 1-22.8 1.1-71.8.6-34.1-.3-70.2-.8-80.1-1.1-11.7-.3-21.1 0-27 .9zm37.8 16.1c2.8 1.8 4.7 5.5 4.7 9.1 0 4.8-2.8 9.1-10.4 15.9-6.5 5.8-7.6 7.3-7.6 10.1 0 2.4.5 3.3 2.3 3.8 4.3 1.1 6.9.7 7.4-1.4.6-2.1 3.7-2.7 6.2-1.1 1 .6 1.1 2.1.6 6l-.7 5.1H284v-6.5c0-9.3 2-13.2 10.4-20.8 9.2-8.3 10.1-10.8 4.9-13.6-3.1-1.6-4.7-1.4-7.3.9-3.9 3.4-5.7 2.6-6.3-2.8-.3-2.6-.3-4.9-.1-5.1 2.3-2.4 21-2.1 24.7.4zm99.9-1.7c2 .4 4.8 1.7 6.2 2.9l2.6 2.3v17.5c0 19.5-.7 22.2-6 25-3 1.6-13.3 2-20.2.9-3.8-.7-3.8-.7-3.8-5.5s.1-4.9 3-4.9c1.9 0 3 .5 3 1.4 0 1.9 4.1 2.5 8.1 1.2 2.2-.7 3.6-2 4.2-3.9 1.4-4.5.4-5.7-5-5.7-8.2 0-12.3-1.7-13.9-5.6-3.2-7.8-2.6-17.4 1.4-22.4 2.7-3.4 11.8-4.8 20.4-3.2zm44.2.2c1.4.5 3.8 2.8 5.3 5.1 2.7 4.1 2.8 4.7 2.8 17.3-.1 7.2-.4 14.4-.8 15.9-.4 1.6-2.6 4.8-4.9 7.3l-4.1 4.4h-7.8c-6.6 0-8.2-.3-10.4-2.3-3.2-2.8-4.5-9.9-4.5-25.2 0-12.9 1.1-17.7 4.6-20 4.5-2.9 15.2-4.3 19.8-2.5zM352 387.5v5.2c.1 1.6-5.2 1.4-6.4-.2-.8-1.2-2.3-1.6-5.1-1.3l-4 .3-.3 5.2-.3 5.3h5.3c6.3 0 9.4 1.8 11.4 6.6 3.6 8.7 0 19.6-7.6 22.6-2.8 1.1-14.8 1.3-17.9.3-1.8-.5-2.1-1.5-2.1-5.6 0-4.8.1-4.9 3-4.9 2 0 3 .5 3 1.5 0 1.1 1.1 1.5 4.3 1.5 5.9 0 6.9-.9 7-6.9.3-7-1.3-8.1-11.1-8.1-5.9 0-7.3-.3-6.9-1.4.3-.7.9-6.6 1.3-13l.7-11.6H352v4.5zm25 25.5v3h-14v-6h14v3z"/>
</svg>