<svg xmlns="http://www.w3.org/2000/svg" xmlns:xlink="http://www.w3.org/1999/xlink" viewBox="0 0 2636 1759"><defs><style>.g{fill:#776f73}.r{fill:#c90c0f}</style><linearGradient id="a"><stop offset="0" stop-color="#737172"/><stop offset="1" stop-color="#c1c1c1"/></linearGradient><linearGradient id="b"><stop offset="0" stop-color="#ee8b8f"/><stop offset="1" stop-color="#c51e24"/></linearGradient><linearGradient id="c" x1="10" x2="11" gradientUnits="userSpaceOnUse" xlink:href="#a"/><radialGradient id="d" cx="12" cy="12" r="6" fx="12" fy="12" gradientUnits="userSpaceOnUse" xlink:href="#b"/><filter id="s" x="-50%" y="-50%" width="200%" height="200%"><feOffset result="o1" in="SourceAlpha" dx="-75" dy="-65"/><feGaussianBlur result="o2" in="o1" stdDeviation="5"/><feColorMatrix result="o3" in="o2" values="1 0 0 0 0 0 1 0 0 0 0 0 1 0 0 0 0 0 0.3 0"/><feBlend in="SourceGraphic" in2="o3"/></filter><path id="r" d="M236.6 1.4c.9 6.7 1.2 7.2 2.8 20-1.2 7.3-3.9 10.2-5.9 15.3-74.6.8-199.2-1.2-223.9 0-2.2-.3-4.5-.4-6.7-1.3-2.4-1.2-1.9-10-2.7-15 4-2.1 1.6-5.6.1-9V8.8c2-1 2.4-2.4 3.1-3.8C4.7.5 20 1.2 32.3.6 182.2-.6 153.7 4.1 212.9.1z"/><g id="pin"><ellipse cx="10" cy="67.8" fill="#555354" rx="4" ry="1"/><path stroke="url(#c)" stroke-width="1.6" d="M10 67.8V11"/><circle cx="10" cy="10" r="10" fill="#c51e24"/><circle cx="12" cy="12" r="6" fill="url(#d)"/></g></defs><path stroke-miterlimit="10" d="M99.595 1074.746l-1.396-11.097c10.097-7.554 20.009-15.48 30.386-22.614 6.933-4.662 9.307-9.745 5.537-17.858a73.01 73.157 0 0 1-5.398-19.583 19.079 19.117 0 0 1 8.33-19.443c8.934-5.968 17.869-11.983 27.222-17.159 11.168-6.201 23.267-10.164 29.409-23.313 15.45-32.359 32.248-64.018 48.302-96.05a45.277 45.368 0 0 0 4.653-13.989c2.606-18.277 3.397-36.881 7.306-54.832a47.51 47.606 0 0 0-4.98-36.09c-6.7-12.588-7.026-28.954-8.887-43.781-1.443-11.564-3.258-21.868-15.124-27.51a37.227 37.301 0 0 1-9.585-8.253c-9.307-9.325-8.144-22.287-9.726-34.084-1.722-12.822-6.84-19.117-19.45-20.655a13.169 13.195 0 0 1-13.17-14.781 224.477 224.926 0 0 1 2.513-22.987 19.172 19.21 0 0 1 16.287-17.718 22.848 22.894 0 0 0 19.776-15.387 24.383 24.432 0 0 1 3.956-6.248c12.796-16.319 13.215-25.225 1.582-42.616-5.258-7.833-9.772-15.34-6.98-25.738 1.908-7.087-5.677-17.438-13.309-20.236-7.631-2.798-13.96 1.12-18.055 7.414-14.332 21.168-15.17 13.475-31.317 6.947a11.215 11.237 0 0 1-4.653-10.071c5.584-17.345 12.145-34.364 18.38-51.29a22.057 22.1 0 0 1 17.916-13.987 129.689 129.948 0 0 0 26.385-8.3 25.36 25.411 0 0 1 23.871.373c8.748 4.663 17.683 8.952 26.291 13.988a30.433 30.494 0 0 0 27.967.28c16.706-7.04 33.178-14.64 49.837-21.868 14.472-6.295 19.032-16.692 16.66-32.639a353.933 354.641 0 0 1-1.35-36.648c-.373-9.325.512-18.65-2.14-27.23-4.654-13.988-3.677-26.53 6.793-35.949 11.726-10.537 24.011-20.422 36.11-30.494 16.054-13.381 34.342-24.618 41.88-45.74a32.9 32.965 0 0 1 22.15-21.915c8.655-2.75 10.516-8.672 6.282-16.599-3.257-6.108-.419-8.905 4.653-12.402a53.653 53.76 0 0 0 14.89-15.34c4.654-7.46 7.12-16.413 11.634-24.06 1.862-3.124 7.446-6.994 9.865-6.2a15.403 15.433 0 0 1 8.237 10.024 114.705 114.934 0 0 1 .977 19.303c0 1.865 1.117 4.663 2.466 5.269a6.98 6.994 0 0 0 5.584-1.865c22.057-18.93 38.25-42.85 55.096-66.163l23.964-3.17c5.864 1.678 11.634 3.916 17.59 4.988 16.1 3.031 30.247 11.843 33.597 26.81 3.35 14.968 8.562 22.288 22.941 29.049 17.683 8.346 36.11 10.537 51.466-4.943a23.732 23.78 0 0 1 9.679-6.854c22.29-5.968 44.579-10.49 66.543 1.772 18.287 10.211 36.528 20.61 55.328 29.934 18.8 9.326 47.976 6.388 59.563-16.412 1.954-3.824 2.931-8.113 4.886-11.937 6.282-12.402 13.96-14.873 25.314-6.714a180.69 181.05 0 0 1 22.475 20.61c9.307 9.558 17.357 19.489 30.992 23.639a117.869 118.105 0 0 1 27.268 13.195c13.122 8.113 25.314 17.765 38.437 25.878 11.028 6.807 20.567 17.718 35.179 16.552a13.355 13.382 0 0 1 14.425 13.522c-1.117 12.123 7.632 13.988 14.24 17.438 19.776 9.978 40.018 19.304 60.167 28.629 27.083 12.589 53.56 25.131 59.377 59.635 3.35 19.77 3.117 38.234-7.166 55.952a91.485 91.668 0 0 0-7.865 18.65c-2.559 8.3 1.722 13.429 10.191 12.123a26.57 26.624 0 0 1 23.267 6.062c14.425 13.009 29.595 25.458 42.717 39.679 8.981 9.745 17.078 21.308 16.566 36.042 0 4.43-1.721 8.813-1.768 13.242 0 8.626-5.398 13.708-13.169 9.978-11.261-5.362-21.591-1.865-32.573 0-9.958 1.725-20.103 2.425-30.2 3.17-10.098.747-19.405-6.48-29.642 2.332-8.19 6.994-10.051 7.367-4.653 17.438a56.585 56.698 0 0 1 5.723 10.538c1.49 5.222 4.188 12.263 2.001 16.04-6.142 10.63-14.658 20.049-27.92 22.567-7.492 1.445-11.168 5.642-9.307 12.915a10.33 10.351 0 0 1-6.468 13.196c-14.565 7.6-18.613 22.38-26.43 37.627a138.297 138.574 0 0 0 14.332-.466c11.912-1.865 23.918-3.637 35.644-6.341 8.888-2.052 17.404-5.642 26.198-8.253a10.935 10.957 0 0 1 7.678 0 203.63 204.037 0 0 1 25.547 19.723c10.75 10.584 7.446 21.541-6.235 27.65a55.142 55.252 0 0 0-12.843 11.33c-3.444 3.217-6.84 6.527-10.098 9.93-5.119 5.316-12.378 9.886-14.751 16.274a55.84 55.952 0 0 0 .465 35.063 11.866 11.89 0 0 1-2.233 9.791c-8.749 8.626-18.614 16.086-27.362 24.759-10.796 10.817-24.29 20.795-30.34 34.037-8.702 19.164-23.267 32.639-36.11 47.792-5.444 6.575-13.96 10.585-20.288 16.506a38.576 38.653 0 0 0-9.912 13.429c-5.537 14.5-13.96 25.411-29.037 31.146-9.306 3.45-13.96 19.863-10.33 29.235 1.629 4.663 4.374 10.304 2.792 13.988a72.918 73.064 0 0 1-14.751 23.313c-21.778 21.168-44.347 40.612-74.966 49.61-18.985 5.596-36.482 16.926-53.839 27.044-5.49 3.17-12.936 7.507-12.703 16.133.279 10.724-8.283 21.261 0 32.079 14.797 19.816 14.286 40.192 5.118 62.712-5.77 14.221-14.564 30.587.931 45.461 1.722 1.632 1.815 5.222 2.28 7.927 3.304 19.536-1.117 29.048-22.708 43.316a71.894 72.038 0 0 0-15.31 11.283c-9.306 11.05-17.31 23.64-30.293 31.287a119.032 119.27 0 0 0-17.682 10.864c-14.286 12.309-28.525 24.758-41.88 38.093-19.591 19.63-38.484 39.96-57.33 60.242-11.633 12.542-11.307 16.226.698 27.976 10.005 9.885 10.377 15.713 2.094 27.136a202.513 202.918 0 0 0-13.448 19.397q-13.401 24.292-25.64 49.098a21.87 21.914 0 0 0-1.256 12.495c2.745 15.574 7.166 31.054-3.537 45.461-2.931 3.917-6.142 7.554-8.934 11.517q-15.496 22.334-30.805 44.808c-6.096 8.812-12.331 17.532-18.148 26.577-2.932 4.663-4.653 10.165-7.771 14.454-7.678 9.932-16.008 19.397-24.104 29.049-14.333 17.205-31.085 29.374-54.956 28.908-17.543-.326-35.086.28-52.583 1.166-17.497.886-24.57-4.663-28.897-21.309a40.019 40.099 0 0 0-10.191-18.044 255.561 256.073 0 0 0-29.502-23.826 9.679 9.698 0 0 0-9.307.28c-8.655 11.423-16.566 23.313-24.663 35.296-1.21 1.772-2.047 5.035-3.443 5.269-13.96 2.331-20.195 14.5-29.223 23.313a200.559 200.96 0 0 1-20.847 15.573 13.448 13.475 0 0 1-4.653 2.798 27.036 27.09 0 0 1-29.921-22.474c-.652-7.927.372-15.993.512-24.013 0-6.201-2.467-8.812-9.307-10.025a32.853 32.918 0 0 1-18.055-8.952 28.246 28.302 0 0 0-19.497-10.77c-11.68-1.026-18.288-8.207-22.616-18.045a120.521 120.763 0 0 1-4.327-13.988c-3.77-12.356-10.796-21.075-24.29-23.826a20.94 20.982 0 0 1-18.614-20.795 168.311 168.648 0 0 1-1.256-27.976 17.217 17.252 0 0 1 7.212-12.216 207.539 207.954 0 0 1 27.92-11.517 299.861 300.461 0 0 0 30.247-11.05c8.841-4.383 9.307-12.31 1.722-18.651a50.396 50.496 0 0 0-16.566-9.838 32.573 32.639 0 0 1-22.848-27.743c-3.35-19.07-2.746-40.892 18.986-48.911a18.148 18.184 0 0 0 8.282-11.284 276.362 276.915 0 0 0 7.353-33.291 31.224 31.286 0 0 0-.884-13.615c-5.538-18.65-10.982-37.301-17.683-55.672a48.348 48.445 0 0 0-12.704-18.604c-10.33-9.325-12.89-17.439-6.84-30.26 6.05-12.823 5.91-12.683-5.491-20.656-1.768-1.26-3.443-2.658-5.258-3.824a21.685 21.728 0 0 1-10.238-23.08c1.396-10.211 8.283-15.293 17.916-17.392 12.378-2.657 24.755-5.501 37.226-8.252 5.63-1.26 13.96-10.818 12.192-16.46a15.31 15.34 0 0 0-10.656-7.553 40.344 40.425 0 0 1-20.66-11.237 33.83 33.897 0 0 0-17.497-9.046 77.106 77.26 0 0 1-46.534-24.292c-12.517-12.59-27.454-22.94-35.923-39.353a222.616 223.061 0 0 0-13.17-19.676z" fill="#fac88e" stroke="#12100b"/><path d="M135.798 1113.912c11.633-.466 23.266-.606 34.9-1.632a9.307 9.325 0 0 0 5.91-5.735c5.258-17.345 7.538-34.83.511-52.455a14.518 14.547 0 0 1 9.307-20.748c6.561-2.472 13.96-3.078 20.335-5.642a16.799 16.832 0 0 0 9.307-7.927c5.537-17.345 11.121-34.457 23.592-48.445 2.047-2.284 1.768-6.62 3.676-9.325a210.89 211.311 0 0 1 18.613-21.588c13.262-12.869 27.362-24.805 40.578-37.627a67.287 67.422 0 0 1 35.923-17.346 480.69 481.652 0 0 1 49.651-6.2c13.402-1.073 23.267-8.58 33.551-15.667a66.543 66.676 0 0 1 58.772-9.232 6.933 6.947 0 0 1 4.188 4.942c0 7.554-.978 15.06-1.164 22.614a23.267 23.313 0 0 0 1.862 6.62c1.954-.978 4.653-1.538 5.723-3.123 6.329-7.973 12.564-16.086 18.288-24.526a15.775 15.806 0 0 0 1.396-8.719c0-4.942-1.303-9.885-1.396-14.78 0-8.16 2-8.766 9.307-5.875 9.818 3.963 20.102 6.574 30.851 9.978 1.443-6.248 5.491-11.144-3.21-12.73-1.815-.372-4.654-2.75-4.654-3.683a10.982 11.004 0 0 1 3.909-5.502c13.122-10.444 26.896-20.096 39.46-31.146 15.496-13.569 29.41-29.049 45.23-41.964a107.027 107.24 0 0 1 41.136-21.728 288.507 289.084 0 0 0 49.698-18.044 102.373 102.578 0 0 0 28.897-22.521 100.559 100.76 0 0 1 43.788-25.784 137.227 137.501 0 0 0 30.526-15.947c16.426-10.817 32.573-21.541 53.28-21.588 8.283 0 15.124-3.59 14.705-13.755-.698-14.967 8.655-22.753 20.382-28.908 2.838-1.492 5.537-3.17 9.306-5.269l-18.055-8.812c3.91-3.17 6.143-5.269 8.609-7.04 9.679-6.948 19.497-13.616 29.037-20.703 4.653-3.404 7.585-4.196 10.935 1.632 3.35 5.828 8.237 11.89 12.843 18.417a55.142 55.252 0 0 0 9.307-7.973c10.098-13.988 25.5-17.998 40.53-23.313 16.24-6.015 31.783-13.988 47.744-20.655 5.49-2.332 19.59-13.988 25.268-16.133 0 .42 8.143-2.798 10.61-2.285 3.442.653 1.628 5.082 1.907 5.689-2.745 2.098-24.523 14.873-27.594 16.272-18.94 8.44-37.6 17.765-57.143 24.432a112.704 112.93 0 0 0-42.95 26.997c-6.19 6.015-11.355 5.362-16.706-1.492-3.537-4.663-6.561-9.325-9.958-14.454l-26.664 18.65c1.163.84 1.536 1.306 2.001 1.4 4.98 1.398 9.958 2.704 14.89 4.01a126.85 127.104 0 0 1-9.306 10.77 32.573 32.639 0 0 1-8.98 6.341 30.991 31.053 0 0 0-20.103 30.074 12.424 12.45 0 0 1-14.38 13.289c-20.427-.84-37.226 8.392-52.768 19.163-14.611 10.025-29.223 19.49-46.766 23.034-12.192 2.424-20.8 10.444-28.385 18.977-18.195 20.375-40.95 31.38-67.008 37.954a134.063 134.33 0 0 0-59.703 30.307 555.003 556.114 0 0 0-46.533 44.575 95.673 95.864 0 0 1-19.544 14.547 10.144 10.165 0 0 0-5.258 12.076c3.21 16.6-1.536 21.076-18.148 18.138-6.887-1.259-13.542-3.637-20.615-5.548-.558 1.352-1.582 2.61-1.35 3.543 5.306 22.334-13.261 33.525-23.266 48.492-1.908 2.844-10.656 3.963-13.96 2.098-3.304-1.865-3.35-8.812-3.816-13.615a172.732 173.077 0 0 1 0-18.37c-21.638-8.673-40.39-2.379-56.538 11.283-13.96 11.936-30.851 13.755-47.51 14.967-18.986 1.399-37.506 3.73-54.77 11.936a33.783 33.85 0 0 0-12.145 9.326 131.969 132.233 0 0 1-36.157 33.57 51.652 51.755 0 0 0-20.707 24.2c-6.608 15.34-14.984 29.934-22.429 44.948a12.099 12.123 0 0 0-1.35 7.134c2.374 10.63-4.653 12.309-12.33 13.987-9.82 2.239-19.498 4.943-30.48 7.787 1.628 5.922 2.513 10.584 4.141 14.967 7.539 20.33 1.396 39.4-5.723 58.143a11.308 11.33 0 0 1-8.795 5.782c-11.866-.42-24.058 2.844-35.691-1.912zM486.473 101c5.49 4.895 10.842 9.931 16.52 14.594a22.662 22.707 0 0 1 6.7 30.027q-9.958 18.324-19.777 36.835c-4.653 8.906-2.42 15.993 5.91 21.308a212.239 212.663 0 0 1 25.36 16.32c30.248 26.344 49.14 58.702 53.607 99.594a66.59 66.722 0 0 1-9.306 43.969c-3.956 6.62-8.516 10.864-16.799 10.63a25.686 25.738 0 0 0-11.633 2.518 9.725 9.745 0 0 0-5.026 6.621c-.372 4.663 1.908 9.325 1.163 13.988a21.126 21.168 0 0 1-6.328 13.056c-3.071 2.004-9.307.792-13.495-.933-5.258-2.145-10.656-9.698-14.379-8.72a53.746 53.854 0 0 0-19.683 12.59c-24.43 21.308-52.118 37.534-79.619 54.273a46.533 46.626 0 0 0-15.821 15.807 75.57 75.721 0 0 1-39.46 32.638c-5.491 2.192-5.817 5.082-6.143 9.559a196.79 197.183 0 0 1-2.373 24.665c-2.466 12.869-12.704 20.516-21.452 28.955-15.31 14.827-33.504 25.038-52.303 34.97-18.8 9.931-24.896 29.701-26.06 50.403v7.927l-2.512 1.305c-1.582-2.238-4.653-4.662-4.653-6.714a77.571 77.726 0 0 1 44.811-68.774c15.543-6.994 29.037-18.977 42.578-29.841a62.448 62.573 0 0 0 12.75-17.298 15.821 15.853 0 0 0 1.769-9.326c-2.14-21.448 1.07-29.514 20.475-36.695 12.89-4.662 18.613-15.387 26.942-24.152a141.136 141.418 0 0 1 20.242-19.63c27.13-19.397 54.817-38.047 82.271-56.978a61.284 61.407 0 0 0 9.68-7.087c7.491-7.833 13.96-5.129 20.474 1.166a9.632 9.652 0 0 0 2.047 1.865 184.135 184.135 0 0 0 11.448 4.663 60.493 60.614 0 0 0 1.21-11.144c-1.117-17.345-4.282-25.552 22.661-26.204a11.773 11.796 0 0 0 11.448-7.18 82.504 82.669 0 0 0 5.072-64.345c-6.748-22.894-20.8-41.964-34.202-61.034a53.141 53.247 0 0 0-14.286-10.958c-9.307-6.108-18.893-11.656-27.92-17.81a14.751 14.78 0 0 1-6.19-19.304c5.771-12.823 12.286-25.318 18.94-37.721 8.097-15.014 6.887-22.148-6.282-32.639-5.863-4.662-11.587-9.605-17.403-14.454zm-77.99 1567.255a44.3 44.388 0 0 1 .652-12.262c8.329-24.806 18.334-49.145 25.174-74.323a220.661 221.103 0 0 0 5.351-49.424c.373-9.885-3.443-19.863-3.49-29.841 0-39.306-1.628-78.705 6.05-117.592a78.13 78.286 0 0 1 6.514-17.158c11.448-24.48 19.265-50.31 34.482-73.484 10.749-16.366 22.568-26.67 41.275-26.717 12.052 0 24.104 3.777 36.156 5.922 13.96 2.518 28.2 5.548 42.439 7.273a14.472 14.5 0 0 0 10.377-5.828 201.35 201.753 0 0 0 15.262-24.06c7.306-13.427 19.451-21.167 32.248-27.975 4.653-2.331 10.563-1.585 15.915-2.285l.698 3.124a35.365 35.436 0 0 1-7.772 3.824c-17.496 3.73-29.176 14.92-37.97 29.654-3.723 6.295-6.515 13.149-10.145 19.537a19.358 19.397 0 0 1-21.22 10.118c-18.613-3.311-37.226-7.647-55.84-11.377a106.654 106.868 0 0 0-15.402-1.586c-3.071 0-6.515 1.679-9.307.793-12.657-4.663-18.194 4.663-23.778 12.543a318.986 319.625 0 0 0-46.86 98.755c-4.978 16.785-5.118 35.25-6.142 53.014-1.116 19.35-.837 38.84-.884 58.283 0 9.325.838 18.65.791 27.976 0 15.526-.325 31.006-1.07 46.626a59.702 59.822 0 0 1-3.723 13.149c-5.025 17.438-9.679 34.97-15.263 52.175-3.49 10.724-8.422 20.982-12.703 31.426z" fill="#404697"/><path d="M1243.85 623.588c-24.476 4.336-49.046 8.3-73.383 13.289-7.957 1.632-15.216 6.294-22.987 9.325a238.53 239.007 0 0 1-36.576 12.076c-16.007 2.891-31.782 1.073-44.067-12.123-7.724-8.252-6.794-17.997-4.095-26.996a165.1 165.43 0 0 0 9.074-56.978c-.744-14.64 9.307-25.644 14.705-38.28 3.071-7.32 4.653-15.294 6.887-22.894.79-2.61.419-7.833 2.327-8.58 2.698-1.025 3.769-4.335 5.723-4.149.233.793 5.165 5.269-1.396 17.065-3.443 6.155-3.071 13.988-5.956 20.283-7.26 16.086-14.844 31.333-14.705 50.31 0 15.76-5.305 31.753-9.306 47.372-3.63 14.501 2.14 22.101 16.705 25.878a66.682 66.816 0 0 0 46.813-5.595 194.416 194.805 0 0 1 73.243-20.982c9.074-.653 17.916-4.01 26.99-5.595a30.945 31.007 0 0 1 9.306 1.212zm-17.357 35.763a76.129 76.28 0 0 1-7.166 5.455c-16.473 8.58-23.825 23.313-18.939 41.964a21.266 21.308 0 0 1-5.677 21.96c-10.144 10.911-20.987 21.216-30.48 32.64a486.692 487.666 0 0 0-31.689 41.963 213.495 213.922 0 0 1-45.742 50.683c-4.98 3.917-10.098 6.808-8.888 15.434 1.024 7.553-10.051 16.086-18.008 16.226-3.397 0-6.794.42-10.191.466-19.544.513-26.198 5.082-31.13 23.686-4.654 17.765-16.986 27.976-32.342 35.53a187.25 187.625 0 0 1-53.885 15.106 41.089 41.171 0 0 0-22.662 15.434c-11.308 14.874-20.195 31.52-30.526 47.186a110.051 110.272 0 0 1-17.822 22.847 28.385 28.442 0 0 1-18.241 4.662c-7.027 0-8.888 2.751-9.307 8.44a37.925 38 0 0 0 .28 11.05c3.582 14.734 8.05 29.235 11.12 44.016a18.613 18.65 0 0 1-3.07 13.988 29.874 29.934 0 0 0-7.213 23.733 20.428 20.469 0 0 1-4.653 12.262c-8.05 10.724-16.892 20.842-25.035 31.473a18.613 18.65 0 0 0-3.537 9.325 74.453 74.602 0 0 1-31.922 55.113 240.484 240.966 0 0 0-35.319 30.54c-13.96 15.9-23.266 30.82-13.169 54.18.885 2.052-.651 5.13-1.07 7.74-1.954-1.445-4.979-2.518-5.677-4.383-9.307-25.458-7.631-37.58 12.983-59.215a554.026 555.135 0 0 1 44.067-40.192c13.308-11.33 18.38-26.018 22.15-42.337a85.528 85.7 0 0 1 12.657-25.785c3.77-5.828 10.19-9.931 14.379-15.573 4.188-5.642 8.469-11.33 6.794-20.05a26.012 26.064 0 0 1 4.932-16.179 26.338 26.39 0 0 0 3.35-21.168 424.384 425.233 0 0 1-9.306-44.155c-.838-6.062 2.699-12.87 4.932-19.07.42-1.166 4.095-1.959 6.05-1.68 13.54 2.1 22.708-3.543 29.595-14.966 10.33-17.112 20.847-34.13 32.061-50.636a58.632 58.75 0 0 1 45.882-27.324c22.336-1.865 43.416-9.651 58.632-27.37a62.587 62.713 0 0 0 10.191-21.494c4.654-14.314 13.495-22.474 28.897-22.66 3.397 0 6.794-.607 10.191-.7 14.844-.373 14.705-.373 17.776-14.454a10.656 10.677 0 0 1 3.816-5.735 231.038 231.5 0 0 0 63.006-72.458 125.64 125.891 0 0 1 31.829-36.042 93.067 93.253 0 0 0 24.01-32.359c3.584-7.833.652-18.65.606-28.256a30.247 30.307 0 0 1 32.48-28.861z" fill="#404697"/><path d="M1271.305 1386.257a24.477 24.526 0 0 1-15.728-14.734c-.466-1.352-2.42-2.33-3.863-3.217-9.586-5.642-19.218-11.19-28.944-16.785.42-3.45 1.722-4.663 5.026-2.938 9.307 5.316 18.613 10.538 27.92 16.133a15.077 15.107 0 0 1 5.072 5.968 15.821 15.853 0 0 0 15.822 10.211c15.123-.233 30.246 0 45.695 0l.466 5.41zm654.12 0l.279-5.035h73.522l.419 5.035zm-112.844 0l.28-5.035h73.522l.419 5.035zm-225.687 0l.28-5.035h73.522l.372 5.035zm789.95 0l.28-5.035h73.523l.418 5.035zm-902.793 0l.279-5.035h73.523l.372 5.035zm-112.89 0l.279-5.035h73.523l.419 5.035zm338.577 0l.279-5.035h73.522l.373 5.035zm338.576 0l.28-5.035h73.522l.373 5.035zm112.844 0l.279-5.035h73.523l.372 5.035zm112.843 0l.28-5.035h73.522l.372 5.035zm249.745-98.288h-5.026v-73.017h5.026zm0-112.743h-5.026v-73.11h5.026zm0-112.79h-5.026V989.56h5.026zM298.478 829.491h5.072c0 1.725.28 3.217.373 4.662.977 20.376 1.907 40.752 2.978 61.128.325 5.781.465 5.735-4.654 6.76-.884-9.884-1.768-19.676-2.652-29.467-.326-3.59-.745-7.18-1.117-10.724zm439.927-426.166v4.29l-71.987 6.06c-1.769-3.87 1.302-4.662 4.653-4.942 14.797-1.538 29.642-2.984 44.486-4.662 1.675 0 3.35-.606 5.025-.933zM2513.745 949.6h-5.164c0-2.052 0-3.917-.28-5.736a14.611 14.64 0 0 0-15.216-14.92h-35.272l-.512-4.663a15.216 15.247 0 0 1 2.28-.466c9.027 0 18.055.373 27.036 0 13.215-.793 22.522 3.963 27.129 16.739zm-24.01 436.656v-4.989l4.048-.42a14.611 14.64 0 0 0 14.286-15.246v-37.86h5.444v41.963a26.198 26.25 0 0 1-16.706 16.739z" fill="#c11a1a"/><path d="M2497.04 1386.257a26.198 26.25 0 0 0 16.706-16.739v16.74zM1441.99 928.292v-4.662h72.452c.651 2.61 1.535 5.082-2.839 5.082h-68.357c-.326.233-.605-.187-1.257-.42zm185.388-4.29c1.117 3.544 0 4.99-3.537 4.99h-65.146c-3.63 0-4.653-1.26-3.676-4.99zm40.298 4.29v-4.662h72.452c.652 2.61 1.583 5.082-2.791 5.082h-68.358a4.653 4.663 0 0 1-1.303-.42zm185.389-4.29c1.117 3.498.233 4.99-3.49 4.99h-65.147c-3.63 0-4.653-1.213-3.722-4.99zm112.843 0c1.117 3.544 0 4.99-3.536 4.99h-65.147c-3.63 0-4.653-1.306-3.676-4.99zm112.844-.186c.79 3.124.884 5.176-2.978 5.129h-67.846a6.654 6.668 0 0 1-1.675-.466v-4.663zm40.298 4.71v-4.663h72.731l.233 4.662zm112.89-.234v-4.662h72.452c.652 2.564 1.629 5.082-2.792 5.082l-68.218.233c-.465 0-.744-.373-1.442-.653zm112.843 0v-4.662h72.453c.651 2.61 1.628 5.082-2.792 5.082h-68.358c-.326.233-.605-.14-1.303-.42zm-1563.01 355.34H710.02c-.279-.326-.651-.559-.698-.792v-3.59a5.91 5.922 0 0 1 1.582-.56c8.144.233 16.287.886 24.43.746 14.333-.326 28.712-1.072 43.044-1.772 3.536-.14 4.234 1.54 3.397 5.969zm424.804-473.258c-1.536 3.916-3.583 3.777-6.282 2.191a99.21 99.408 0 0 0-19.311-10.864c-7.539-2.424-9.028-6.48-9.307-13.615-.605-9.325-3.071-18.65-4.653-27.975 0-1.446 1.163-3.078 1.814-4.663 1.024 1.212 2.746 2.331 3.025 3.683 1.861 10.258 3.63 20.516 4.979 30.82a6.794 6.807 0 0 0 4.141 5.782c8.516 4.71 16.892 9.652 25.594 14.64zM929.47 1242.74a17.124 17.159 0 0 1-1.862-2.191c-.372-.746-.605-1.539-1.023-2.565.465-.326.837-.7 1.303-.979 17.077-9.558 34.155-19.21 51.186-28.675a6.375 6.388 0 0 1 4.886 0c3.397 1.539 6.608 3.637 10.238 5.688l-2.001 4.337a38.809 38.886 0 0 1-5.259-2.845c-3.676-2.984-6.654-2.238-10.61 0-15.309 9.326-31.037 18.091-46.858 27.23zM315.88 718.053l4.654 1.726-14.611 70.545-4.98-.932zm462.124-308.76v-3.963a408.005 408.821 0 0 1 70.823 11.983v4.103zm-108.61 870.376c-12.936-2.797-23.499-4.662-33.922-7.367-10.424-2.704-22.057-6.108-32.992-9.325-1.21-.373-2.001-2.145-3.025-3.264 1.582-.42 3.304-1.492 4.653-1.165q31.41 7.32 62.727 15.107a5.119 5.129 0 0 1 3.35 2.89c.373 1.073-.697 2.751-.79 3.124zm152.35-2.657c-1.86-3.497-.418-4.943 2.374-5.689 20.94-5.642 41.88-11.377 62.774-16.879 1.163-.326 2.745.653 4.095 1.073-.792 1.072-1.35 2.797-2.42 3.217a408.516 409.334 0 0 1-66.822 18.278zM330.54 1011.614l-21.871-69.194c4.374-2.285 5.77-1.585 6.794 2.005 6.189 21.495 12.657 42.943 19.172 64.997zM1339.57 887.26l50.953 29.328a63.053 63.179 0 0 1 8.004 4.663 30.619 30.68 0 0 1 4.653 5.548l-1.489 1.539c-4.234-2.378-8.469-4.663-12.657-7.087l-48.767-27.976c-3.117-1.632-3.676-3.45-.698-6.015zM558.18 441.279l67.242-23.92c1.256 1.446 1.768 1.819 1.861 2.238a21.126 21.168 0 0 1 .233 2.751c-14.612 4.896-28.99 9.605-43.276 14.641-6.98 2.425-13.96 5.362-20.568 8.44-3.025 1.445-4.281.512-5.491-4.15zm604.144 274.723l-5.305 1.725c-4.142-11.377-7.957-22.614-12.331-33.618-4.375-11.003-9.307-21.867-13.96-33.058l5.118-2.191c8.655 22.567 17.59 44.715 26.477 67.142zm27.5 610.807l-2.233 4.383-62.68-36.182 1.861-4.663zM328.819 680.053l31.503-60.615c1.815-3.543 3.676-3.87 5.026-1.631-9.958 20.935-19.59 41.077-29.084 61.267-1.861 3.73-1.442 3.823-7.445.979zm231.69 567.864l-63.1-34.317 2.513-3.637c20.289 10.49 40.252 20.888 60.493 31.1 3.35 1.771 2.932 3.543.093 6.854zm394.137-789.573l-2.745 4.663c-6.05-2.984-11.82-6.062-17.73-8.766-14.797-6.575-29.548-13.149-44.485-19.397-3.49-1.492-3.211-2.844-.605-6.48zm134.947 816.243l-62.122-35.902c.233-3.544 1.629-4.663 4.886-2.938 18.334 10.584 36.715 21.075 54.956 31.846 2.187 1.259 6.794 2.425 2.28 6.994zm149.512-440.34l2.466-3.637 62.308 35.949c-.93 2.331-.977 5.175-4.653 3.03l-59.284-34.317a4.095 4.103 0 0 1-.837-1.025zM989.359 479.979l55.282 44.948c-3.211 4.662-3.816 4.662-7.539 1.212-6.421-5.782-12.657-11.75-19.404-17.159-9.307-7.553-19.032-14.78-28.711-21.914-2.7-1.958-3.537-3.544.372-7.087zm-467.753-20.096c3.024 3.357 2.978 4.662 0 6.667-15.542 10.165-30.945 20.562-46.534 30.96-3.257 2.192-6.235 4.663-9.679 7.507l-3.304-4.663zM386.007 1108.13c-8.19-12.542-16.519-24.945-24.476-37.58-4.653-7.274-8.655-14.967-12.983-22.614 2.513-2.611 3.955-2.984 6.003.326 11.447 18.37 23.267 36.649 34.667 54.88 1.769 2.983.605 4.336-3.21 4.988zm82.132 78.333l-3.444 3.497-52.443-49.144 3.071-3.637zm600.699-628.059l3.77-2.657a411.867 412.691 0 0 1 40.856 55.345c.605.933 0 2.658 0 3.964-1.396-.56-3.35-.7-4.095-1.726-7.818-11.097-15.263-22.474-23.267-33.43-5.398-7.368-11.4-14.269-17.264-21.496zm-681.016 26.53c-2.513-1.211-3.118-2.843-.837-5.454 14.332-16.273 28.571-32.639 42.996-48.912.885-.979 3.165-.746 4.654-1.072v1.306c-15.356 17.95-30.945 35.855-46.813 54.133z" fill="#c11a1a"/><path d="M2512.861 476.202l-4.653-.28v-69.52l4.653-.42zm0-106.775l-4.653-.28v-69.66l4.653-.42zm0 213.643l-4.653-.28v-69.52l4.653-.42zM970.141 831.402c-7.12-.699-14.193-1.305-21.266-2.098-8.934-.979-17.822-2.145-26.757-3.217-3.257-.373-4.141-2.052-3.35-4.243l71.847 5.782.326 3.776zM1004.9-3.585l23.267 2.239.233 3.59h-68.823v-4.29l10.563-1.539zM569.814 397.077c.698-7.647 1.35-15.294 2.094-22.894.512-5.175 1.164-10.35 1.769-15.526 5.677.746 4.001 4.662 3.908 7.227-.837 19.723-1.908 39.399-2.885 59.122v2.331l-4.653.42zm1943.048-134.518l-4.933-.373c0-9.092-.372-18.137 0-27.136a15.17 15.2 0 0 0-17.403-17.159h-6.236l-.233-4.103c.605-.233 1.07-.606 1.443-.56a95.068 95.258 0 0 1 16.799 2.658c5.863 1.865 8.003 7.787 10.423 12.962zm0 372.966c-4.421 12.356-13.588 16.692-26.245 15.806-6.515-.466-13.123 0-20.01 0v-4.663c7.027 0 13.96-.373 20.754 0 15.682 1.026 22.057-5.642 20.847-20.609v-5.781l4.653-.467zm-940.673 11.237v4.29h-68.59v-4.29zm107.027-.094v4.383h-68.636v-4.383zm38.111 4.243v-4.29h68.776l.233 4.29zm107.26.14v-4.383h68.59v4.383zm282.83-4.29v4.15h-68.87v-4.15zm-410.192-433.253v4.103h-68.777v-4.103zm448.302 437.403v-4.15h68.916v4.15zm175.896-4.103v4.103h-68.869v-4.103zm106.84-.047v4.15h-68.682v-4.15zm-1013.868-429.15v-4.103h68.916v4.103zm175.617-4.103v4.103h-68.59v-4.103zm410.191 433.254v4.15h-68.683v-4.15zm-264.728-429.01v-4.244h68.777v4.243zm175.757-4.244v4.103h-68.73l-.233-4.103zm38.297 4.103v-4.103h69.009v4.103zm106.654.14v-4.383h68.683v4.383zm175.896-4.243v4.103h-68.497v-4.103zm145.557 4.243v-4.383h68.404v4.383zm-107.353-.14v-4.103h68.87v4.103zm-873.99 433.44v-4.383h68.684v4.383zm-69.753-475.543c1.861-3.124 3.444-1.819 5.072.746 6.654 10.63 13.588 21.028 19.823 31.846a8.748 8.766 0 0 0 9.307 5.175c4.653-.373 9.865 0 15.17 0l.372 4.663h-22.522c-1.024 0-2.28-1.446-2.978-2.518-8.097-13.289-16.1-26.53-24.244-39.912zm-19.544 508.695c-5.119-1.912-2.7-4.29-1.443-5.875 6.84-9.046 13.96-17.952 20.8-26.95 1.118-1.4 2.048-2.938 3.258-4.243a4.374 4.383 0 0 1 2.513-1.586c8.516.373 16.985.886 25.966 1.399l.372 3.684a4.374 4.383 0 0 1-1.675.512c-7.4 0-14.798-.466-22.197-.326a6.887 6.9 0 0 0-4.374 2.798c-7.864 10.164-15.542 20.422-23.22 30.587zm-734.622-217.84l4.374-1.771 13.96 66.722-4.188 1.586zm456.445 363.827v-5.175c9.307-1.446 18.614-2.705 27.641-4.383 11.913-2.192 23.872-4.663 35.645-7.227 3.909-.933 3.816.746 3.816 4.662zM855.017 17.397c16.008-4.056 31.55-8.113 47.185-11.936a142.439 142.724 0 0 1 16.008-2.937c1.303 0 2.792 1.305 4.188 2.004-1.164.886-2.187 2.285-3.49 2.565-19.637 4.663-39.368 9.325-58.958 14.221-3.35.886-3.956-.047-4.933-3.917zm-275.71 304.238l20.754-65.79 4.979 2.052c0 .56-.326.979-.419 1.352-6.282 19.676-12.61 39.306-18.846 58.982-1.117 3.171-.93 3.218-6.468 3.404zM1132.868 21.5l-2.327 4.197a3.443 3.45 0 0 1-1.256 0c-20.056-5.549-40.158-11.05-60.214-16.739-1.396-.373-2.42-1.912-3.63-2.938 1.536-.512 3.211-1.771 4.654-1.492 7.678 1.679 15.263 3.637 22.847 5.689a4372.698 4372.698 0 0 0 39.926 11.283zM881.774 814.337l-1.768 3.777-63.658-22.614v-2.704c1.49-.373 3.21-1.492 4.42-1.073 20.243 7.367 40.392 14.92 61.006 22.614zm-248.07-187.065a2.745 2.751 0 0 1-.604.792c-.838.467-1.769.84-3.863 1.819-10.097-20.19-20.195-40.379-30.107-60.288 3.258-2.844 4.98-2.844 6.236.513a385.25 386.02 0 0 0 28.339 57.164zm561.286 150.277l-60.726 28.255c-3.397-3.03-2.932-4.662 0-5.921l50.396-22.8a45.37 45.46 0 0 0 4.653-2.658c3.21-1.912 3.304-1.865 5.677 3.124zM761.532 67.987l-2.932-4.01 59.656-32.638c2.978 2.984 2.745 4.662 0 6.108q-25.966 13.988-51.838 27.976c-1.536.932-3.165 1.678-4.886 2.564zm466.73 3.03l-2.886 2.938c-19.078-10.63-37.226-20.935-55.56-30.96-3.025-1.632-4.142-2.844-.885-6.434zm0 685.41l-2.653-3.497 52.304-43.083 3.164 2.891zM652.363 163.851c4.421.98 4.654 2.331 2.7 5.222q-16.148 25.039-31.876 50.357c-2.234 3.543-2 3.683-6.747 1.166zm129.177 614.21c-17.962-12.542-35.551-24.851-53.048-37.3-2.699-1.866-2.513-2.099-.326-5.036 11.494 8.113 22.941 16.366 34.528 24.292a222.01 222.455 0 0 0 18.986 11.797c2.931 1.772 1.768 3.264-.14 6.248zm521.174-632.44c-7.678-8.254-15.123-16.74-23.267-24.666-8.143-7.927-16.287-15.107-24.523-22.66 1.303-2.612 2.745-3.358 5.119-1.026 14.425 14.407 28.99 28.721 43.415 43.176 2.188 1.958 1.955 2.191-.744 5.175zM727.423 87.476c3.164 1.958 3.118 3.404.698 5.502q-19.917 17.765-39.6 35.716a79.758 79.918 0 0 0-6.934 8.206c-3.63-2.844-1.721-5.176.28-7.087 11.075-10.77 22.196-21.542 33.41-32.126 3.816-3.637 8.05-6.76 12.146-10.211zm-28.525 623.256l-3.118 2.798-44.3-50.357 2.885-3.497z" fill="#c11a1a"/><g filter="url(#s)"><use class="r" href="#r" transform="matrix(3.02 0 0 4.9 753 369)"/><use href="#pin" transform="matrix(3.75 0 0 3.75 1033 135)"/><use class="r" href="#r" transform="matrix(3.45 0 0 5.25 275 735)"/><use href="#pin" transform="matrix(3.75 0 0 3.75 627 505)"/></g><use class="r" href="#r" transform="matrix(1.78 0 0 3.55 1500 256)"/><use class="g" href="#r" transform="matrix(.99 0 0 1.7 1687 396)"/><use class="g" href="#r" transform="matrix(.48 0 0 2.25 2366 355)"/><use class="r" href="#r" transform="matrix(2.28 0 0 1.95 1935 444)"/><path class="g" d="M1932.684 335.483c22.661-.792 45.37-1.119 68.078-1.725l68.078-.98c45.417-.652 90.787-.652 136.203-.652 45.417 0 90.787 0 136.203.793l68.079.979c22.708.606 45.417.932 68.078 1.725-22.661.793-45.37 1.12-68.078 1.725l-68.078.98c-45.417.559-90.834.512-136.204.792-45.37.28-90.786 0-136.203-.84l-68.125-1.118c-22.661-.373-45.37-.886-68.031-1.679zm3.583 258.264q68.218-3.497 136.389-2.518c22.708.467 45.463 1.492 68.218 1.772 22.755.28 45.463 0 68.171-.792 22.708-.793 45.463-1.166 68.218-1.4 22.755-.232 45.463-.512 68.172-.419 45.463.327 90.926 1.166 136.389 3.357v.7c-45.463 2.238-90.926 3.03-136.39 3.403-22.708 0-45.463 0-68.17-.466-22.71-.466-45.464-.7-68.219-1.352-22.755-.653-45.463-.98-68.171-.793-22.708.187-45.51 1.306-68.218 1.772q-68.171.886-136.39-2.564z"/><use class="g" href="#r" transform="matrix(1.17 0 0 2.55 1459 983)"/><use class="r" href="#r" transform="matrix(1.28 0 0 2.7 1460 1082)"/><path class="g" d="M1774.33 1157.415a194.51 194.899 0 0 1 47.883-11.377 295.78 295.78 0 0 1 23.965-1.958 137.6 137.874 0 0 1 23.965.746c16.007 2.005 32.015 7.227 48.022 8.066a181.48 181.843 0 0 0 47.93-3.963c7.957-1.539 15.96-3.17 23.918-4.337 7.957-1.165 16.007-1.771 23.965-2.424a424.245 425.094 0 0 1 47.929-2.285 406.33 407.142 0 0 1 47.976 4.243c8.003 1.166 16.007 2.565 24.01 4.383a200.093 200.494 0 0 1 24.012 6.574v3.264a201.35 201.753 0 0 1-23.965 6.854c-7.957 1.959-15.96 3.404-23.918 4.663a407.725 408.541 0 0 1-47.93 4.663 435.413 436.284 0 0 1-47.975-1.679c-8.004-.606-15.961-1.072-23.965-2.191-8.003-1.12-16.007-2.611-24.01-4.01a181.48 181.843 0 0 0-47.977-3.404c-15.96 1.072-31.922 6.435-47.883 8.626a133.365 133.631 0 0 1-23.964 1.072q-12.006-.373-24.012-1.678a197.022 197.417 0 0 1-48.022-10.771z"/><use class="g" href="#r" transform="matrix(.63 0 0 4 1568 1193)"/><use class="r" href="#r" transform="matrix(1.82 0 0 2 1728 1189)"/><use class="r" href="#r" transform="matrix(1.3 0 0 10 2170 965)"/></svg>