<svg xmlns="http://www.w3.org/2000/svg" version="1" viewBox="0 0 570 84"><path fill="#dbddda" d="M125 82h1-1zm18 0h1-1zm-21-1h1v1l-1-1zm-90-1h3l-2 1c-1 0-2 0-1-1zm483 0h3c1 1 0 1-2 1-1 0-2 0-1-1zM27 80h0zm12 0c1 0 0 0 0 0s-1 0 0 0zm470 0h0zm14 0h1-1zM25 80c1 0 0 0 0 0-1 0-1 0 0 0zm276 0zm20 0zm12 0zm14 0l5-1c1 0 1 0 0 0l-5 1c-5 0-5 0 0 0zm9 0zm10 0h2-2zm-137-1zm101-1v-1 1zm-12 1v-1 1zm11-5v-3a101 101 0 0 1 0 3zm122 5zm-242 0h1-1zm191-2l1-2-1 2c0 2 0 2 0 0zm29-18V49a1404 1404 0 0 1 0 10zm2-20c0-41 0-41 13-41 12 0 12 0 12 31 0 36 1 33-3 33-8 0-16 10-12 16l-5 1c-5 0-5 0-5-40zm7 15c-1-2-4-2-4 0s0 2 2 2 2 0 2-2zm7 0c0-2-3-2-3 0s0 2 2 2l1-2zm8 0c0-2 0-2-2-1-3 0-3 3 0 3 2 0 2 0 2-2zm-15-10c-1-3-4-3-4 0 0 2 0 2 2 2s2 0 2-2zm7 0l-1-1-2 1c0 2 0 2 2 2l1-2zm8 0l-2-1-2 1c0 2 0 2 2 2s2 0 2-2zm-15-10l-2-1-2 1c0 2 0 2 2 2s2 0 2-2zm7 0l-1-1-2 1c0 3 3 3 3 0zm8 0l-2-1-1 1c0 3 3 3 3 0zm-15-10c0-2 0-2-2-2s-2 0-2 2 0 2 2 2 2 0 2-2zm7 0c0-2-3-3-3 0 0 2 0 2 2 2l1-2zm8 0c0-2 0-2-2-2l-1 2 1 2c2 0 2 0 2-2zm-15-9c0-2 0-2-2-2l-1 2 1 1 2-1zm7 0l-1-2c-2 0-2 0-2 2l2 1 1-1zm8 0c0-2 0-2-2-2l-1 2 1 1 2-1zm0-11l-2-1c-2 0-3 2-2 3 2 1 4 0 4-2zm-15 0l-2-1-2 1c0 2 0 2 2 2s2 0 2-2zm7 0l-1-1-2 1c0 2 0 2 2 2l1-2zM212 79h1-1zm4-1c1 0 0 0 0 0s-1 0 0 0zm124 0l1-1v1h-1zm59-1v-1 1zm-273 1zm92 0h1-1zm-97 0c1 0 0 0 0 0-1 0-1 0 0 0zm14 0c1 0 0 0 0 0s-1 0 0 0zm86 0h1-1zm3-1h1-1zm117-1l1-1v2l-1-1zm-114 1h0zm270-1c-1 0-1 0 0 0l1 1-1-1zm-267 1h0s-1 0 0 0zm3-1c1 0 0 0 0 0-1 0-1 0 0 0zm85 0v-1 1c0 1 0 0 0 0zm-83 0h1-1zm3 0h0zm-111-1zm114 0h1l-1 1v-1zM7 75h0zm20 0h1c0-1 0-1 0 0h-1zm95 0h0zm14 0h0zm108 0h0s-1 0 0 0zm-125 0h0zm19 0h1-1zm109 0h0s-1 0 0 0zm93-1v0zm101 0v-1 1c0 1 0 0 0 0zm81 0c-1 0-1 0 0 0a53 53 0 0 0 0 1v-1zm-381 0h1l-1 1v-1zm111 0h1v1l-1-1zm252-1c0-1 0-1 0 0v0zm-246 1h1-1zm-54 0h1-1zM28 72v-1 1zm171 1h1l-1 1v-1zm14 0h2l-1 1-1-1zm105 0h1-1zm-97 0h1-1zm42 0h1c1 0 0 0 0 0h-1zm68-1v-1 1zM3 73v-1 1zm225 0h1-1zm32 0h0c-1 0-1 0 0 0zm38 0h1-1zm108 0l1-1c1-1 2-1 1-2h1l-1 1-2 2zm-231-1l1-2-1 2-1 1 1-1zm60 0h2l-1 1c-1 0-2 0-1-1zm21 0h1l-1 1v-1zm45 0h1v1l-1-1zm108-1l1-1c1-2 2-1 2 0l-1 1-3 1 1-1zm147 1h1l-1 1v-1zm3 0h1l-1 1v-1zm-315 0zm60 0h1c1 0 1 0 0 0h-1zm249 0h1-1zm8 0h1-1zm-253 0h1-1zm32-1v0zm50 0c-1 0-1 0 0 0l1 1-1-1zm174 1h0zM6 72h1-1zm89-1c0-1 0-1 0 0l1 1-1-1zm216 1h1-1zm55 0c0-1 0-1 0 0 1 0 0 0 0 0s-1 0 0 0zM41 71h0zm300-1v-1 1zm75 0l1-1 2 1-2 1-1-1zM38 71h0zm384-1l2-1 2 1-2 1-2-1zm85 1v-1 1c1 0 1 0 0 0zm-199 0h1c1 0 0 0 0 0h-1zm11-1v0zm48 1h1-1zm142 0c0-1 0-1 0 0 1 0 1 0 0 0 0 0-1 0 0 0zM51 70zm253 0h0c-1 0-1 0 0 0zm210 0h2-2zM37 69s0-1 0 0v0zm261 1h1c1 0 0 0 0 0h-1zm224-1v-1 1zM14 70h1-1zm326-1v-1 1zm-21-1v-1 1zm155-1l1 1-1-1zm-143-1c0-1 0-1 0 0v0zm207 1h1v1l-1-1zm-128-1v-1 1zm0 0v-1 1zm111 0h0zM37 65v-1 1c0 1 0 0 0 0zm259 1h1c1 0 0 0 0 0h-1zm4-1h1l-1 1v-1zm41-1s0-1 0 0v0zm106 1l1-1-1 1-1 1 1-1zM17 65v-1 1zm286 0h1c1 0 0 0 0 0h-1zm16 0l1-1v1h-1zm-12 0h1-1zm59 0h1-1zm195-2v-1 1zm-383 1v-1 1c0 1 0 0 0 0zm132 0h2l-1 1-1-1zm54 0h1l-1 1v-1zm47 0v-2c1 0 2 2 1 3l-1-1zm5-1l1-1 2 1c0 2 0 2-2 2l-1-2zm7 0l1-1 2 1c0 2 0 2-2 2l-1-2zm-114 0h3l-2 1c-1 0-2 0-1-1zm57 1h1c1 0 0 0 0 0h-1zM91 63v-1 1zm209 0h1-1zm156 0l1-1c1-1 1-1 0 0l-1 1zM12 62v0zm308 0v0zM17 62v-1 1zm39 0v-1 1zm275-1v-1 1zm8 0v0zM51 61v-1 1zM8 61h0s-1 0 0 0zm401 0v-1 1zm146 0l-1-1s-1 0 0 0l1 1zM43 61h0zm-5-1l1-1c1-1 1-1 0 0l-1 1zm423 0h1c1 0 0 0 0 0h-1zM56 59s0-1 0 0v0zm264 0v0zm21 0v-1 1c0 1 0 0 0 0zm-46 0h1c1 0 1 0 0 0h-1zM29 58l-1-3h1v3c0 1 0 1 0 0zm89 1h2-2zm220 0v-1 1zm-224 0h0zm186 0h0s-1 0 0 0zm66 0h0s-1 0 0 0zM3 58v-1l1 1H3zm302 0h2l-1 1-1-1zm58 0h1l-1 1v-1zm-51 0h1c1 0 0 0 0 0h-1zm49 0h0zm30-1l1-1v1l-1 1v-1zm15 0h1l1 1-2-1zm3 0c0-2 0-2 2-2l1 2-1 1-2-1zm7 0l1-2c2 0 2 0 2 2l-2 1-1-1zm7 0l1-2c2 0 2 0 2 2l-2 1-1-1zm-112 0h1-1zm9 0v-1 1zM11 56h1l1 1-2-1zm46 0l1-1-1 1-1 1 1-1zm5 1h1-1zm233 0h2c2 0 3 0 0 0h-2zm112-1c-1-1-1-1 0 0l1 1-1-1zm-292 0h2l-1 1c-1 0-2 0-1-1zm217-1s0-1 0 0v0zm6 1s0-1 0 0zM2 55c-1 0-1 0 0 0l1 1-1-1zm109 1h1-1zm9 0h0zM19 56h1-1zm48 0l1-1c1-1 1-1 0 0l-1 1zm42 0c1 0 1 0 0 0 0 0-1 0 0 0zm399 0v-1l1 1h-1zm29 0l1-1-1 1zm-216-2v-1 1zM14 53c-1-1-1-1 0 0l1 1-1-1zm38 0l-1 1 1-1zm243 1h1-1zm43-1v0zm2 0v-1 1zm29 1c-1 0-1 0 0 0h1s1 0 0 0h-1zm-196-2l-1-1 1 1 2 2-2-2zm226 2c1 0 0 0 0 0s-1 0 0 0zm-99-1h1c1 0 1 0 0 0h-1zm65 0c1 0 0 0 0 0-1 0-1 0 0 0zm-60 0h1c1 0 0 0 0 0h-1zm56 0h1-1zm-49 0h1-1zm55-1h1-1zM69 51l1-1v1h-1zm239 1h1-1zm-12-1h1-1zm41 0c0-1 0-1 0 0 1 0 1 0 0 0 0 1 0 0 0 0zm176 0c-1 0 0 0 0 0v0zm-181-1s0-1 0 0v0zm71 0l2-1 1 1-1 1-2-1zm7 0l1-1 1 1-1 1-1-1zm6 1c-1-1 0-2 2-2l1 1c0 1-2 2-3 1zm7 0c-1-1 0-2 1-2l2 1-3 1zm-315-1v-1 1c0 1 0 0 0 0zm4 0h1c1 0 0 0 0 0h-1zm209-1s0-1 0 0c1 0 1 0 0 0 0 1 0 0 0 0zm-201-1v-1 1c0 1 0 1 0 0zm-63-1c0-1 0-1 0 0v0zm240 2h0s-1 0 0 0zm71 0h0c-1 0-1 0 0 0zm-65-1h2l-1 1-1-1zm37-1c0-1 0-1 0 0v0zm23 1h1l-1 1v-1zm-54 0h1-1zm6 0h1-1zm85-2v-1 1zm-87 1h2-2zm19-1s0-1 0 0v0zm36 1h1-1zm-207 0h0zm142 0h1-1zM54 46v-1 1c0 1 0 0 0 0zm243 1c0-1 0-1 0 0 1 0 0 0 0 0-1 0-1 0 0 0zm40-2v0zM71 44c0-1 0-1 0 0v0zm227 1h1-1zm69 0h0s-1 0 0 0zm-63-1h1-1zm18 0v-1 1c0 1 0 0 0 0zm40 0h0c-1 0-1 0 0 0zm-52 0h1-1zm93-1l1-1 2 1-2 1-1-1zm6 0l2-1 1 1-1 1-2-1zm7 0l1-1 2 1-2 1-1-1zm6 1c0-2 0-2 2-2l2 1c0 1-3 2-4 1zm-106 0h1-1zm-3-1h1-1zm23 0v-1 1zm30 0h1-1zM4 42v0zm297 1h1-1zm39-1v-1 1zm-7-1v-1 1zm-11 0v-1 1c0 1 0 0 0 0zm-218 0v-1c-1 0-1 0 0 0v1zm7-1h1v1l-1-1zm192 1h1-1zm61 0h1c1 0 0 0 0 0h-1zm-53-1h2c1 1 0 1-1 1l-1-1zm25 0v-1 1c0 1 0 0 0 0zm24 0h1l-1 1v-1zM56 39v0zm262 1h0zm-188 0h0zm181-1zm54 0h4l-2 1c-2 0-3 0-2-1zm-64 0h1-1zM3 38h0zm320 0v-1 1zm43 0h1c1 0 0 0 0 0h-1zm-69 0zm39-1v0zm3-1c0-1 0-1 0 0v0zm21 2h1-1zm-46-1h1-1zm42 0h0zm-243 0v-1h1v1c1 0 1 0 0 0h-1zm220-1s0-1 0 0v0zm24 1h1-1zm-44-1h1-1zm53 0h1-1zm-61 0h1-1zm-9 0h1c1 0 0 0 0 0h-1zm27-1h-14c-14 0-14 0 0 0s15 0 14 1v-1zm214 0c0-1 0-1 0 0zm-210 0h1c1 0 1 0 0 0h-1zm34 0c-9 0-9 0 0 0a56 56 0 0 1 9 0h-9zm-27 0c1 0 0 0 0 0s-1 0 0 0zm12 0h1-1zm201-2c-1 0-1 0 0 0h1v1l-1-1zM53 32l1 1-1-1zM7 31v0zm50 0l-1-1 1 1c0 1 0 1 0 0zm201-1l1-1v1l-2 1 1-1zm43 0l-3-1 3-2 3-1h4c1 0 4 3 3 4h-10zm34 0c-4-1-2-4 2-4h2l1 1 4 1c1 2-5 3-9 2zm198 0h1c0-1 0 0 0 0h-1zm-21-1h0zm-265-1h1v1l-1-1zm304 1l1-1 1 1h-2zM7 28v-1 1c0 1 0 0 0 0zm348-1c-5 0-7-1-5-3l2-1 3-1h2c1-1 2-2 4-1h2l4 2v1c3 2-5 4-12 3zm-28-2c0-1 0-1 0 0v0zM58 25v-1 1c0 1 0 0 0 0zm262 0v-1 1c1 0 1 0 0 0zm-165-1h1-1zM13 22l1-1-1 1h-1 1zm309 0h0c-1 0-1 0 0 0zm-60-1h1v1l-1-1zm-145 0h0zm208 0l1-1-1 1h-1 1zm213-1l-1-1c-1 0-1 0 0 0l1 1c0 1 0 0 0 0zm-28-1l1 1c1 0 1 0 0 0l-1-1zM1 18v-1 1zm134 1h3-3zm192-2v0zm-185-1h1v1l-1-1zm5 0v-1 1c0 1 0 0 0 0zm191-1c-3-1-3-1-2-2l1-1 4-2h2l2 1h2c3 0 6 3 5 4h-14zM60 14h1v1l-1-1zm-21-2c-1-1-1-1 0 0l1 1-1-1zm-16 0h0v0zm298 1h1-1zm6-1v-2c0-2 0-2 0 0s0 2 2 2 2 0 0 0h-2zM21 10l1-1-1 1-1 2 1-2zm20 0l-1-1 2 1h-1zm108 1l1-2v1l-1 1zm13-1V9l1 2-1-1zm75-1l2-1-1 1-2 2 1-2zM31 9h0s-1 0 0 0zm22-2c-1 0-1 0 0 0l1 1-1-1zM17 8c0-1 0-1 0 0 1 0 0 0 0 0-1 0-1 0 0 0zm3 0h0s-1 0 0 0zm26-3h1-1zm200 0h1-1zm3 0h0z"/><path fill="#e5a64a" d="M398 77l1-1v3l-1-2zM57 78c0-1 0-1 0 0l1 1-1-1zm-1-2v-1 1c0 1 0 0 0 0zM4 73c-1 0-1 0 0 0l1 1-1-1zm54 0h1v1l-1-1zM9 72c-1 0-1 0 0 0v0zm-5 0h0c-1 0-1 0 0 0zm296-15h0s-1 0 0 0zm65-5h0zm2-5c1 0 0 0 0 0s-1 0 0 0zm-227-7l7-14 4 2-9 13-2-1zm23-3l-3-5c-1-3-1-3 1-4s2-1 3 3a285 285 0 0 0 3 9c-1 1-2 1-4-3zm154 3h0zm46 0h0zm-60-2h0zm-51-10l-4-7-3 5c-3 5-3 5-4 4l-4-9c-3-7-3-7-1-9 9-15 33-2 25 14-1 3-6 7-7 7l-2-5zm69-2c-1-2-1-2-3-1h-1c0-3 0-3-2-3s-2 0-1-1c1-2 1-2-1-3v-1c2-1 2-2 0-5h2c2 0 2 0 1-2 0-2 1-2 3 0l2-1c1-2 1-2 2 0h3l1 1c0 2 0 2 2 2s2 0 1 2v2c2 1 2 1 0 2v3c1 1 1 1-1 1s-2 0-2 2 0 2-2 1c-1-1-1-1-2 1l-1 2-1-2zm3-4c3-2 4-7 1-8-5-4-11 3-6 7 2 2 3 2 5 1zM60 26h1-1zm92-3c-5-2-6-9-2-13 7-7 18 1 13 10-2 4-7 5-11 3zm-19-5c0-1 8-4 9-3v2c1 2-8 3-9 1z"/><path fill="#1680c3" d="M123 82c-18-3-31-10-31-19-1-6 4-8 13-6 15 4 22 3 33-3 14-8 22-9 31-5s12 17 5 23c-8 7-32 12-51 10zm12-4c9-1 19-5 21-7h-3c-18 7-43 5-56-4-5-4-4-2 1 2 9 7 23 10 37 9z"/><path fill="#776e74" d="M207 80l8-2a1687 1687 0 0 0 46-5h-30c-27 1-33 1-33-1l6-14 8-23 4 6v1c-1 1-2 7-1 8l2-4a1808 1808 0 0 1 12-29c2-4 1-4 7 9a1362 1362 0 0 0 11 28c6 12 5 5-1-12-2-6-2-6 0-10s2-4 3-1a1189 1189 0 0 1 11 17c-1-1 1-5 1-5l5 11a2243 2243 0 0 0 9 25h-29a1869 1869 0 0 0-39 1zM59 79c-3-1-3-5 0-5l7 3-7 2zm341-2c0-2 0-2 2-2l6-2 3-2 1-1-1-1v-1-2l1-1c1-1 1-3-1-3l-1-2c-2-3-5-6-8-7-2-1-2 0-2-8 0-6 0-6 14-6s14 0 14 20 0 20-14 20-14 0-14-2zm19-7l-2-1-1 1 1 1 2-1zm7 0l-2-1-2 1 2 1 2-1zm-7-7l-2-1-1 1 1 2c2 0 2 0 2-2zm7 0l-2-1-1 1 1 2c2 0 2 0 2-2zm-14-6l-1-2c-2 0-2 0-2 2l2 1 1-1zm7 0c0-2 0-2-2-2l-1 2 1 1 2-1zm7 0c0-2 0-2-2-2l-1 2 1 1 2-1zm-20-7l-1-1-2 1 2 1 1-1zm6 0l-1-1-1 1 1 1 1-1zm7 0l-1-1-2 1c0 2 3 2 3 0zm7 0l-2-1c-2 0-2 2 0 2l2-1zm-20-7l-2-1-1 1 1 1 2-1zm6 0l-1-1-2 1 2 1 1-1zm7 0l-2-1-1 1 1 1 2-1zm7 0c0-2-3-2-4 0l2 1 2-1zM6 75l-3-3h6c1 2-1 4-3 3zm36-11v-3l5 1-5 2z"/><path fill="#55b031" d="M28 80c-14-2-17-5-7-8 4-1 4-1 5 1 2 4 2 3 2-4 0-5 0-5-2-8-2-2-2-3-1-3 1-1 1 0 2 1 2 1 2 1 2-2s-1-4-4-2c-5 2-13-1-13-6l-2-2c-4-3-4-9-1-13l1-4c0-5 4-11 9-11l2-2c2-8 13-11 19-4 1 2 1 2 3 1 8-2 14 8 10 15v4c3 3 4 7 2 10l-1 4c0 7-6 11-13 8h-4c-1 1-1 4 1 3l1-1c1 1 1 1-1 3-3 4-2 11 3 11 7 1 12 4 9 6-2 2-14 4-22 3zm480 0c-8-1-13-4-10-6 2-2 3-2 5-1 1 2 1 2 1-5l-8 1 1-7c3-7 3-7 0-6-1 0-1-1 2-9l2-9 2-6 2-7c1-2 1-2 5 6l2 8v2l-2 9c-3 6-3 6 0 6 2-1 2-1-1 7s-3 8 0 8c6-1 10-1 11 2 2 3 3 3 3-2 0-6 0-5-6-4l-6 1 3-9 2-8h-3a607 607 0 0 1 6-23c-2 0-2 0 0-4l4-9c2-7 2-7 5 0l4 9 1 6c-2 0-2-1 3 13 4 13 4 13 2 12-2 0-2 0 1 6l2 6h-7c-5-1-4-1-4 4l2 1c13 4-7 10-24 8zm-109-3c0-2 0-2-3-3-8-2-10-7-7-13 4-9 15-9 19-1 3 7 1 12-6 14-3 1-3 1-3 3v0zm-104 0c0-4-1-4 13-5 9-1 9-1-3-2-10 0-10 0-10-2s-1-2 10-3c14-1 14-1 0-2-11 0-10 0-10-2s0-2 12-3h9c1-1-1-1-8-1-12 0-13 0-13-2 0-1 1-2 15-2l7-1a173 173 0 0 0-22-1v-2h11c15-1 16-2 3-2l-14-1 12-2c16 0 16-1-1-1l-11-1 5-1 19-1-13-1c-10 0-12 0-11-1h11l13-1-9-1c-20-1-20-1-1-1h14a1448 1448 0 0 1-5 43c-1 4-23 2-23-1zm24 2a4427 4427 0 0 1 6-34c2-11 2-10 3-10l1 22c0 23 0 23-5 23l-5-1zm12-1a1746 1746 0 0 1 3-43c2 0 1 0 2 6l2 17c3 25 4 22-3 22-4 0-4 0-4-2zm11 1l-2-41a9523 9523 0 0 0 12 37c1 5 1 5-5 5l-5-1zm11 0a189 189 0 0 1-4-22c-4-24-4-22-2-22 1 0 1-1 9 22a20987 20987 0 0 0 8 22h-11zm11-2a628 628 0 0 1-12-42h18c1 1 0 1-6 1-11 1-11 1-1 2h7c1 1 0 1-2 1l-12 1 7 1 8 1-7 1c-6 0-7 0-6 1l6 1 7 1-10 1-2 1 6 1c5 0 6 0 5 2l-5 1c-7 0-7 1 1 2 5 0 5 0 5 2s0 2-6 2-5 0 2 1c4 0 4 0 4 2s-1 2-4 3c-6 0-5 0 0 1 4 0 4 0 3 3 0 2 0 2-3 3-4 0-4 0 0 1 4 0 4 0 3 4 0 5-4 6-6 1zm80 2c-4-2-4-8 0-11l2-1c1-3 4-4 7-4 2 1 2 1 4-1 4-3 10-2 12 3l1 1c7 0 9 10 3 12l-29 1zm112-7c-10-1-13-3-8-5 3-1 4-1 5 1 2 3 2 3 2-3 0-5 1-5-5-4-5 1-5 2-2-6 2-6 2-8 1-7-2 0-2 1 1-10l2-9 1-7 3-7c1-2 1-2 3 2a1320 1320 0 0 0 5 13c-2 0-2 0 2 11a728 728 0 0 1 1 13c4 8 4 8-1 7s-5-1-5 2c0 2 0 2 4 3 8 2 7 5-2 6h-7zM47 70c-4-2-4-3 1-4 2-1 3-3 3-7l1-2c3-2 5-5 6-9l1-5c1-3 0-7-1-10l-1-4 1-3c0-2 0-2 1-1l3 1c5-1 9 6 7 11v2c2 1 2 6 1 9l-1 2c0 6-4 8-9 6h-3c-2 2-1 10 1 10l5 2c-1 2-11 3-16 2zm-37-1c-3-1-2-3 1-3l1-4c1-3 1-3-1-2-3 2-6 1-7-2l-2-3c-2-2-2-4-1-7l1-3c0-3 2-5 2-3 0 3 1 5 3 7l2 3c1 3 3 5 5 6 3 1 3 1 3 4 0 4 0 4 3 5 5 1-4 4-10 2zm100-13c-5-1-8-2-7-4l3-1c1 2 2 1 2-1s0-2-4-2c-3 1-3 1-1-4v-7l3-8 1-5c2-5 2-5 2-3a151 151 0 0 0 3 8v1l-1 5-1 5c2 0 2 0 0 5-1 5-2 5 3 5 4-1 4 0 5 1 2 2 2 2 2-1 0-4 0-3-4-3-4 1-4 1-2-5 2-5 2-5 0-5l2-8c2-7 2-8 1-8a63 63 0 0 1 4-11h1l1 3 1 3 2 4 1 3c-1 0 1 9 4 16h-1v4l2 5-3-1c-4-1-5 0-4 2l1 2c7 3-5 7-16 5zm432-5l-1-2-2-8-1-6c2 0 2 0 0-5-2-4-2-4-1-7v-4l1-3 2-7c2-3 2-3 5 4l2 6v2 9l-1 3 2 1a26886 26886 0 0 0-6 17zM3 37l-1-3-1-3c-1-2-1-5 1-7v-3c-2-5 1-10 8-10l2-1c2-2 7-3 10-2l-1 3-3 3c0 1 0 2-3 3-5 2-8 7-8 12l-1 4-2 5-1-1zm509-8l-1-3v-3-3l4-12c0-1 1-1 2 3 2 5 2 3-1 11s-3 8-4 7zM59 21l-3-3c-2-4-6-7-11-7-4 0-6-2-3-4 4-3 10-2 13 3l1 2c4 1 5 2 6 5 2 4 0 7-3 4z"/></svg>