<svg xmlns="http://www.w3.org/2000/svg" viewBox="0 0 509.8 455.7"><path fill="#789fcf" d="M267.4 203.2l-.7-1.6c-.2-1-1.4-2.2-2.6-2.5-.5-.1-1.4.2-2.8.9l-2 1-1-.9c-1.2-1-1.3-1.7-.4-2.8 2.1-2.7.8-4.6-3.6-5.5-.8-.2-.9-.3-.9-2 0-1.8 0-1.7 2.1-2.2 2-.4 2.4-1 2.4-2.8 0-1.2-.2-1.8-.8-2.6-1-1.4-1-1.8.3-3l1.1-1.1 1.5 1c1.7 1.2 2.3 1.2 3.7.3.8-.6 1.2-1.1 1.4-2 .5-2.7.6-2.8 2.5-2.7l1.7.1.4 1.5c.8 2.7 2.9 3.6 5.3 2 1.7-1 2.5-1 3.4 0 .8 1 .7 2-.3 3.3-.8 1-.8 1.6 0 3 .6 1 1.1 1.3 3.4 1.9 2.4.6 2.5 3.3.3 3.9-.6 0-1.4.3-1.8.4-1.7.4-2 3.2-.8 5 1 1.5 1 2.4 0 3.4s-1.3 1-3-.2c-1.6-1-2.1-1-3.8.2-.8.6-1 1-1.2 2.3-.1.8-.4 1.7-.6 1.9-.4.6-2.6.5-3.2-.2zm3.7-9a5.8 5.8 0 0 0 2.5-7.5c-1-2.3-2.5-3.2-5-3.3-2.6-.2-3.8.5-5.3 2.7-3.4 4.8 2.7 11.2 7.8 8.2zM95.4 202A22.4 22.4 0 0 1 77.6 183l-.2-.9H49.1l-.4.8c-.9 1.9-4.2 2.7-6.2 1.5a6 6 0 0 1-2.2-3.7 6 6 0 0 1 2.2-3.8c2-1.2 5.3-.3 6.2 1.5l.4.8h31.5v2.4c0 6.6 4.4 13 11 16.2a23 23 0 0 0 6.7 1.8c1.2.1 1.2.2 1.2 1.6 0 1.4 0 1.4-1 1.4-.6 0-2-.2-3.1-.5zm194.7-8.8c-.8-.6-.9-.7-1.4-.2-1.2 1.1-3 .4-2.7-1 .1-.9 0-1-.5-1-1.8 0-2.6-1.4-1.4-2.6.5-.6.4-.7-.6-1.7l-1-1.1.7-.4 1.8-.6c.8-.2 1-.4 1-1.3.3-1.4 1.2-1.7 2.5-1 .9.6 1 .6 2 0 1.2-.8 2.3-.2 2.3 1.3 0 .9.1 1 1 1 1.7 0 2.3 1.6 1 2.5-.7.6-.8.7-.3 1.2 1.1 1.4.7 2.8-.8 2.8-.8 0-.9 0-.9 1 0 .8-.2 1.1-.8 1.4-1 .5-.9.5-1.9-.3zm2.5-3.5c.6-.1.8-.3.5-.6-.4-.7-.4-2.2 0-2.5.2 0 0-.4-.7-.7-.7-.3-1-.8-1.2-1.4-.1-.7-.3-.8-.6-.6-.7.5-2.2.4-2.5 0 0-.2-.4.1-.7.7-.4.8-.8 1.1-1.4 1.2-.8 0-.8.1-.3 1 .4.9.4 1 0 1.8-.5.7-.5.7.4 1 .5.2 1.1.7 1.3 1.2.3.7.5.7 1.2.5a2 2 0 0 1 1.6 0c.8.5.9.4 1.2-.5.2-.6.5-1 1.2-1.1zm-5.2 0c-1.2-1.2-.9-3.6.6-4.3 1.4-.7 2.2-.6 3.2.4 1.1 1.2 1.2 2.5.3 3.7-.9 1-3.1 1.2-4.1.2zm2.7-.8c.8-.4.6-2-.3-2.3-1.4-.3-2.4 1.1-1.4 2 .4.5.9.6 1.7.3zm-197 .4c-1.6-1.1-2.2-3-2.2-7.8 0-7.6 1.4-10 5.5-9.1 2.7.6 3.2 2.1 3.2 9 0 6.3-.9 8.1-3.8 8.5-1.3.1-1.7 0-2.7-.6zm4.4-1.7c.7-.8.7-1 .7-6 0-5.8-.3-7-2-7.9-1.6-.7-2.8-.1-3.3 1.8a33 33 0 0 0-.5 10c.7 3 3.3 4 5.1 2zm6.5 1.5c0-.6.2-.7 1.4-.7h1.5v-14.3l-.9.2-1.4.5c-.5.2-.6 0-.6-.4 0-.7 2.5-2 3.9-2 .6 0 .6.2.6 2v14h1.4c1.2 0 1.5.1 1.5.7s-.3.6-3.7.6c-3.5 0-3.7 0-3.7-.6zm132.2-2.4c-2.4-1-3-1.8-2.8-3.2 0-.7.3-2 .6-2.7.4-1.3.4-1.3-.7-2.5-1.4-1.4-2-1.6-4.8-1-3 .5-3.6 0-4.5-2.8-.8-2.7-.6-3.2 2.3-4.7l2-1-.3-1.9c-.2-2.2-.6-2.7-2.6-4-2-1.1-2.3-2-1.1-4.4 1.3-2.7 1.9-3 4.5-2.1 2.4.8 3.2.5 4.4-1.2.8-1.2.9-2.4.4-4.4-.5-1.9 0-2.8 2-3.6 3-1.3 4.3-.9 5.4 1.7.3.8.8 1.5 1.2 1.7 1.6.9 4.4 0 5.4-1.5 1.7-2.8 3-3.2 5.7-1.7 2 1.2 2.3 1.6 1.8 3.5-.9 3-.8 3.2.1 4.3 1.3 1.3 2.7 1.7 5 1.2s3-.2 3.8 1.3c1.6 3.2 1.2 4.4-1.9 6-1.4.9-1.5 1-1.6 2.6 0 2 .3 2.7 2.4 4 2.4 1.6 2.7 2.4 1.4 4.8-1.3 2.8-2.5 3.2-5.8 1.8-1.2-.5-2.2 0-3.3 1.5-.8 1.2-.8 1.3-.4 3.5.5 3 .2 3.7-2.2 4.6-1 .3-2 .6-2.5.6-.8 0-2.4-1.6-2.4-2.3a3 3 0 0 0-.7-1.3c-1.3-1.6-4.9-.9-6.2 1.3-1.5 2.4-2.5 2.8-4.6 1.9zm3-2.3c1.1-1.9 2.8-3 5-3.2 2.4-.3 3.6.4 4.7 2.6.7 1.4 1 1.7 1.6 1.7 1.4 0 3.1-1 3-1.7l-.3-2.9-.2-2.2 1.5-1.7c1.8-2 2.5-2.2 4.9-1.4 2.5.9 2.6.9 3.5-1 1-1.8 1-1.8-1.3-3.3-2-1.4-2.7-2.6-2.7-5.1 0-2.1.6-2.9 3-4 1.6-.8 1.8-1.5 1-3.4l-.4-1h-3.2c-3.1 0-3.3 0-4.5-1-1.8-1.4-2.2-2.8-1.5-5 .7-2.2.5-2.6-1.4-3.4-1.5-.7-1.5-.7-2 0l-1.4 1.7c-1.2 1.6-2.5 2.3-4.7 2.3s-3-.6-4.3-3.1c-.9-1.7-1-1.7-3.6-.7-1.2.5-1.2.5-.6 3 .3 1.7.3 2-.5 3.6-1.3 3-3.3 3.7-6.3 2.7-1.8-.7-2-.5-2.9 1-.9 1.8-.9 1.8 1.3 3.3 2 1.4 2.5 2.2 2.6 5.2.1 2.1-.4 2.9-3 4-1.7.9-1.8 1-.7 3.5.5 1.2.8 1.2 3.3.7 2-.4 3.3 0 5 1.5 1.7 1.4 2 2.4 1.1 4.8-.7 2.1-.7 2.1 1.2 3.2 2 1 1.8 1 2.8-.7zm2.5-9.4a8.7 8.7 0 0 1-5.8-10.6c2.4-8 14.4-8.1 16.8 0a8.7 8.7 0 0 1-4.2 10c-1.5.8-5.2 1-6.8.6zm6.9-2.4c5-3.4 3.3-11.2-2.6-12.7-6.8-1.7-11.7 6.6-7 11.7 2.2 2.3 7 2.9 9.6 1zm-35 9.7c-.8-.6-1.2-.6-47.4-.6-37 0-46.6 0-46.7-.4l-.6-3a19.2 19.2 0 0 0-18.5-16l-1.8-.2V57H167v1.4l.2 1.5h-65.8v99.5l1.2.2a22.2 22.2 0 0 1 19 16.8l.6 2.4h45.2c44.7.1 45.1.1 46-.5 2-1.4 4.5-.3 4.5 2 0 2.4-2.7 3.7-4.4 2.1zm67.4-1.1c-.6-.4-.7-.8-.6-2 0-2.3-.6-3-3-3-2 0-2.2-.2-2.2-1.7 0-.6.3-1 .9-1.1 1.9-.8 1.9-2.5 0-4.2l-1.3-1.2.6-1c.5-1 .5-1 2-.8 2 .3 3-.8 3-2.9 0-1 .1-1.6.4-1.9.6-.5 2-.7 2-.2 0 .1.4.6.9 1 1.1 1.4 2.6 1.3 4-.2 1-1.2 1.4-1.3 2.5-.6.6.5.7.7.5 2-.3 2 .8 3 3 2.8 1.4-.2 1.7-.1 2 .4.6 1.2.4 1.9-.8 2.6-1.7 1-1.6 2.8 0 4.1 2 1.6.8 3.7-1.4 2.9-1-.4-1.1-.4-2 .7-.9.9-1 1.2-.8 2.2.4 2.4-1.4 3.1-3.2 1.2-1.4-1.5-2.3-1.5-4.1.1-1.8 1.5-1.5 1.4-2.4.8zm7-6.4c2.6-1.7 2.4-5.9-.3-7.3-3-1.5-6.4.4-6.4 3.6 0 3.5 3.7 5.6 6.6 3.7z"/><path fill="#f2a144" d="M167.8 60.3c-1-1-1-2.7-.1-3.8.8-1.1 2.7-1.2 4-.2.7.6 1.2.6 156.1.6h155.4V6.7H228.9l-.5.9c-2.2 3.6-8 1.8-8-2.5 0-4.4 5.8-6.2 8-2.6l.5 1h257.5v27.1c0 15 0 27.6-.2 28.2l-.2 1H329c-86.5 0-157.2.1-157.2.2 0 .4-1.5 1-2.4 1-.4 0-1.1-.3-1.6-.7z"/><path fill="#c8728c" d="M191.2 455.2l-1-1 1 1c1 .8 1.3 1 1 1l-1-1zm3.4-.7a7 7 0 0 1 1.2-1.1s-.3.5-1 1.1a7 7 0 0 1-1.2 1.1l1-1.1zm-1.8-2.4a9 9 0 0 1 1.4-1.3l-1 1.3a9 9 0 0 1-1.5 1.3l1.1-1.3zm6.4-2a9 9 0 0 1 1.4-1.2l-1 1.3a9 9 0 0 1-1.5 1.3l1.1-1.3zm-2-2.2a9 9 0 0 1 1.5-1.2l-1.1 1.2a9 9 0 0 1-1.4 1.3l1-1.3zm-71.8-.8c.2-.1.5-.1.8 0 .2 0 0 .2-.4.2-.5 0-.7-.1-.4-.2zm78.3-1a9 9 0 0 1 1.4-1.4L204 446a9 9 0 0 1-1.4 1.3l1-1.3zm-57.5-.3zm-23.3-1.4c0-.4.1-.6.2-.4v.8c-.1.2-.2 0-.2-.4zm79.3-3.1l-1-1.2 1.1 1.1c1.1 1 1.4 1.3 1.1 1.3l-1.2-1.2zm-6.2-1.8l-1.3-1.3 1.4 1.2 1.3 1.4c0 .2-.2 0-1.4-1.3zm1.6-2.5l-1.3-1.4 1.4 1.3c1.2 1.2 1.5 1.4 1.2 1.4l-1.3-1.3zm-6-1.5l-1.2-1.2.7-.6c.7-.6.7-.6.2 0-.6.6-.5.7.6 1.8a5 5 0 0 1 1 1.2s-.7-.5-1.3-1.2zm1.8-2.4l-1-1 1.1 1 1 1c0 .2-.2 0-1-1zm-66-64c.3-.5 3.3-.5 55-.5s54.7 0 55 .5c.4.5.4.5 0 .2-.3-.3-11.8-.4-55-.4a1059.4 1059.4 0 0 0-55 .2zm-4.8-1.8c0-.4 0-.6.2-.4v.8c-.1.2-.2 0-.2-.4zm119.4-.2c0-.5 0-.7.1-.4v1l-.1-.6zM124.6 328a386.2 386.2 0 0 1 0 0zm141.7-4.7h1.1c.3.1.1.2-.5.2s-.9 0-.6-.2zm-1.4-2.5c.2-.1.6-.1.8 0 .2 0 0 .2-.4.2-.5 0-.6-.1-.4-.2zm-11.3-4.7l-.6-.7.7.6c.7.6.8.8.6.8l-.7-.7zm11.5-8.8h3.5l-1.9.1h-1.6zm-133.7-3l.7-.6-.4.7-.8.6s.1-.3.5-.6zm142.9-2.3c0-.6 0-.7.2-.4v1c-.1.1-.2-.1-.2-.6zm-15.4-.2c0-.4.1-.6.2-.4v.8c-.1.2-.2 0-.2-.4zm-140.1-2.9c0-.4 0-.6.1-.4.1.2.1.6 0 .8l-.1-.4zm140.2-2.2c0-1.2 0-1.6.1-1v2c0 .6-.1.1-.1-1zm15.3-.5c0-1.2.1-1.7.2-1v2.2c-.1.6-.2 0-.2-1.2zm-241.7 1.2zm98.8-.7c-.4-.5-.5-.6-.1-.8.2-.2.3-.2.1 0 0 .1 0 .5.3.8l.4.6-.7-.6zm84.7 0c0-.5 0-.6.1-.4.1.2.1.6 0 .8l-.1-.4zm-104.6-3v-.8c.2.5.2 1.2 0 1.6v-.9zm-79.7.8zm100.8-2.3c0-.8 0-1.1.1-.7v1.4l-.1-.7zm-17.5-4.4h1.3c.3.1 0 .2-.7.2s-1-.1-.6-.2zm151.2-.6h1l-.6.1c-.5 0-.7 0-.4-.1zm-16-2.8l-.5-.7.7.6.7.8c0 .2-.3 0-.8-.7zm-4.3-1.7h.8c.2.1 0 .2-.4.2s-.6-.1-.4-.2zm40.6 0h.8c.3.1 0 .2-.4.2s-.6-.1-.4-.2zm-13.9-2c0-.6 0-.9.2-.6v1.1c-.1.3-.2.1-.2-.5zM120 261l.2-13.3v13l-.1 13.4c-.2.2-.2-5.7-.1-13zm148.7.3c-1.3-.2-2.6-.8-4.5-2-2.5-1.4-2.8-1.5-4.8-1.5s-2.1 0-2.1.6-.2.6-7.7.6h-7.7l.1-11.4v-11.4h8c7.8-.1 8-.2 9.3-1 3.2-1.9 5.2-5 7.9-12 .9-2.4 1.9-4.5 2.1-4.9 1.2-1.2 4-1 5.9.6 2.4 2 2.8 8 .8 13.4-.2.3.5.4 3.3.6 4.9.2 7 1.3 8.8 4.5 1.6 3 .5 15.8-1.7 20-.8 1.5-2.5 3-4 3.5a67 67 0 0 1-13.7.4zm13.1-3.5c1.6-.7 2-1.5 3-5.3 2-9 1.7-13.6-1-15.7-.9-.6-1.5-.6-7-.7-3.4 0-6-.2-6-.3l1-2c3.2-5.3 3.3-13.2.2-13.2-.5 0-1 1-2.4 4.6-2.2 5.6-3.6 8-5.6 10.1a20.5 20.5 0 0 1-6 4c-.7.3-.7.3-.7 7.7v7.5l2.5.1c2.5.2 4.3 1 7.2 3 1.9 1.2 12 1.4 14.8.2zm24.2-6c-.5-.2-1.4-1.8-1.4-2.7 0-.4.5-1.1 1-1.6 1-1.1 2.7-1.2 3.8-.2.8.8 78.5.8 81.6 0 3.3-.7 6.3-2.5 9-5.2 3.6-3.6 5-6.8 6-13.2l.1-1.5H501l1-1.3c.7-.9 1.5-1.4 2.3-1.6 1.2-.3 1.5-.3 3.3.4 2.3.8 3 4.8 1.1 6.8-1.9 2.1-5.6 1.8-6.9-.5l-.5-1h-92.6l-.2 1.5a22.4 22.4 0 0 1-16.5 18.4c-2.3.6-3.7.6-42.1.6-39.3 0-39.7 0-40.5.7a4 4 0 0 1-3.4.4zm-160.8-2zm-23.5-2.3c.1-.4 5.4-.5 45.2-.5H212l-45 .1a719.7 719.7 0 0 0-45.3.4zm257.2-11.2c-1.7-1.2-2.2-3-2.2-7.9 0-7.6 1.4-10 5.4-9 2.7.5 3.3 2.2 3.2 9.1 0 6.1-.8 8-3.7 8.3-1.4.2-1.8.1-2.7-.5zm4.4-1.8c.7-.7.7-1 .7-6 0-5.7-.3-7-2-7.8-1.7-.8-2.9-.2-3.4 1.7a33 33 0 0 0-.4 10c.7 3 3.2 4.1 5 2.1zm6.5.6c0-3 .7-4.6 3.4-7 2.9-2.7 3.3-3.3 3.3-5 0-2-.8-2.5-3.3-2.6-2 0-2 0-2.1.9-.2 1.5-1 1-1-.5.1-1.3.2-1.4 1.6-1.6 3.4-.6 5.8.6 6.2 3.1.3 2-.6 3.9-3.2 6.1-2.7 2.4-3.3 3.5-3.3 5.4v1.5h2.5c2.5 0 2.6 0 2.6-.8 0-.6.2-.8.6-.8.6 0 .7.2.7 1.4v1.4h-8zm-25.8-7.3c1-9.8 8.3-17.7 18-19.6l2.8-.6v-25.2h-38.3c-38-.2-38.4-.2-39.2.5-1.4 1.1-3.4.8-4.1-.7-.7-1.3-.6-2.1.5-3.2 1-1.1 2.4-1.2 3.6-.3.8.7 1.3.7 40.7.7h39.8v31.2l-2.8.2a19 19 0 0 0-16 10.6 20.1 20.1 0 0 0-2.1 7.3c-.2 1.2-.2 1.2-1.7 1.2h-1.4z"/><path fill="#8fc360" d="M259 392.4c0-.5 0-.7.1-.4v1c-.1.2-.2 0-.2-.6zm24-3c0-.8 0-1.1.1-.7v1.4l-.1-.7zm-14.4-1.3c0-1.1 0-1.6.1-1v2c0 .6-.1.1-.1-1zm19.6-5.8zM257 381l-1-1 1 .9c.7.5 1.2.8 1.5.6.2-.1.3 0 .2.2-.4.5-.7.4-1.7-.7zm26.6.7c-.2-.2 0-.6.3-1 .6-.4.6-.4.2.1-.6.8-.2 1.1.5.5.5-.4.5-.3.1.2-.5.6-.8.7-1.1.2zm-4.3-4zm-22 2.3l-1-1 1.1 1c1 .8 1.2 1 1 1-.1 0-.6-.4-1-1zm28.7-.3l1-1 1-1-.9 1c-.9 1-1.1 1.2-1.1 1zm-36.5-1.8l-1.1-1.2 1.2 1.1 1.2 1.2c0 .3-.3 0-1.3-1zm4.6-.1l-1-1 1.1.9 1 1c0 .3-.2 0-1-1zm32.7-.3a9 9 0 0 1 1.4-1.2l-1.1 1.2a9 9 0 0 1-1.4 1.3l1-1.3zm-33-1.3l-1.3-1.4 1.4 1.3c1.3 1.2 1.5 1.4 1.3 1.4l-1.4-1.3zm35.4-.1l.9-.8-.6.8c-.4.4-.8.8-1 .8l.7-.8zm-41.2-2.9c0-1.6 0-2.3.1-1.5v1.5zm3.9 2l-.6-.7.7.6c.7.6.8.8.6.8l-.7-.7zm42.2-3.7a42.7 42.7 0 0 1 0 0zm-36.6 1.3l-1.8-1.8 1.9 1.7c1.7 1.7 2 2 1.7 2l-1.8-1.9zm33.2.8c.2-.9.2-.9.3-.3.1.5 0 1-.1 1-.2.3-.3 0-.2-.7zm-19.3-.6c-.3-.5 0-.6.4 0 .3.2.3.4.1.4l-.5-.4zm2.1-.7c.4-.5.8-.8 1-.8l-.7.8-.9.8.6-.8zm12.2-.7l.9-.8-.6.8c-.4.5-.8.8-1 .8l.7-.8zm3.6-.2l-.6-.7.7.6.7.7c0 .2-.2 0-.8-.6zm-13.1-.1c0-.3 0-.4.1-.3.1 0 .4 0 .7-.3.3-.2.3 0-.1.4-.7.8-.7.8-.7.2zm-22.3-.7h.8c.2.1 0 .2-.4.2s-.6-.1-.4-.2zm21.6-.6c.2-.4.4-.7.5-.6.1 0 0 .4-.4.7-.5.5-.6.5-.1-.1zm13.8-5.1a83.7 83.7 0 0 1 0 0zm-41.3 1a32.3 32.3 0 0 1 .1 1.9v-2zm50 1.9c-2.5-2.5 1-6.2 3.7-4 .9.6 1.3.6 41 .6H383v-26.8l-1.5-.3a22.3 22.3 0 0 1-17.7-20.2l-.2-1.6h3.1v1.2a19 19 0 0 0 16.5 17.8l2.7.3v14c0 7.8 0 15.2-.2 16.3l-.2 2.2H344c-40.6 0-41.5 0-42.2.6-1.2 1-2.8.9-3.7-.1zm-20.8-1.5a9 9 0 0 1 1.4-1.2l-1.1 1.2a9 9 0 0 1-1.4 1.3l1-1.3zm-8.5-1c-.3 0-.3-.2-.2-.2.2 0 .6.1.8.3.3.2.4.3.2.3a2 2 0 0 1-.8-.3zm-3.5-.8l-.8-.9.9.8.8.9c0 .2-.2 0-1-.8zm-8.3-.4c0-.4 0-.6.3-.6.1 0 .2.2 0 .6 0 .4-.1.6-.2.6l-.1-.6zm20.4-.1c0-.2.3-.4.5-.4.4 0 .4 0 .1.4l-.4.4-.2-.4zm7.6-.1c-.1-.3 0-.7.1-.9.2-.2.3 0 .3.6 0 1-.1 1-.4.3zm-4.7-2.2c0-.2-.2-.5-.5-.5-.5-.1-.5-.2 0-.3.6-.2.7 0 .8.5l-.1.8c-.1 0-.2-.2-.2-.5zm4.9-1.1c0-.5 0-.6.1-.4.1.2.1.6 0 .8l-.1-.4zm-6-.3c-.1-.2-.3-.3-.5-.2-.2.1-.3 0-.3-.1 0-.5.5-.5 1 .1l.2.5-.4-.3zm-8.7-1.8c-.1-.2-.7-.5-1.2-.6l-1-.1h1c.8 0 1.2 0 1.4.5.4.8.2 1-.2.2zm-3.6-.5c-.2-.3-.3-.7-.3-1 0-.4 0-.4.2 0l.7 1c.3.1.3.3.2.3l-.8-.3zm7.2 0s.3-.1.8 0l1 .2c0 .3-1.6.1-1.8-.1zm-3-1c-.3-.3-.7-.6-1.1-.7h.6c1.6 0 2 .2 1.3.7-.4.3-.5.3-.8 0zm-3.7-.8c.4 0 .8-.4.9-.7.1-.4.1-.3 0 .1 0 .5-.2.7-.8.7-.7 0-.7 0 0 0zm-.1-2.4c.1-.5 1.2-.6 1.2-.1 0 .2-.3.4-.7.4-.3 0-.6-.1-.5-.3zm-6.7-1.2l.8-.7-.4.7-.8.6.4-.6zm20.5-.4l-1-1 1.1.9c1 .9 1.2 1.1 1 1.1-.1 0-.6-.4-1.1-1zm-6.4-.8c0-.1 0-.4-.2-.7-.4-.4-.4-.5 0-.1.4.2.7.3.9.1l-.2.4c-.2.3-.5.5-.6.5v-.2zm-7.7-.4c0-.2 0-.3.4-.3.2 0 .4.1.3.3l-.3.3-.4-.3zm111.8-26.5h1.3c.3.1 0 .2-.7.2s-1-.1-.6-.2zm-1.9-.6a52.3 52.3 0 0 0 .8.6c-.2 0-.5-.3-.8-.6zm2.2-.7h.8c.2.1 0 .2-.4.2s-.6 0-.4-.2zm-1.7-.8l-.6-.7.8.6 1 .8h-.3c-.1 0-.6-.3-.9-.7zm3.4.7a52 52 0 0 0 1-.5c-.2.3-.6.5-.8.5h-.2zm14.5-.6c0-.4 0-.6.1-.4.1.2.1.6 0 .8l-.1-.4zm-1.3-.6c0-.5 0-.7.1-.4.1.2.1.5 0 .8l-.1-.4zm-17.6-2.3c0-.4 0-.6.1-.4.1.2.1.6 0 .8l-.1-.4zm52-.2c-.4-.1-1-.4-1.5-.8-.7-.5-1.5-.6-11.1-.6h-10.4v-1.8c0-8.1-6.5-15.8-14.8-17.5-2-.4-8-.5-41-.5-38.1 0-38.6 0-39.4.6-1.2 1-2.5.8-3.7-.3-1-1-1.1-1.8-.4-3.2.7-1.4 3-1.8 4.1-.6.6.6 1 .6 40 .6 38.2 0 39.5 0 42 .6a22 22 0 0 1 16.1 18.4v.8h9c7.7 0 9.1 0 9.6-.5 1.1-1 2.7-1 3.8.2 2 2 .4 5.2-2.4 4.6zm-45.9-3.1c0-1.6 0-2.3.1-1.6v1.6zm12.8-3.4a89 89 0 0 1 0 0zm-11.5 2.6c0-.8 0-1.2.1-.8v1.5l-.1-.7zm7.7-2l1.3-2.2c.1 0-.3 1-1 2.2l-1.2 2.3c-.1 0 .3-1 1-2.3zm-15.1.4c0-.7 0-1 .1-.6v1.1l-.1-.5zm-1.3-1.2c0-1 .1-1.4.2-.8v1.9c-.1.5-.2 0-.2-1zm16-1c.1-.4.4-.7.4-.7l-.1.6-.5.7.1-.7zm-7.7-.9c0-.5.1-.7.2-.4v1c-.1.2-.2 0-.2-.6zm-6.4-1.3c0-.2.2-.6.5-.8.5-.4.5-.4.1.2a52.3 52.3 0 0 0-.6.6zm5-1.6c-.5-.4-.8-.8-.6-.8l1 .8c1 1 .7 1-.4 0zm-3.2-1h1.4c.4 0 .1.2-.7.2-.8 0-1.1-.1-.7-.2z"/><path fill="#a18975" d="M121.4 343.2c-1-1-1.1-1.9-.4-3.3.6-1.1.6-1.8.6-12.6 0-6.7.1-11.8.3-12.3.3-.7.5-.8 1.6-.8 8.3 0 16.8-8.3 17.5-17l.2-2.2h34.9c32.6 0 35 0 35.5-.6 1.7-1.5 4.4-.2 4.4 2.2 0 2.2-2.9 3.5-4.3 1.9-.6-.6-1-.6-34.2-.6l-33.6.1-.5 2.3a22 22 0 0 1-16.5 16.3l-2.4.5v10.7c0 10.5 0 10.7.7 11.7 1.4 2 .3 4.4-2 4.4-.8 0-1.4-.2-1.8-.7zm139.4-20.7c-3.7-1-6.3-2.4-8.6-4.7l-2-2-2 .2c-3.6.3-4.8-1.1-6-7.4-1.4-7.5-.7-8.8 5.2-10.2 4.9-1.2 6.2-1 7.8.6l.7.8 1.7-.7 1.6-.7v-2.6c0-2.9.7-4.5 2.4-5.5 1.5-1 8.8-.9 10.4 0 1.6 1 2.2 2.6 2.2 5.5v2.4l1.7.8 1.6.8.9-.8c1.9-1.7 2.7-1.8 7.6-.6 4 .9 5.3 1.9 5.9 4.2.3 1.5-1.3 10.2-2.2 11.5-1 1.5-2.3 2-4.5 1.9l-2-.2-2 2a22.3 22.3 0 0 1-20.4 4.7zm11.5-2.4c2.7-.7 5.3-2 7-3.6l1.5-1.3-1.4-.4c-1.8-.5-3.4-2-3.7-3.6-.2-1.1 0-3.7 1-8.3.1-.7 0-1-.8-1.3-1.4-.8-1.7-.7-1.7.8a5 5 0 0 1-1.7 3.8c-.8.7-1 .8-5.4.9-4.1 0-4.6 0-5.6-.6a4.9 4.9 0 0 1-2.3-4l-.1-1.4c-.4 0-2.5 1-2.5 1.3l.7 3.3c1.2 5.7.5 7.8-2.8 9-1.7.5-1.6.9.3 2.3 2.7 2 5.3 3 9 3.7 1.8.3 6.4 0 8.5-.6zM114 305c-2-1-2.4-2.3-2.3-8.3 0-7.4.7-8.8 4.2-8.8 3 0 3.8 1 4.2 5.7.4 5.9-.4 10.5-2 11.3a5 5 0 0 1-4 .1zm3.4-1.2c1.2-.3 1.5-1.6 1.5-6.8 0-5.6-.5-7.1-2-7.8-1.1-.4-2.8-.1-3.2.6-.9 1.7-1.2 9.7-.5 12 .4 1.4 2 2.6 3 2.3l1.2-.3zm8.6 1.5c-1.2-.2-1.3-.3-1.4-1.6 0-1.2 0-1.4.6-1.4.4 0 .6.3.7 1 .1.7.3.8 1.5.9 2.7.2 3.9-1.2 3.9-4.6 0-2.3-.6-2.7-3.8-2.7-2 0-2.3 0-2.3-.6s.2-.7 2.4-.7c3 0 3.7-.5 3.7-2.8l-.2-2.2c-.5-1.9-5.2-2.4-5.2-.6 0 .6-.2.7-.7.6-.5-.2-.6-.4-.6-1.3.1-1.1.2-1.2 1.4-1.4 2.3-.4 4.6 0 5.7 1 1 1 1 1 .8 3.5 0 2.3-.2 2.7-.8 3.2l-.7.5.8.8c.7.7.8 1 .8 3.4 0 2.6 0 2.7-1 3.8-1.2 1.3-2.8 1.6-5.6 1.2zM2.7 300a4.4 4.4 0 0 1-1-7.4c2-1.7 4.6-1.3 6.4.8l1 1.3 45.7-.1 45.8-.1.7-2.9c.9-3.6 1.4-4.9 3.2-7.6 3-4.4 8-8 13.1-9.1l2.6-.6V261l.1-13.2h.8c.5 0 .8-.1.8-.3 0-.2 15.2-.3 44.8-.3h44.8l1-.7c2-1.5 4.5-.4 4.5 2 0 2.3-2.5 3.4-4.5 2l-1-.7H123.2v11.9c0 6.5 0 12.6-.2 13.5l-.2 1.7-2 .2c-9.2 1-17 9.4-17.1 18.3v1.7H9l-.8 1.2c-1.5 1.8-3.5 2.4-5.5 1.6zm242-4.4c-3.8-1.1-5.5-6-3.5-9.6 2.5-4.6 8.7-4.2 10.8.7 2 5-2.4 10.4-7.3 9zm40.6 0a6.8 6.8 0 0 1-3.7-9.1c2.9-6.2 11.5-4.2 11.5 2.8 0 4.3-4.1 7.6-7.8 6.3zm-21.5-9.2c-5.7-3.5-3.5-12.4 3-12.3 6.1 0 8.1 9.4 2.7 12.2-1.7.9-4.3.9-5.7 0z"/><path fill="#7bb822" d="M259.2 390.5v-2.7l-5.4-5.6-5.4-5.6-.1-3.5v-8.6c.2-5 .2-5.3 1-5.9.9-.7 2.1-.6 3 .4.4.6.5 1.4.5 5.9 0 5 0 5.2-.8 6.2-1.4 1.9-1.1 2.9 1.4 5.7 4.7 5.4 4.8 5.4 5.2 5 .3-.3-.4-1.2-3-4-3.8-4-4-4.4-3.3-5.7.5-1 1.6-1.5 2.8-1.2 1.1.3 11.9 11 12.6 12.6.7 1.5.9 7.4.2 8.8l-.4 1h-8.3zm15 1.4c-.8-2.6-.6-6.3.4-8.3a53.5 53.5 0 0 1 13.2-12.8c.7 0 1.3.3 1.7.8 1.3 1.3 1 2-2.5 6a29 29 0 0 0-3.3 3.9c0 1 1 0 4.1-3.5 3.8-4.2 4-4.8 2.4-7-.9-1.2-1-11.3 0-12 1.5-1.4 3-1 3.5.8.2.7.4 4.5.4 9v7.6l-5.3 5.3c-2.8 2.9-5.4 5.6-5.6 6-.2.5-.3 1.5-.1 3.1l.2 2.4h-8.7l-.4-1.3zm-13.5-20.3c-2-2.5-3-4.6-3.3-6.3-.3-1.9.1-2 1.4-.2.5.7 1.3 1.5 2 1.8 1 .4 1.2 1.1 1 3.9 0 .4.2 1.2.5 1.7.8 1.5-.1 1-1.6-1zm10.5 0c-.3-.7-.5-1.7-.4-2.1.1-.4 0-1.2-.3-1.7l-.4-1.5c0-.8-.9-1.2-2.3-1-1.7.2-3.2-1-3.2-2.8 0-1.3 1.7-3.8 2.8-4.2.9-.4 3-.3 3 0 0 .6 2 1.4 2.2 1 .2-.2.5-.3 1.1 0 1.2.4 2.1.1 2.1-.7 0-.4-.2-.6-.7-.6-.5 0-1-.2-1.2-.5-.2-.4-.4-.5-.5-.2-.3.6-.6.5-1-.4-.2-.4-.6-.8-1-.8s-.4 0 .1.7l.7.7-.9-.7c-1-.9-1.5-.9-2.6.1s-1.8 1-1.8.2c0-.4.2-.7.7-.7.4-.1.8-.4.8-.8.1-.7 2.5-2.5 2.7-2 .2.4 1.1.1 2.2-.7l.8-.6h-.8c-.6 0-.7-.2-.5-.7.2-.5 0-.6-.3-.4-.3 0-.5.5-.5.9 0 1-.3 1.2-1.2.6l-.7-.5 1.2-1.1a6 6 0 0 1 1.4-1c.6 0 1.9.6 1.7.9-.3.5.4.6.8.1l.8-.4c.3 0 .6-.3.7-.7.3-.6.3-.6 1.3 0 2 .9 4.4 3.4 5.6 5.7 1.3 2.5 2.2 6.6 1.5 7.2-.2.3-.3.2-.3-.4 0-1-.7-.7-1.1.6-.5 1.5-.8 1.6-.8.2 0-1.3-.7-2.2-2.1-2.5-.5-.2-1.2-.5-1.5-.8-.3-.3-.7-.4-.8-.3-.3.3.8 1.5 1.4 1.5 1 0 .4 1.3-.9 2-1.2.6-1.3.6-1.5 0-.7-1.6-1.7-3.3-2-3.1-.7.4 1.8 4.3 2.7 4.3.8 0 .6.4-.8 1.8-.9.9-1.2 1.5-1.2 2.1 0 .6-.4 1.3-.8 1.7l-.8 1c0 .5-1.8 2-2.3 2-.4 0-.8-.4-1.1-1.4zm5.2-.7c.4-.8 1-1.2 1-.8 0 .2-.3.6-.6 1-.7.5-.7.5-.4-.2zM259 355.1c.5-.9 2.6-3.2 2.8-3 .2.2-.7 1.8-1.3 2-.3 0-.6.4-.7.7-.1.3-.4.7-.7.8-.4.1-.4 0-.1-.5zm9.4-1.4c0-.4.1-.8.3-.8 0 0 .2.2.2.5v.7c0 .1 0 .3-.2.3s-.3-.3-.3-.7zm-4-2.8c1.3-1.4 6.3-3.7 5.2-2.3l-2.9 1.7c-3.2 1.5-3.2 1.5-2.3.6zM377 323.8c-1.6-1-2.2-3.6-2-8.7.3-5.3.5-5.8 1.6-7 1.4-1.4 4-1.4 5.4 0 1.3 1 1.5 2.5 1.6 7.8 0 4-.4 6.2-1.4 7.5-.8 1.1-3.8 1.3-5.2.4zm4.7-1.3c1-1.2 1.2-9.4.2-12.4a2.8 2.8 0 0 0-4.3-1.5c-1.4 1-2 11.4-.6 13.4 1 1.6 3.6 1.8 4.7.5zm10.8 1.5c0-.3.3-.5.5-.5.8 0 1.2-1.2 1-2.6l-.3-1.3h-3c-2.8 0-3 0-3-.6 0-1.1 5-10.7 6-11.5 1.3-1 1.4-.6 1.4 5.2v5.6h1.1c1 0 1.1.2 1.1.7 0 .5-.2.6-1 .6h-1.2v1.7c0 1.5 0 1.8.7 2 1.3.3.4 1-1.4 1-1.5.1-1.9 0-1.9-.3zm1.3-10c0-5.2 0-5.2-2.9.6l-1.9 3.7h4.8V314z"/><path fill="#c1191c" d="M191.5 455.3l-.9-1 2.7-2.4c1.5-1.4 3.6-3.3 4.6-4.4l2-1.8h-35.7c-35 0-35.7 0-36.5.6-1 .8-2.6.9-3.5.1l-.7-.5v-38.6c-.1-21.2-.3-39-.4-39.4-.8-2.6 2.6-4.7 4.3-2.7.3.4 8 .5 55 .5s54.7 0 55-.5c1-1.1 3.8-.7 4.3.7 1 2.7-1.8 5-4 3.3-.8-.6-1.3-.6-55.4-.6h-54.5l-.7.7-.7.8v71.6l1 .6c1 .5 3.3.5 36.6.5h35.7l-4.5-4.2-4.5-4.2.9-1 .8-1.1 1.3 1.2c3.2 2.8 11.7 10.8 11.7 11 0 .1-12.4 11.6-12.7 11.7l-1.2-.9z"/></svg>