<svg xmlns="http://www.w3.org/2000/svg" version="1" viewBox="0 0 256 232"><g stroke-width="0"><path fill="#f3cdaa" d="M53 211h1l-1 1v-1zm2 0h1l-1 1v-1zm-8 0l1-1-1 1zm12-2h1l-1 1v-1zm7-3h0l-1 1 1-1zm135 0a105 105 0 0 1-10-2l-4-1-1-2 3-2 7 1h2v-1l-1-1a301 301 0 0 0-17-18c-1-1 1-3 2-3s3 1 10 8c4 4 5 5 6 4l-8-8c-7-6-8-7-7-9 1-1 2-2 3-1l5 4 11 9-6-6c-6-5-7-6-6-8l2-2 6 5 8 7-4-5-5-6c0-2 1-3 2-3l13 12 9 9c1 2 0 5-2 8l-10 11h-8zm-11-3l1-1h-3v1h2zm-7-23l1-1h-1c-1-1-2 0-2 1h2zm3-8c-1-1-3 1-2 2h2l1-1zm7-2h-1c-1-1-2 1-1 2l1-1 1-1zm7-1v-1c-1-1-2 0-2 1h2zM82 197h0zm0-1v-1 1zm-44-5c1 0 1 0 0 0v0zm0-2l1-1v1h-1zm44-5h1v1l-1-1zm2-5l-1 1 1-1zm-3-2v0zm-13-4h1l-1 1v-1zm9-3v-1l1 1h-1zm98-49h1c1 0 1 0 0 0h-1zm-6-3l-1-1 1 1 1 1-1-1zm14 1l1-1 1-1-1 1-1 1zm-17-7c0-1 0-1 0 0zm20-2v-1 1zm-20-1v-1 1zm-57 0h0zm36-1h1-1zm10-1h1-1zm30 0c1 0 0 0 0 0 0 1 0 0 0 0zm-44-1l1 1-1-1zm46 0h2l-1 1-1-1zm9 0h1-1zm11 0h0s-1 0 0 0zm-136-3v0zm-20 0h1-1zm163-5v-1 1zm-75-3v-1 1zm-24-3v-1 1zm39 3h1-1zm7-1v-1 1zm14 0h1-1zm9 0h1-1zm12-1h2-2zm8-1v0zm-36 0v-1 1zm45-3l1-2v3l-1-1zm-45 0c0-1 0-1 0 0zm-7-4v-1 1zm-23 0v-2 2zm-39 1h1-1zm105-4v-1 1zm-34-5v-3a133 133 0 0 1 0 3zm-46 6h1-1zm64-1zm-3-3v-1 1zm-47-1v0zm75-2v-1 1zm-16 3h1-1zm-59-1h0zm6 0h0zm58 0h0zm-61-1h0zm2 0h1-1zm-5 0h1-1zm11 0v-1c1 0 1 0 0 0v1zm11-2v-2 2zm-46 0c0 1 0 0 0 0zm36 0h1c0-1 0-1 0 0h-1zM43 73h0zm16-2a519 519 0 0 1-22-26l1-4 9-10c3-3 3-3 5-3h10l-2 2-1 3 6 6a311 311 0 0 1 17 18l-3 3-8-7-8-7 8 9 8 9-2 2-2 1a265 265 0 0 1-17-16c0 1 1 3 4 5 7 6 10 9 10 11l-3 2c-2 0-2 0-8-6l-8-7 5 6c6 5 6 5 5 7l-2 3-2-1zm3-2v-1h-1c-2 1-2 2-1 2l2-1zm8-1v-3l-1 1-1 1 2 1zm7-3v-3l-2 1-1 1 2 1h1zm4-8v-1l-1-1-1 1v2l2-1zm71 14s0-1 0 0c1 0 1 0 0 0zm-75-1h0zm75-1v-1 1zm38 0h1-1zm10 0h1-1zm13-4v-1 1zm-61 2c0-1 0-1 0 0 1 0 1 0 0 0zm-20-1l-1-2 1 1 2 2-2-1zm28-2v-1 1zm-39 0h1-1zm6 0c1 0 0 0 0 0s-1 0 0 0zm43-2v-1 1zm9 1l-1-3 2-3a183 183 0 0 0 17-6l-12 3c-10 4-11 4-11 2l-1-3 8-3 14-6-9 3-9 2h-3v-2c0-2 1-3 4-4l15-5-8 2-6 2c-2 0-3-1-3-3l1-2a317 317 0 0 1 29-10l5 2v1l2-1 1-1 1 1c0 3 1 3 3 3 1-1 1 0 0 0l-1 1a141 141 0 0 0 4 14h-1l-1 2-4 7-1 2v-1l-1-1v1l-1-1-2-2a65 65 0 0 0-12 4c1 0 0 0 0 0l-9 3c-8 2-9 3-10 2zm3-2l-1-1v-1l-1 1v2l2-1zm-5-6v-2l-2 1 1 2h2zm1-8l-1-2c-2 1-2 3 0 3 1 1 1 1 1-1zm1-8c0-2 0-3-1-2-1 2-1 3 1 3v-1zm-29 23v-1 1zm-12-1h1-1zm0-5v-3l1 2c-1 5-1 5-1 1zm1 4h0zm-54-1h1v1l-1-1zm56 0v1-1zm6 0v-1 1zm-10-4v-2 2zm23-1v-1 1zm-38 1v-1 1zm24-1v-1 1zm24-2v-1 1zm-82 1h1-1zm8-3c0-1 0-1 0 0zm50-2v-1 1zm40-1h0zm-49-5v-1 1zm29-5l1-1-1 1c0 1 0 1 0 0zm-73 0h0zm59 0h2-2zm-67-1s0 1 0 0c-1 0-1 0 0 0zm74 0h0zm-78 0c1 0 0 0 0 0zm80 0h0zm9 0h1-1zm6-1h0c-1 0-1 0 0 0zM25 34l-1-1 1 1 1 1-1-1zm118-3c1 0 0 0 0 0s-1 0 0 0zm9 0h2-2zm13-1h1-1zm11 0h1-1zm10 0h1-1zM48 23l-1-1 1 1 1 1-1-1zm-8-7l-1-1 1 1 1 1-1-1zm-7-7l1 1-1-1zm-5-5l-1-1 1 1v0z"/><path fill="#b1c3c9" d="M227 227l-12-11-7-7h1l10-11 1 1c1 1 2 0 1-1l-1-1 3-3 7 6 5 7a387 387 0 0 1-3 25l-5-5zm-3-30l-1-1-1 1h2zm-149 5h1c1 0 0 0 0 0h-1zm9 0h1-1zm64 0h2-2zm-53-1h2l-1 1-1-1zm67 0h1l-1 1v-1zm-57 0h1-1zm67 0h1-1zm10 0h1-1zm-41-6v-1 1zm-23-2v-1 1zm-83-1v-1 1h0zm106-7v-1 1zm78-6v-1 1zm-101-1v-1 1zm-76 1v-1 1zm98-5h1v1l-1-1zm-82-1v0zm37 1v-1h1l-1 1zm42 0h0zm8-3v-2 2zm2-1v-4 4zm11 4h1-1zm3 0h1c1 0 0 0 0 0h-1zm6 0c0-1 0 0 0 0-1 0-1 0 0 0zm-105-4v-3 3zm81 2v-1 1zm-58 1v-1 1zm13 0v-1 1zm92 0v-1 1zm-55-3c0-2 0-3 1-2v3c-1 1-1 0-1-1zm22 1v-1 1zm-28 0l-1-1 1 1 1 1-1-1zm32 1h0s-1 0 0 0zm-50-1h1c1 0 0 0 0 0h-1zm68-1v-1 1zm2-3v-2a55 55 0 0 1 0 2zm-65 4c1 0 1 0 0 0 0 0-1 0 0 0zm68-2s0-1 0 0v0zm-143-1v-1 1zm92 1v-1 1c0 1 0 0 0 0zm85-1v-1 1zm-28-2v-1 1zm14 1v-3l-1-1h-1 1l1 1v5zm-105 1v-1 1zm66-2h1v1l-1-1zm22 1l-2-1h-2 2c2 0 3 0 2 2v-1zm-98-2s0-1 0 0v0zm110 0c0-1 0-2 1-1v1h-1zm-148 0c0-1 0-1 0 0v0zm33-1l1-1v1h-1zm42-1s0-1 0 0v0zm-23-1s0-1 0 0v0zm-14 0h2l-1 1-1-1zm58 0v0zm6 0h1v1l-1-1zm8 0h1c1 0 0 0 0 0h-1zm23 0h1-1zm-123-1h0zm19 0c1 0 0 0 0 0zm53 0h1-1zm12 0h1-1zm-94-3v-1 1zm12 0v-2c1 0 1 0 0 0v5-3zm37 2h1v1l-1-1zm47-3v-4 4zm71 1v-1 1zm-177 0v-1 1zm52 0c0-2 1-2 1-1v2l-1-1zm38 0v-1 1zm24-2v-1 1zm15-2v-2a64 64 0 0 1 0 2zm9 5v-1 1zm-45 0h1-1zm-58-1h1-1zm9-3l1-2v3c0 1-1 1-1-1zm119 1l1-1v1h-1zm-113-2v-1 1zm61-2v-2a36 36 0 0 1 0 2zm-54 2v-1 1zm-38-1v-1 1zm46-1v-2 2zm7 2h0zm95 0c-1 0-1 0 0 0zm-125-2v-1 1zm52 1h1v1l-1-1zm4 0l1-6v-7 14h-1v-1zm-29-1h1l-1 1v-1zm92-1v-1 1zm-140 0l1-1v1l-1 1v-1zm55-1v-1 1zm27 1v-1 1zm41-2v-1 1zm33-1v-1 1zm-108 2h1-1zm-69-3v-1 1zm164 2c1 0 0 0 0 0s-1 0 0 0zm-152 0h2-2zm93-1h0zm-34-1h1l-1 1v-1zm62 0h1l-1 1v-1zm35 0h-1 1zm-3 0h1c1 0 0 0 0 0h-1zm-89-8v-1 1zm-77-2v-1 1zm177 1v-1 1zm-38 1h0c-1 0-1 0 0 0zm6-3h1c0-1 0-1 0 0h-1zm3-5v-1 1c0 1 0 0 0 0zm29-1c0-1 0-1 0 0zm-101-1v0zm25-1c1-1 1-1 0 0 0 0 0 1 0 0zm-99-1l1-1-1 1v1-1zm108-1h1-1zm10-1h2-2zm-112 0h1-1zm11 0h2-2zm8-1h0zm127 0h0s-1 0 0 0zm11 0zm-113-1zm-3-3s0-1 0 0v0zm-9-10c1 0 0 0 0 0z"/><path fill="#d1ab89" d="M45 210c-1-2-2-3-4-2l-1 1 2-1 1-2-4-7-2-6 1-3 4-9 2 1 2 2 15-7 15-7c1-1 2 0 3 1v4l-8 4-11 6c0 1 1 1 12-5 11-5 12-5 13-4v3l-10 6-11 7 9-4c7-4 8-4 10-4s2 1 2 2c0 2 0 3-3 4l-15 8 1 1 7-4c7-3 8-3 9-2l1 2-1 2-21 11c-9 4-9 4-13 2l-1-1-2 2-1 1-1-2zm39-14c0-2 0-3-2-3v2l1 2 1-1zm0-10l-1-2c-1 0-2 1-1 2l1 2h1v-2zm0-8v-1l-2-1-1 1 1 2v2l1-1 1-2zm-6-5v-2h-3l1 2 1 1 1-1zm131 34l-1-1h1l11-12h2l-1 2c-1 1-2 1-1 3 1 1 1 1 0 0l-1-1-5 5-5 4zm-17-15h-1 1l1 1-1-1zm-6-5l-1-1 1 1 1 1-1-1zm9 0c-1 0-1 0 0 0v0zm-4-3l-1-1 1 1 1 1-1-1zm2 0l-1-1 1 1v0zm-5-3l1 1-1-1zm11 0v-1 1zm15-2l-1-1 1 1 1 2-1-2zm-26 0h-1 1l1 1-1-1zm8-1c-1 0-1 0 0 0v0zm5-2l-1-1 1 1s1 0 0 0zm-11-1l-1-1 1 1 1 1-1-1zm3 0h-1 1v0zm9 0l1 1-1-1zm6-2l-1-1 1 1 1 1-1-1zm-5-4l1 1-1-1zm-93-60h1-1zm-5-1h1s0 1 0 0h-1zm-3 0c-1 0-1 0 0 0zm-4 0zm-4-1h1l-1 1v-1zm59 0v0zm-63 0h0zm104-1h0zm11 0h1-1zm-137-1h0zm-4-1v0zm24-2v-1 1zm31-1v-1 1zm-31-1v-1 1c0 1 0 0 0 0zm25-2h1-1zm-3-1h1l-1 1v-1zm-7 0h0zm-3-1h1l-1 1v-1zm15-1v0zm-73-1v0zm31 0l1-1-1 1v0zm85 1c0-1 0-1 0 0-1 0-1 0 0 0zm29-1c0-1 0 0 0 0s-1 0 0 0zm-49-2h1v1l-1-1zm23 0v0zm-82 0h0zm88-6v0zm-89-1c0 1 0 0 0 0zm35 0v-1 1zm48-3s0-1 0 0zm-61 0c0-1 0-1 0 0zm24 0s-1 0 0 0zm1 0h0zm-82-1v0zm70-1v0zm100 0v-1 1c0 1 0 0 0 0zm-113-2v0zm-57 0v-1 1zm71-2c0 1 0 0 0 0zm-71-2h0zm92 0v-1 1zm25-2v-1 1zm-59 0v-1 1zm13 0v-1 1zm-55-1c0-1 0-1 0 0h0zm-15-1v-1 1zm57-2c0 1 0 0 0 0zm112 0c0 1 0 0 0 0zm-99-1v0zm-70 0c0-1 0-1 0 0zm158 0v-1 1zM53 65l1 1-1-1zm149-1v-1 1zm-77-1h0zm-68-1l1-1v1h-1zm45-1v0zm58 0v0zm-73-2h0s-1 0 0 0zm35-1v0zm-20 0c0-1 0-1 0 0zm110 0h1-1zm-1-3l1-1v1h-1zm-41-1s0-1 0 0zM59 54v-1l1 1h-1zm64-1c0 1 0 0 0 0zm-36 0h0zm16-2c0 1 0 0 0 0zm34 0v-1 1c0 1 0 0 0 0zm23 0c0-1 0-1 0 0zm-64 0c0-1 0-1 0 0zm27-1h0zm99-2l-5-15 1-1c1 0 1-1 0 0l-2-1c-1 0-2-4-1-5l17-5 24 16-25 9-9 3zm-4-19c1-1 0-3-1-2l-1 2h2zM80 48h0s-1 0 0 0zm2 0h1-1zm42-1v-1 1zm-88-5l-2-1 2-1v-3c-1-2 0-2 1-1l1 1 5-5 5-5 1 1h1l-3 4-9 9-1 2-1-1zm75-3h0zm-17-2h1c1 0 0 0 0 0h-1zm-5 0h1-1zm33-1h0zm-61-2h1l-1 1v-1zm52-1h0zm-3 0c-1 0-1 0 0 0zm-4-1h1l-1 1v-1zm-4 0h0zm-3 0s-1 0 0 0zm-7-1h0zm-4 0h1-1zm56 0c1 0 0 0 0 0zm14 0h0s-1 0 0 0zm11-1h0zm11 0s-1 0 0 0zM76 30c0-1 0 0 0 0s-1 0 0 0zm114 0h0zM70 29c-1 0-1 0 0 0z"/><path fill="#eba14d" d="M173 121c-3-1-5-3-6-6l-1-6 1-2h-24l-3-3-1-14-1-13h2c3 1 6 0 8-1l4-5c1-4-1-8-5-10l-7-1h-2l-1-24 4-4 7-1a9528 9528 0 0 0 49-1l-9 2-8 3-7 1h-7v10h2l1 1 1 23v13l-1 1-1 1c-1 1 0 9 1 9h12a732 732 0 0 1 23-1V79l-1-1-8 1-1 1c0 2 0 2-4 2h-4l-1-6v-6l8-1h9V58h-4l6-2 6-2 1 1 2 3a1384 1384 0 0 1-1 46l-2 1-12 1-13 1c2 6 0 10-5 13l-7 1zm-12-27a1061 1061 0 0 0 0-48h1V36h-1-10l-8 1v10h3l1 12 1 2c5 3 6 10 2 15l-4 2h-7l7 16 1 1h7l7-1zm-20-35l-3-6v7h2l1-1zm-29 50h1-1zM55 67l-1-1 1 1 1 2-1-2zm3-6v-1h1v1h-1zm-2-1l-1-1 1 1 1 1-1-1zm-1-3h-1 1v0zm27-1v0zm103-1v-1a672 672 0 0 1 0 1zM60 53v-1 1l1 1-1-1zm21-5h1-1zm104 0l1-1v1h-1z"/><path fill="#a09b9a" d="M40 209l1-1v1h-1zm3-1h0c-1 0-1 0 0 0zm-2-4c0-2 0-2 1-1v2l-1-1zm117-3h2l-1 1-1-1zm11 0h1c1 0 0 0 0 0h-1zm10 0h1c1 0 1 0 0 0h-1zm42-2l-1-1 1 1s1 0 0 0zm-154-1h1v-1 1l-1 1h1l-1-1zm-30-4c-1-1-1-1 0 0v0zm156 0v-1l1 1v1l-1-1zm-52-2v-1 1zm47-3l-1-1h1l1 1h-1zm6-3c-1 0-1 0 0 0v0zm0-1h-1 1l1 1-1-1zm-12-2l-2-2 2 2 1 1-1-1zm37 0v-1 1c0 1 0 0 0 0zm-175 0l-1-1h1l1 1h-1zm97-2s0-1 0 0v0zm48 0v-1 1h0zm5-2v-1l1 1h-1zm18-2l-1-1 1 1 1 1-1-1zm-28-1l-1-1 1 1 1 1-1-1zm19 0l1 1-1-1zm-120-1h0s-1 0 0 0zm-4 0v-1 1zm120-1l-1-1 1 1 1 1-1-1zm-53 0h0s-1 0 0 0zm-12 0h0zm55-1l-1-1 1 1v0zm11 0c-1-1-1-1 0 0 0 1 0 0 0 0zm-45-5v-3a78 78 0 0 1 0 3zm63 3v-1 1zm-85 0v-1 1zm10-5v-2a39 39 0 0 1 0 2zm22 3l1-1v1h-1zm29 0c-1 0-1 0 0 0a52 52 0 0 0 1 1l-1-1zm-15-1s0-1 0 0zm23 0l1 1-1-1zm-17 0h1c1 0 0 0 0 0h-1zm-1-3v-1 1zm23-2h1l-1 1v-1zm-19 0v-1 1zm-29-1h1-1zm23 0c-1 0-1 0 0 0zm36-1c0-1 0-1 0 0v0zm-82 0h0zm-6-1l1-1v1h-1zm43-2v0zm-37 1h1-1zm-7-3h0l-1 1 1-1zm15-2v-1 1zm-9 1h0c-1 0-1 0 0 0zm45 0l1-1v1h-1zm22-2v0zm-65 0h1l-1 1v-1zm18-1v-1 1zm63-1s0-1 0 0v0zm-40-1v-1 1zm15 1v0zm-8 0c0-1 0-1 0 0zm19-1h1v1l-1-1zm-31 0h1-1zm-3-3h1-1zm33 0h1-1zm14-6v-1 1zm-77-2v-1 1c0 1 0 1 0 0zm32-3l1 1-1-1zm45-5s0-1 0 0v0zm-2-5l-1-1 1 1 1 1-1-1zm-62 0h1-1zm11-1h1-1zm24 0h0zm9-1h1c1 0 0 0 0 0h-1zM36 40l1-1-1 1h-1 1zm-9-3l-1-1 2 1 1 1-2-1zm9-1h-1 1l1 1-1-1zm7-4zm0-14l-1-1 1 1 1 1-1-1zm-8-7v-1 1l1 1-1-1zm-6-5V5l1 1h-1z"/><path fill="#02aeae" d="M80 200l5-3c1-1 0-4-2-5l-8 3-7 3-1 1 1-1 8-5 9-5v-4h-2c-3 0-3 0-10 4l-8 4h-1l1-1 10-6 10-5c1-1 0-4-1-5h-2a173 173 0 0 0-21 10h-1 1l9-5c10-6 11-6 10-9v-4-4l-3 4c-1 4-1 4-3 0l-1-4h-2l1 4 1 4-1 1h-2l-1 1v-5-5l-2 1a95 95 0 0 0 0 6l-2-3-3-4c-2 0-2 0-2 6v5h2v-7l2 3 2 3 1 1-10 5-11 5-2-2-2-2-1-19a2590 2590 0 0 1 1-34c2-2 3-2 15-2l12-1v-1c-1-5 1-10 5-12l5-1 4 1c4 2 6 5 6 10v3l11-1 12 1c1 0 3 1 3 3l2 14a290 290 0 0 1-1 13h-4c-3 0-5 1-7 3-2 3-3 6-1 10 1 3 5 5 8 4l5 1 1 12v13l-1 1c-1 1-3 3-5 3a1699 1699 0 0 1-32-1zm-22-26l-2-1h-2v-3h1c2 0 2-1 2-2h-3v-3h2l2-1-3-1-4 1 1 10 3 1 3-1zm27 0v-6l-1-5c-2-1-2-1-2 6v5h3zm4 0l1-2v-3l2 3 2 2c2 0 2 0 1-3l-2-2 1-1v-5h-6l-1 5c0 6 0 7 2 6zm1-8c0-2 0-2 1-1 2 0 2 1 0 2l-1 1zm15 7l1-1v-2l-1-1-1 1-3 2-1-1-1-3 2-4 1-1h-3c-2 0-2 1-2 5-1 3 0 4 2 5h6zm6 0h-2 2zm6 0l-1-1-1 1h2zm-63-14v-3h1c4 0 4-2 0-2h-1v-3h2c2 0 2 0 2-2h-3c-4 0-4-1-4 6 0 6 0 6 2 6h1zm8 2l1-3 1-2 2 2 2 3c2 0 2 0 0-3l-1-3 2-3-2-3h-7v12h2zm1-9v-1h1l2 1-2 2h-1zm10 8l1-2h2l2 1c1 2 2 2 3 2 1-1 1 0-3-11l-1-2h-1l-2 1-4 12h1l2-1zm1-4l2-5 1 3v2h-3zm11 4l1-4v-4l2 4 4 5c2 0 2-1 1-7v-6h-2v8l-2-4-2-3-3-1-1 6v6h2zm17 0l1-1 1-1h-2l-2-1-1-3c-1-3 1-5 4-4l1 1v-3h-4c-2 0-3 1-4 3l-1 3 2 5 4 2 1-1zm8-7h3-2l-2-2v-1h2l2-1v-1h-6l-1 3v3h1l3-1z"/><path fill="#766d73" d="M146 201c-2 0-3-1-4-3l-1-13v-12h-3c-5 1-9-1-11-6-2-4-1-7 2-10 2-3 4-3 8-3h3v-12-13l5-3a264 264 0 0 1 26 0l-1 4 1 4c3 7 13 7 16 0v-9h2a278 278 0 0 1 26 1c2 2 2-1 3 31v18l1 9-7-6-6-6v-9h1l2-1-4-1-4 1c-1 1 0 2 2 2h1v5l-2-1-2-2v-2c0-2-1-3-2-3l-1 3v3l-2-2c-2-3-3-4-4-3l-1 5v6a184 184 0 0 1 11 11 91 91 0 0 1-14-13h-1-1l-1-1v-2h2l1-1-1-1h-2v-2l2-1h2l-3-1h-4v5l1 6 1 2 7 7 7 6c1 2 0 1-3-2-10-9-10-9-12-9l-2 1v3a215 215 0 0 0 18 18v1l-3-1c-4-1-6 0-8 1l-18 1h-23zm-3-27v-11h-3v7l-2-4-2-3h-3l1 9 1 1 1-3v-3l1 2 2 3h1l1 1 2 1zm4-4l1-3 1 3 4 4c2 0 2-1 2-7v-5h-3v7l-1-2c-3-5-4-6-5-4l-1 6v5h2zm16 3c1-1 0-1-2-1l-2-1v-2h2l2-1-2-1h-2v-3h2c2 0 3 0 2-1l-3-1h-3v6c0 6 0 6 3 6l3-1zm5 1v-8l1 3 2 4h2l2-3 1-4 1 3c0 5 0 5 1 4h1v-5l-1-6h-1l-4 5-1 3-1-4-2-3-3-1v12h2zm-37-3v-5l-3-3c-2 0-2 0 0 3l1 2 1 2 1 1zm-2-11v-1c0-1-1-1-2 2l2-1zm8 1l1-2-3-1h-2v-2h2l3-2h-3c-4 1-5 2-5 4 0 3 1 3 4 3h3zm10 0l1-4v-4l2 4 2 3h3v-5-6l-1-1h-1l-1 4v3l-2-3c-1-4-2-4-3-4-1-1-2 0-2 1v12h2zm12-1l1-1c0-1 1-2 3-2h1l1 2 1 1h2l-4-12h-4l-3 12 1 1 1-1zm2-5l1-4 1 2 1 2h-2-1zm12 5v-10h1c2 0 3-1 2-2h-9v1l2 1h1v10h3zm13-1c2-1 2-2 2-7v-5h-3v9c0 2-2 2-3 1l-2-5v-5h-1c-1 0-2 1-1 6 0 5 0 6 2 7l6-1zm7-2l1-2c1 0 2 0 2 2l2 3 2-1-1-3-1-2v-1c2-1 2-3 1-4-1-2-2-2-5-2h-3v6l1 7h1zm0-6l2-2 1 2-2 1-1-1zm16 7v-1h-4v-3h2l1-1 1-1h-4v-2l1-1h2l1-1v-1h-7v12h7zm-5 21l-5-6 5 4 2 3-2-1zm-11-10l-1-2v-2l1 1 1 3h-1z"/><path fill="#3b709e" d="M14 215l-14-7 11-5 17-9 6-3 1 1 7 14-1 2-1 1 1-1c2 0 3 0 4 2l1 4-18 8-14-7zm30-2l-1-2-1 1 1 1h1zm20-21v-1 1zm-22-11v-1l1 1v1l-1-1z"/><path fill="#c01513" d="M98 108l-11-2v-3-7c-2-3-4-4-8-4-3 0-6 2-8 5v4l-1 3H57l-8-1c-3-1-5-1-6-3l-1-4v-9a963 963 0 0 0 3-29l6 6 8 7 1 1v4l-1 5-1 1-1 1-1 9h3l7 1h7l3-2 2-5-1-3-1-1v-3l1-6v-2l2-1 5 1 6 1c3 0 3 0 4-6v-6l-3-1H81l1-1v-2l-2-2c-2-2-2-3-1-5l2-1 3 1 1 2 2 2h8l1-2v-7c1-7 1-7-2-7l-34-3v-3l1-2h12a2374 2374 0 0 0 50 7c1 2 2 3 0 15l-1 12h3l4 1c2 0 4 2 5 4l1 5-1 5c-1 2-3 4-5 4l-5 1h-3l-1 3a870 870 0 0 0-2 19l-3 3H98zm17-11v-9h-1l-1-2a379 379 0 0 0 2-21l4 14 3 3h4l6-2c2-2 3-4 3-7s-1-5-3-7c-3-2-4-2-7-2h-4l1-2v-6l-2-8-1-5-1-3-16-2-2 10h1l2 1a683 683 0 0 1-5 37h-1l-1 5v5a281 281 0 0 0 19 1zM58 61l-5-5 6 5 2 3-3-3zm2-7l-2-2 2 1 2 2-2-1z"/><path fill="#91262d" d="M42 213l1-2 1 1-1 1h-1zm180-16l1-1 1 1h-2zM42 96s0-1 0 0zm4-37l-1-2 2 2 1 1-2-1zm48-6h0zM26 35c-5-4-7-7-6-7a595 595 0 0 0 3-28 374 374 0 0 1 26 26l-6 6-5 5-1-1c-2-1-2 0-1 1l1 1-4 4-7-7zm190-7l1-1 1 1h-2z"/></g></svg>