<svg xmlns="http://www.w3.org/2000/svg" viewBox="0 0 525 361">
    <style>.r{fill:#c90c0f;stroke:#c90c0f}.g{fill:#786f75;stroke:#786f75}.w{fill:#fff;stroke:#fff}</style>
    <defs><path id="b" d="M236.6 1.4c.9 6.7 1.2 7.2 2.8 20-1.2 7.3-3.9 10.2-5.9 15.3-74.6.8-199.2-1.2-223.9 0-2.2-.3-4.5-.4-6.7-1.3-2.4-1.2-1.9-10-2.7-15 4-2.1 1.6-5.6.1-9V8.8c2-1 2.4-2.4 3.1-3.8C4.7.5 20 1.2 32.3.6 182.2-.6 153.7 4.1 212.9.1z"/></defs>
    <use class="g" href="#b" transform="matrix(1.34 0 0 2.15 0 1)"/>
    <use class="r" href="#b" transform="matrix(.86 0 0 1.65 135 92)"/>
    <path class="g" stroke-width="7" d="M5 148h122"/>
    <path class="r" stroke-width="4" d="M6 225h498"/>
    <path class="r" stroke-width="0" d="M428.902 115c-.242.279-.391.41-.521.577-1.804 2.38-3.627 4.743-5.376 7.18a16.498 16.498 0 0 0-1.692 2.938c-1.414 3.162-2.753 6.38-4.13 9.56-.148.335-.316.67-.539 1.135a6.975 6.975 0 0 1-1.86-2.604c-1.692-5.487-3.422-10.955-5.152-16.424-.112-.335-.242-.65-.353-.986a18.042 18.042 0 0 0-.689 2.753 23.901 23.901 0 0 1-1.58 5.58c-2.158 4.39-4.334 8.742-6.51 13.113-.13.26-.298.502-.503.856a84.909 84.909 0 0 1-5.58-6.79c-.428-.539-.707-1.264-1.172-1.86-1.004-1.19-1.897-2.343-2.864-3.515-.149-.167-.335-.316-.632-.595-1.842 7.942-3.59 15.754-5.45 23.585a1.283 1.283 0 0 1-.41-.13 32.122 32.122 0 0 1-9.969-9.3 26.356 26.356 0 0 0-5.134-5.04h-.297c1.06 7.049 2.139 14.098 3.218 21.333-.484-.223-.782-.353-1.08-.52-2.045-1.06-4.073-2.158-6.137-3.181a7.886 7.886 0 0 0-2.214-.8c-2.53-.465-5.077-.855-7.626-1.265l-1.562-.167c2.306 3.664 4.52 7.124 6.733 10.62s4.464 6.957 6.77 10.677l-25.556-3.348c4.613 5.561 9.375 10.9 14.08 16.294l-.13.167-21.11-3.72v.186l8.853 7.7c2.976 2.586 5.97 5.134 8.872 7.868-6.212-.26-12.35-.111-18.6.205a135.036 135.036 0 0 0 20.218 14.247l-6.64 3.125 1.079.688a99.157 99.157 0 0 0 10.825 5.58c1.86.8 3.72 1.47 5.58 2.12a13.02 13.02 0 0 0 2.53.503c.837.093 1.041-.093 1.376-.893a27.305 27.305 0 0 1 1.246-2.697 8.333 8.333 0 0 1 1.451-1.86 2.79 2.79 0 0 1 3.59-.465 8.63 8.63 0 0 1 1.265 1.079c.13-.26.279-.577.446-.874a3.2 3.2 0 0 1 2.697-1.637 2.102 2.102 0 0 1 2.12.986l1.358 2.213 2.79-3.72a2.716 2.716 0 0 1 .595.502 24.18 24.18 0 0 1 1.47 6.566 22.208 22.208 0 0 0 4.185.168c-.26-.428-.465-.782-.651-1.135-.893-1.693-1.842-3.367-2.753-5.078a7.44 7.44 0 0 1-.818-3.478 122.425 122.425 0 0 1 .744-12.239 6.752 6.752 0 0 1 .372-1.86c.78-2.009 1.636-3.999 2.473-5.989a3.887 3.887 0 0 1 .298-.502l12.35 5.58c-.13.502-.334.93-.334 1.358a5.58 5.58 0 0 0 3.106 6.342 5.264 5.264 0 0 0 6.528-2.046 5.71 5.71 0 0 1 .447-.54l1.06.559c3.515 1.86 7.05 3.72 10.565 5.58a1.544 1.544 0 0 0 1.692 0c2.716-1.563 5.45-3.07 8.184-4.594a8.723 8.723 0 0 1 .837-.391c.26.353.465.67.689.949a5.17 5.17 0 0 0 6.863 1.209 5.878 5.878 0 0 0 2.492-6.12c-.093-.428-.297-.855-.297-1.246 1.06-.744 14.49-6.92 15.289-7.05.074.335.223.652.223.986.54 3.162 1.079 6.306 1.6 9.468a59.204 59.204 0 0 1 1.283 14.136v.576c.651-1.171.633-2.473 1.86-3.162l3.032 3.59c.614-.762 1.172-1.506 1.767-2.213a1.86 1.86 0 0 1 1.32-.726 3.962 3.962 0 0 1 4.334 2.251l.13.242a8.203 8.203 0 0 1 1.47-1.042 3.85 3.85 0 0 1 4.855 1.042 16.2 16.2 0 0 1 1.86 2.939 22.469 22.469 0 0 1 .985 2.38c1.284-.074 2.586-.111 3.87-.223a31.453 31.453 0 0 0 8.388-1.618 8.575 8.575 0 0 0 2.083-1.097c2.604-1.972 5.152-4.018 7.719-6.027.205-.167.446-.297.651-.446-3.18-.707-6.268-.949-9.56-1.507l9.932-7.663c3.2-2.455 6.454-4.91 9.635-7.44l-.112-.205-20.46 2.493-.111-.186c1.413-1.172 2.883-2.307 4.315-3.441l4.37-3.46 4.465-3.497 4.166-3.403c-7.217 2.083-14.322 4.333-21.446 6.565a.632.632 0 0 1-.186 0h-.093v-.148l.819-.856 3.273-3.33a28.067 28.067 0 0 1 2.028-2.176c4.203-3.831 8.426-7.551 12.63-11.271l.78-.726-.111-.13-18.916 4.743a39.302 39.302 0 0 1 3.403-6.287l.298-.297a27.36 27.36 0 0 0 3.72-6.194l-26.505 6.473a2.474 2.474 0 0 1 .8-.837l13.745-10.1a8.816 8.816 0 0 0 2.046-2.027l4.799-6.827.353-.613-26.207 6.565-.186-.223a98.766 98.766 0 0 0 10.565-16.61l-18.842 7.273-.149-.167c3.497-6.455 7.496-12.686 10.807-19.475l-1.005.335-2.938 1.246a13.578 13.578 0 0 0-3.05 1.693l-13.374 9.523c-.28.205-.577.372-1.06.707.111-.911.167-1.562.297-2.195a38.762 38.762 0 0 1 1.023-4.631c1.488-4.39 3.106-8.742 4.669-13.113.093-.242.242-.502.242-.744a34.317 34.317 0 0 0-2.735 2.976c-.892 1.041-1.767 2.102-2.66 3.162l-2.585 3.069-2.604 3.087-2.66 3.144a33.201 33.201 0 0 1-2.66 2.957 26.04 26.04 0 0 1-.13-5.375c.372-3.72.763-7.44 1.154-11.16.111-1.19.223-2.455.353-3.72h-.186L430.315 138.1l-.167.26h-.149c-.949-7.681-.632-15.456-1.097-23.361zm-7.199 99.423a47.356 47.356 0 0 0-4.724.33 3.534 3.534 0 0 0 .242 2.977 19.232 19.232 0 0 0 4.668 6.45 4.148 4.148 0 0 0 6.157-.275 11.923 11.923 0 0 0 1.432-1.86 32.494 32.494 0 0 0 2.865-6.157 1.32 1.32 0 0 0 0-.465 47.356 47.356 0 0 0-10.64-1zm44.393 2.96c-.175.01-.331.15-.498.436a7.31 7.31 0 0 0-.689 1.62 38.67 38.67 0 0 0-1.209 9.802c0 .39.002.837.43 1.06 1.841-.78 4.073-4.631 5.17-8.965a2.864 2.864 0 0 1 1.917 2.065c.26 1.097.427 2.213.65 3.33a3.33 3.33 0 0 1-.539 2.938 1.079 1.079 0 0 0-.204 1.265 2.288 2.288 0 0 0 2.101-1.228 8.798 8.798 0 0 0 .819-1.99 29.22 29.22 0 0 0 1.06-6.138 10.1 10.1 0 0 1 2.195 7.347c-.112.52-.39 1.265.242 1.6.632.334 1.153-.224 1.6-.633a9.133 9.133 0 0 0 2.696-4.203 4.408 4.408 0 0 0 .13-2.549 8.128 8.128 0 0 0-2.25-3.72 3.274 3.274 0 0 0-3.237-.874 15.55 15.55 0 0 0-1.86.781 3.106 3.106 0 0 0-3.013-1.6c-1.525-.092-2.064 1.135-2.808 1.86a102.41 102.41 0 0 1-2.084-1.86c-.249-.232-.446-.353-.619-.343zm-82.655 1.425l-2.213 2.117c-.67-.818-1.226-1.86-2.528-1.86a2.92 2.92 0 0 0-2.808 1.525 3.255 3.255 0 0 0-4.836.114 16.74 16.74 0 0 0-1.563 2.53 3.534 3.534 0 0 0-.204 2.436 8.351 8.351 0 0 0 2.418 4.222 3.441 3.441 0 0 0 .744.54c.539.26.948.074.948-.503a1.228 1.228 0 0 0 0-.52 8.537 8.537 0 0 1 1.451-6.269c.13-.241.316-.465.614-.892a8.11 8.11 0 0 0 0 .93c.242 1.636.428 3.273.725 4.891a5.58 5.58 0 0 0 .707 1.86 1.748 1.748 0 0 0 1.86 1.005c.13-.633-.242-1.042-.428-1.507a2.883 2.883 0 0 1-.316-1.265 39.525 39.525 0 0 1 .818-4.129 2.213 2.213 0 0 1 1.86-1.637 16.74 16.74 0 0 0 3.181 7.236c.335.409.614.911 1.395.911a6.938 6.938 0 0 0 .186-1.172c-.056-1.692-.056-3.385-.26-5.04a39.06 39.06 0 0 0-.837-4.353 1.395 1.395 0 0 0-.912-1.171z"/>
</svg>