<svg xmlns="http://www.w3.org/2000/svg" version="1" viewBox="0 0 187 168"><path fill="#dbd5d1" d="M62 161l3-2c2-2 2-2 0 0l-3 2zm60-1v-2l1 2c0 2 0 2-1 0zm-55-14l1-7h25l25 1v14H67v-8zM5 136l2-2v2c-1 2-2 2-2 0zm19 1zm108 0zM0 124c0-5 0-7 1-4v8c-1 2-1 0-1-4zm185-2c0-5 1-7 1-4v9l-1-5zm-138-7zM0 62A238 238 0 0 1 2 7l1-1V4c3 1 5 0 4-1s0-1 1-1h2C9 1 29 0 93 1h85-70L38 2l7 14c6 13 6 14 5 18-3 4-3 5-1 4 1-1 1 0 1 1l-2 1c-2-2-6 12-6 19 0 8 2 15 3 14v2c0 2 0 3 1 2s1 0 1 1c-1 2 2 8 3 7s2 0 2 1c1 1 1 1 0 0-2 0-2 0-1 1l2 2 2 1c1 1 1 1 0 0-4-2-2 2 3 6 7 7 15 11 17 10 1 0 2 0 1 1s0 1 2 1h2l4 2 6 2c0 1-16 2-45 2H0zm165 51h7-7zm-47-41l3-2-2 2-3 3 2-3zM86 32l1-2c1 1 0 2-1 3v-1zm6-5l-1-1 3 1c1 2 0 2-2 0zm-3-15l5-2h4l-4 1-5 2c-2 1-2 1 0-1z"/><path fill="#c1bebb" d="M54 167l39-1 39 1-39 1-39-1zm-1-4l1-1 1 1-1 1-1-1zm77 0c-1-1-1-1 1-1l3 1c1 2-1 2-4 0zm-72-1l7-6-2 4c-4 3-5 4-5 2zm8-15l1-8H37c-21 0-29-1-29-2h2a4461 4461 0 0 0 138 2h-29l1 8v8H65zm52 0v-7l-25-1H68l-1 7v8h51zM3 135c-1-1 0-1 1-1l1 1-1 1-1-1zm-2-11l-1-9c-1-2-1-2 1 0l1 9-1 6zm183-1c0-4 0-6 1-4v8c-1 2-1 0-1-4zm-97-12l-5-2h11l13-1 3-1h1l1-1 10-5 1-1 7-5 5-5 1-2 2-2c-1 0-1-1 1-3l1-3c-1-1 0-1 1-1v-1l1-2 1-3v-3l1-12c0-13-4-22-11-31-5-6-20-15-22-14l-1-1-2-1h-3a61 61 0 0 0-24 0l-2 1-3 1v1c0 2 0 2-1 1h-4c-1 2-2 2-3 2l-2 1-1 2c-1-1-2 0-3 1l-1 2-3 3-4 4-1 2c-1 0-2 0-1-1 0-1-2-8-6-15L38 2h140l4 3 3 3v105h-47c-43 0-47 0-51-2zm-15-6h1l1 1-1 1-1-2zm-8-4c0-2 0-2 1-1l1 2-2-1zm-7-6l-2-4 7 8-5-4zm-9-12c1-1 0-2-1-2v-2l2 1c2 3 2 4 0 4l-1-1zm-3-6v-2l-2-13c-1-7 1-20 3-20l-1 6c-2 7-1 22 2 26l-1 3h-1zm28-9l-2-3 3 2 3 3c0 1-1 1-4-2zM47 38c1-1 1-2 2-1l-1 2c-2 2-2 1-1-1zm45-16l3-3-1 3-3 2 1-2zM1 10c0-1 0-2 1-1v3l-1-2zm4-6l4-2c2 0 2 0-3 3L2 7z"/><path fill="#6ab32d" d="M52 165v-2l1 2c1 2 1 3-1 0zm9-4l2-2c2-2 2-2 1 0l-3 2zm119-25l2-3c2-1 2-1 0 1l-2 2zM1 115zm61-16l-2-2c-1 1-4-2-4-4 1-1 0-3-1-4h-1c0 2 0 2-1 1l-1-2c1-1 0-3-1-3v1c1 1 0 1 0 0-1 0-2-2-1-3 0-1 0-2-1-1s-1 0-1-1v-2l-1-2v-2c-1 1-2 0-1-2l-1-2v-3c0-5 2-5 6 1 2 3 5 6 7 6 2 1 3 2 3 6l2 14 1 7-2-3zm32-5l-2-9c-1-14-2-15-10-14-6 0-10-5-10-11 0-11 14-20 21-13 2 2 4 2 9 2s8-1 8-2l-2-1c-2 0-4-2-4-3-2-2-2-2-3 0l-4-2-1-1c1 3 1 3-1 1-4-3-6-3-10 1-3 2-6 2-6 0-1-1 0-2 2-3l3-2c0-3 8-8 11-8l5-1c2-2 2-3 0-4-2-2-2-2-3 1s-2 3-4 2c-2-2-2-2 0-6 3-3 7-4 11-3 1 1 2 2 1 3h1l5-2c2-1 3-5 0-5v-1c1-2 16 9 21 14 6 8 10 18 11 28 1 9 1 10-1 6l-2-3-2 6-2 5-1-4c-2-7-2-8-11-12h-4l4 2c3 1 3 5-1 7-4 3-7 3-10-4s-5-7-2 0c3 6 5 9 8 9s2 2-3 7c-3 2-4 5-4 7 0 5-11 17-14 17l-4-4zm36-1l3-2c2-2 2-2 0 0l-3 2zm-18-2c0-3 3-6 4-5l-2 4-2 1zM49 36l1-1 1-1 1-2 2-2c-1-2 4-6 6-6s1 3-4 8c-5 6-7 7-7 4zm35-7c0-1 0-2 1-1l1 2-1 2-1-3zm-24-7l2-2c2-2 2-2 0 1-1 2-2 2-2 1zm8 0c0-1 2-3 6-5l5-5c-1-1 0-1 1-1h9L68 23v-1z"/></svg>